<mxfile host="Electron" modified="2023-08-10T15:29:16.994Z" agent="Mozilla/5.0 (Windows NT 10.0; Win64; x64) AppleWebKit/537.36 (KHTML, like Gecko) draw.io/21.6.5 Chrome/114.0.5735.243 Electron/25.3.1 Safari/537.36" etag="OqbOQmzcUiN3IO53-PxN" version="21.6.5" type="device" pages="7">
  <diagram id="hz0YKi90pAq9iTI2zLdf" name="Domain">
    <mxGraphModel dx="1418" dy="828" grid="1" gridSize="10" guides="1" tooltips="1" connect="1" arrows="1" fold="1" page="1" pageScale="1" pageWidth="850" pageHeight="1100" math="0" shadow="0">
      <root>
        <mxCell id="0" />
        <mxCell id="1" parent="0" />
        <mxCell id="miGPx_wNWRa5gkew-bWe-1" value="&lt;h1&gt;Project&lt;/h1&gt;&lt;p&gt;An idea, an MVP or an already laucnhed system which is needed in development or maintenance.&amp;nbsp;It encompasses the full lifecycle of development and maintenance, embodying the evolution from conceptualization to continuous refinement and sustenance.&lt;/p&gt;" style="text;html=1;strokeColor=none;fillColor=none;spacing=5;spacingTop=-20;whiteSpace=wrap;overflow=hidden;rounded=0;fontFamily=Lucida Console;" parent="1" vertex="1">
          <mxGeometry x="70" y="20" width="310" height="160" as="geometry" />
        </mxCell>
        <mxCell id="miGPx_wNWRa5gkew-bWe-2" value="&lt;h1&gt;Project invintation&lt;/h1&gt;&lt;div class=&quot;text-xs flex items-center justify-center gap-1 invisible absolute left-0 top-2 -ml-4 -translate-x-full group-hover:visible !invisible&quot;&gt;&lt;/div&gt;&lt;p&gt;&lt;span style=&quot;background-color: initial;&quot;&gt;User invitation to a project refers to the act of inviting individuals to join and to be a part of a specific project or initiative.&lt;/span&gt;&lt;/p&gt;" style="text;html=1;strokeColor=none;fillColor=none;spacing=5;spacingTop=-20;whiteSpace=wrap;overflow=hidden;rounded=0;fontFamily=Lucida Console;" parent="1" vertex="1">
          <mxGeometry x="440" y="460" width="310" height="110" as="geometry" />
        </mxCell>
        <mxCell id="miGPx_wNWRa5gkew-bWe-3" value="&lt;h1&gt;Project membership&lt;/h1&gt;&lt;p&gt;A user owning a membership in some project gains privileges to access its latest updates, private information, and actively engage in discussions.&lt;/p&gt;" style="text;html=1;strokeColor=none;fillColor=none;spacing=5;spacingTop=-20;whiteSpace=wrap;overflow=hidden;rounded=0;fontFamily=Lucida Console;" parent="1" vertex="1">
          <mxGeometry x="440" y="180" width="320" height="140" as="geometry" />
        </mxCell>
        <mxCell id="miGPx_wNWRa5gkew-bWe-4" value="&lt;h1&gt;Project log&lt;/h1&gt;&lt;div class=&quot;text-xs flex items-center justify-center gap-1 invisible absolute left-0 top-2 -ml-4 -translate-x-full group-hover:visible !invisible&quot;&gt;&lt;/div&gt;&lt;p&gt;A chronological sequence of events that have taken place throughout the project&#39;s existence.&lt;br&gt;&lt;/p&gt;" style="text;html=1;strokeColor=none;fillColor=none;spacing=5;spacingTop=-20;whiteSpace=wrap;overflow=hidden;rounded=0;fontFamily=Lucida Console;" parent="1" vertex="1">
          <mxGeometry x="70" y="180" width="310" height="90" as="geometry" />
        </mxCell>
        <mxCell id="PU-VMybd4YUDLrk9q90E-1" value="&lt;h1&gt;Project participation request&lt;/h1&gt;&lt;div class=&quot;text-xs flex items-center justify-center gap-1 invisible absolute left-0 top-2 -ml-4 -translate-x-full group-hover:visible !invisible&quot;&gt;&lt;/div&gt;&lt;p&gt;Is a request made by an individual expressing interest and intention to engage in a specific project, seeking approval to become a part of a project and to be involved and contribute to its activities.&lt;br&gt;&lt;/p&gt;" style="text;html=1;strokeColor=none;fillColor=none;spacing=5;spacingTop=-20;whiteSpace=wrap;overflow=hidden;rounded=0;fontFamily=Lucida Console;" parent="1" vertex="1">
          <mxGeometry x="440" y="300" width="340" height="150" as="geometry" />
        </mxCell>
        <mxCell id="hxDENdTre6FTzedrDGau-1" value="&lt;h1&gt;Project member&lt;/h1&gt;&lt;p&gt;TODO&lt;/p&gt;" style="text;html=1;strokeColor=none;fillColor=none;spacing=5;spacingTop=-20;whiteSpace=wrap;overflow=hidden;rounded=0;fontFamily=Lucida Console;" parent="1" vertex="1">
          <mxGeometry x="435" y="20" width="320" height="140" as="geometry" />
        </mxCell>
      </root>
    </mxGraphModel>
  </diagram>
  <diagram name="Tech stack" id="D7fvDx2xHC83VDwtetVc">
    <mxGraphModel dx="1418" dy="828" grid="1" gridSize="10" guides="1" tooltips="1" connect="1" arrows="1" fold="1" page="1" pageScale="1" pageWidth="900" pageHeight="1600" math="0" shadow="0">
      <root>
        <mxCell id="0" />
        <mxCell id="1" parent="0" />
        <mxCell id="G51M9mRrKhU2FWZTegdM-6" value="" style="swimlane;startSize=0;" parent="1" vertex="1">
          <mxGeometry x="310" y="150" width="260" height="590" as="geometry" />
        </mxCell>
        <mxCell id="G51M9mRrKhU2FWZTegdM-7" value="Project log / events&lt;br&gt;Chat" style="rounded=1;whiteSpace=wrap;html=1;" parent="G51M9mRrKhU2FWZTegdM-6" vertex="1">
          <mxGeometry x="70" y="300" width="120" height="60" as="geometry" />
        </mxCell>
        <mxCell id="G51M9mRrKhU2FWZTegdM-8" value="Authorization server&lt;br&gt;Keycloak" style="rounded=1;whiteSpace=wrap;html=1;" parent="G51M9mRrKhU2FWZTegdM-6" vertex="1">
          <mxGeometry x="70" y="20" width="120" height="60" as="geometry" />
        </mxCell>
        <mxCell id="G51M9mRrKhU2FWZTegdM-9" value="API gateway" style="rounded=1;whiteSpace=wrap;html=1;" parent="G51M9mRrKhU2FWZTegdM-6" vertex="1">
          <mxGeometry x="70" y="90" width="120" height="60" as="geometry" />
        </mxCell>
        <mxCell id="G51M9mRrKhU2FWZTegdM-10" value="?User profile service?" style="rounded=1;whiteSpace=wrap;html=1;" parent="G51M9mRrKhU2FWZTegdM-6" vertex="1">
          <mxGeometry x="70" y="230" width="120" height="60" as="geometry" />
        </mxCell>
        <mxCell id="G51M9mRrKhU2FWZTegdM-11" value="Project service" style="rounded=1;whiteSpace=wrap;html=1;" parent="G51M9mRrKhU2FWZTegdM-6" vertex="1">
          <mxGeometry x="70" y="160" width="120" height="60" as="geometry" />
        </mxCell>
        <mxCell id="G51M9mRrKhU2FWZTegdM-27" value="Mailing service" style="rounded=1;whiteSpace=wrap;html=1;" parent="G51M9mRrKhU2FWZTegdM-6" vertex="1">
          <mxGeometry x="70" y="370" width="120" height="60" as="geometry" />
        </mxCell>
        <mxCell id="vZ1PNx3M4T1IkCZhii9j-1" value="Config service" style="rounded=1;whiteSpace=wrap;html=1;" parent="G51M9mRrKhU2FWZTegdM-6" vertex="1">
          <mxGeometry x="70" y="440" width="120" height="60" as="geometry" />
        </mxCell>
        <mxCell id="vZ1PNx3M4T1IkCZhii9j-2" value="Discovery service" style="rounded=1;whiteSpace=wrap;html=1;" parent="G51M9mRrKhU2FWZTegdM-6" vertex="1">
          <mxGeometry x="70" y="510" width="120" height="60" as="geometry" />
        </mxCell>
        <mxCell id="G51M9mRrKhU2FWZTegdM-12" value="" style="swimlane;startSize=0;" parent="1" vertex="1">
          <mxGeometry x="50" y="365" width="200" height="200" as="geometry" />
        </mxCell>
        <mxCell id="EzP0jYLlIRx20xmHKV-g-1" value="Angular SPA" style="rounded=1;whiteSpace=wrap;html=1;" parent="G51M9mRrKhU2FWZTegdM-12" vertex="1">
          <mxGeometry x="40" y="70" width="120" height="60" as="geometry" />
        </mxCell>
        <mxCell id="G51M9mRrKhU2FWZTegdM-13" value="Backend" style="text;html=1;strokeColor=none;fillColor=none;align=center;verticalAlign=middle;whiteSpace=wrap;rounded=0;fontStyle=1;fontSize=16;" parent="1" vertex="1">
          <mxGeometry x="410" y="110" width="60" height="30" as="geometry" />
        </mxCell>
        <mxCell id="G51M9mRrKhU2FWZTegdM-15" value="Frontend" style="text;html=1;strokeColor=none;fillColor=none;align=center;verticalAlign=middle;whiteSpace=wrap;rounded=0;fontStyle=1;fontSize=16;" parent="1" vertex="1">
          <mxGeometry x="120" y="325" width="60" height="30" as="geometry" />
        </mxCell>
        <mxCell id="G51M9mRrKhU2FWZTegdM-16" value="" style="swimlane;startSize=0;" parent="1" vertex="1">
          <mxGeometry x="800" y="130" width="300" height="180" as="geometry" />
        </mxCell>
        <mxCell id="G51M9mRrKhU2FWZTegdM-17" value="RabbitMQ" style="rounded=1;whiteSpace=wrap;html=1;" parent="G51M9mRrKhU2FWZTegdM-16" vertex="1">
          <mxGeometry x="10" y="20" width="120" height="60" as="geometry" />
        </mxCell>
        <mxCell id="G51M9mRrKhU2FWZTegdM-19" value="" style="shape=message;html=1;html=1;outlineConnect=0;labelPosition=center;verticalLabelPosition=bottom;align=center;verticalAlign=top;" parent="G51M9mRrKhU2FWZTegdM-16" vertex="1">
          <mxGeometry x="100" y="60" width="30" height="20" as="geometry" />
        </mxCell>
        <mxCell id="G51M9mRrKhU2FWZTegdM-20" value="PostgreSQL" style="shape=cylinder3;whiteSpace=wrap;html=1;boundedLbl=1;backgroundOutline=1;size=15;" parent="G51M9mRrKhU2FWZTegdM-16" vertex="1">
          <mxGeometry x="180" y="10" width="90" height="80" as="geometry" />
        </mxCell>
        <mxCell id="G51M9mRrKhU2FWZTegdM-21" value="Elasticsearch" style="rounded=1;whiteSpace=wrap;html=1;" parent="G51M9mRrKhU2FWZTegdM-16" vertex="1">
          <mxGeometry x="10" y="100" width="120" height="60" as="geometry" />
        </mxCell>
        <mxCell id="EtK3cc_h4ow2f8DPS8Om-1" value="MinIO" style="rounded=1;whiteSpace=wrap;html=1;" parent="G51M9mRrKhU2FWZTegdM-16" vertex="1">
          <mxGeometry x="165" y="100" width="120" height="60" as="geometry" />
        </mxCell>
        <mxCell id="G51M9mRrKhU2FWZTegdM-18" value="Storage / Queues" style="text;html=1;strokeColor=none;fillColor=none;align=center;verticalAlign=middle;whiteSpace=wrap;rounded=0;fontStyle=1;fontSize=16;" parent="1" vertex="1">
          <mxGeometry x="925" y="90" width="150" height="30" as="geometry" />
        </mxCell>
        <mxCell id="G51M9mRrKhU2FWZTegdM-25" value="" style="swimlane;startSize=0;" parent="1" vertex="1">
          <mxGeometry x="800" y="390" width="300" height="180" as="geometry" />
        </mxCell>
        <mxCell id="G51M9mRrKhU2FWZTegdM-23" value="Logstash" style="rounded=1;whiteSpace=wrap;html=1;" parent="G51M9mRrKhU2FWZTegdM-25" vertex="1">
          <mxGeometry x="30" y="20" width="120" height="60" as="geometry" />
        </mxCell>
        <mxCell id="G51M9mRrKhU2FWZTegdM-24" value="Kibana" style="rounded=1;whiteSpace=wrap;html=1;" parent="G51M9mRrKhU2FWZTegdM-25" vertex="1">
          <mxGeometry x="170" y="20" width="120" height="60" as="geometry" />
        </mxCell>
        <mxCell id="G51M9mRrKhU2FWZTegdM-29" value="Nginx" style="rounded=1;whiteSpace=wrap;html=1;" parent="G51M9mRrKhU2FWZTegdM-25" vertex="1">
          <mxGeometry x="30" y="100" width="120" height="60" as="geometry" />
        </mxCell>
        <mxCell id="G51M9mRrKhU2FWZTegdM-26" value="Other" style="text;html=1;strokeColor=none;fillColor=none;align=center;verticalAlign=middle;whiteSpace=wrap;rounded=0;fontStyle=1;fontSize=16;" parent="1" vertex="1">
          <mxGeometry x="925" y="350" width="150" height="30" as="geometry" />
        </mxCell>
        <mxCell id="0NUUjgFXKfj6AYYK2Old-2" value="" style="endArrow=none;dashed=1;html=1;dashPattern=1 3;strokeWidth=2;rounded=0;entryX=0;entryY=0.5;entryDx=0;entryDy=0;exitX=0.5;exitY=0;exitDx=0;exitDy=0;" parent="1" source="0NUUjgFXKfj6AYYK2Old-3" target="G51M9mRrKhU2FWZTegdM-29" edge="1">
          <mxGeometry width="50" height="50" relative="1" as="geometry">
            <mxPoint x="810" y="630" as="sourcePoint" />
            <mxPoint x="670" y="320" as="targetPoint" />
          </mxGeometry>
        </mxCell>
        <mxCell id="0NUUjgFXKfj6AYYK2Old-3" value="Serve static" style="text;html=1;align=center;verticalAlign=middle;whiteSpace=wrap;rounded=0;" parent="1" vertex="1">
          <mxGeometry x="630" y="570" width="150" height="30" as="geometry" />
        </mxCell>
        <mxCell id="vZ1PNx3M4T1IkCZhii9j-3" value="" style="endArrow=none;dashed=1;html=1;dashPattern=1 3;strokeWidth=2;rounded=0;entryX=0;entryY=0.5;entryDx=0;entryDy=0;" parent="1" target="G51M9mRrKhU2FWZTegdM-17" edge="1">
          <mxGeometry width="50" height="50" relative="1" as="geometry">
            <mxPoint x="690" y="110" as="sourcePoint" />
            <mxPoint x="750" y="280" as="targetPoint" />
          </mxGeometry>
        </mxCell>
        <mxCell id="vZ1PNx3M4T1IkCZhii9j-4" value="Service messaging. Delayed transactions" style="text;html=1;strokeColor=none;fillColor=none;align=center;verticalAlign=middle;whiteSpace=wrap;rounded=0;" parent="1" vertex="1">
          <mxGeometry x="580" y="80" width="140" height="30" as="geometry" />
        </mxCell>
        <mxCell id="2nLFhfJBGrLG3_gS2Nmg-1" value="" style="endArrow=none;dashed=1;html=1;dashPattern=1 3;strokeWidth=2;rounded=0;exitX=0;exitY=0.5;exitDx=0;exitDy=0;" parent="1" source="G51M9mRrKhU2FWZTegdM-23" target="2nLFhfJBGrLG3_gS2Nmg-2" edge="1">
          <mxGeometry width="50" height="50" relative="1" as="geometry">
            <mxPoint x="870" y="420" as="sourcePoint" />
            <mxPoint x="700" y="330" as="targetPoint" />
          </mxGeometry>
        </mxCell>
        <mxCell id="2nLFhfJBGrLG3_gS2Nmg-2" value="Log pipeline. Providing Elasticsearch with documents built from entities to be available for futher search&amp;nbsp;" style="text;html=1;strokeColor=none;fillColor=none;align=center;verticalAlign=middle;whiteSpace=wrap;rounded=0;" parent="1" vertex="1">
          <mxGeometry x="620" y="315" width="160" height="75" as="geometry" />
        </mxCell>
      </root>
    </mxGraphModel>
  </diagram>
  <diagram id="ssqF_nUJ5mbysXgZox4e" name="Flows">
    <mxGraphModel dx="4727" dy="2760" grid="1" gridSize="10" guides="1" tooltips="1" connect="1" arrows="1" fold="1" page="1" pageScale="1" pageWidth="900" pageHeight="1600" math="0" shadow="0">
      <root>
        <mxCell id="0" />
        <mxCell id="1" parent="0" />
        <mxCell id="f9wC7at-riD2UhF1JU6C-27" value="" style="swimlane;startSize=0;rounded=0;fillStyle=solid;fillColor=none;fontStyle=0;fontFamily=Lucida Console;" parent="1" vertex="1">
          <mxGeometry x="130" y="210" width="1430" height="630" as="geometry" />
        </mxCell>
        <mxCell id="f9wC7at-riD2UhF1JU6C-1" value="Create" style="rounded=1;whiteSpace=wrap;html=1;fontStyle=0;fillColor=#dae8fc;strokeColor=#6c8ebf;fontFamily=Lucida Console;" parent="f9wC7at-riD2UhF1JU6C-27" vertex="1">
          <mxGeometry x="133.75" y="180" width="120" height="30" as="geometry" />
        </mxCell>
        <mxCell id="slEf7pB94JtYudOX0Uz1-103" value="" style="edgeStyle=orthogonalEdgeStyle;rounded=0;orthogonalLoop=1;jettySize=auto;html=1;exitX=0.5;exitY=1;exitDx=0;exitDy=0;fontFamily=Lucida Console;" parent="f9wC7at-riD2UhF1JU6C-27" source="f9wC7at-riD2UhF1JU6C-16" target="slEf7pB94JtYudOX0Uz1-102" edge="1">
          <mxGeometry relative="1" as="geometry">
            <mxPoint x="100" y="380" as="sourcePoint" />
          </mxGeometry>
        </mxCell>
        <mxCell id="f9wC7at-riD2UhF1JU6C-12" value="" style="edgeStyle=orthogonalEdgeStyle;rounded=0;orthogonalLoop=1;jettySize=auto;html=1;fontStyle=0;exitX=0.5;exitY=1;exitDx=0;exitDy=0;entryX=0.588;entryY=-0.002;entryDx=0;entryDy=0;entryPerimeter=0;fontFamily=Lucida Console;" parent="f9wC7at-riD2UhF1JU6C-27" source="f9wC7at-riD2UhF1JU6C-1" target="f9wC7at-riD2UhF1JU6C-16" edge="1">
          <mxGeometry relative="1" as="geometry">
            <mxPoint x="110.03030303030323" y="460" as="targetPoint" />
            <Array as="points">
              <mxPoint x="194" y="310" />
              <mxPoint x="111" y="310" />
            </Array>
          </mxGeometry>
        </mxCell>
        <mxCell id="f9wC7at-riD2UhF1JU6C-16" value="Suspend" style="whiteSpace=wrap;html=1;fillColor=#dae8fc;strokeColor=#6c8ebf;rounded=1;fontStyle=0;fontFamily=Lucida Console;" parent="f9wC7at-riD2UhF1JU6C-27" vertex="1">
          <mxGeometry x="40" y="340" width="120" height="30" as="geometry" />
        </mxCell>
        <mxCell id="f9wC7at-riD2UhF1JU6C-33" value="&lt;span&gt;Hire status&lt;/span&gt;" style="text;html=1;strokeColor=none;fillColor=none;align=center;verticalAlign=middle;whiteSpace=wrap;rounded=0;fontStyle=1;fontFamily=Lucida Console;" parent="f9wC7at-riD2UhF1JU6C-27" vertex="1">
          <mxGeometry x="1130" y="10" width="100" height="30" as="geometry" />
        </mxCell>
        <mxCell id="f9wC7at-riD2UhF1JU6C-36" value="" style="edgeStyle=orthogonalEdgeStyle;rounded=0;orthogonalLoop=1;jettySize=auto;html=1;fontStyle=0;fontFamily=Lucida Console;" parent="f9wC7at-riD2UhF1JU6C-27" source="f9wC7at-riD2UhF1JU6C-34" target="f9wC7at-riD2UhF1JU6C-35" edge="1">
          <mxGeometry relative="1" as="geometry">
            <Array as="points">
              <mxPoint x="1080" y="60" />
              <mxPoint x="1280" y="60" />
            </Array>
          </mxGeometry>
        </mxCell>
        <mxCell id="f9wC7at-riD2UhF1JU6C-34" value="Seeking people" style="rounded=1;whiteSpace=wrap;html=1;fontStyle=0;fillColor=#dae8fc;strokeColor=#6c8ebf;fontFamily=Lucida Console;" parent="f9wC7at-riD2UhF1JU6C-27" vertex="1">
          <mxGeometry x="1020" y="80" width="120" height="30" as="geometry" />
        </mxCell>
        <mxCell id="f9wC7at-riD2UhF1JU6C-37" value="" style="edgeStyle=orthogonalEdgeStyle;rounded=0;orthogonalLoop=1;jettySize=auto;html=1;fontStyle=0;fontFamily=Lucida Console;" parent="f9wC7at-riD2UhF1JU6C-27" source="f9wC7at-riD2UhF1JU6C-35" target="f9wC7at-riD2UhF1JU6C-34" edge="1">
          <mxGeometry relative="1" as="geometry">
            <Array as="points">
              <mxPoint x="1170" y="130" />
              <mxPoint x="1170" y="130" />
            </Array>
          </mxGeometry>
        </mxCell>
        <mxCell id="f9wC7at-riD2UhF1JU6C-35" value="Not seeking people" style="rounded=1;whiteSpace=wrap;html=1;fontStyle=0;fillColor=#dae8fc;strokeColor=#6c8ebf;fontFamily=Lucida Console;" parent="f9wC7at-riD2UhF1JU6C-27" vertex="1">
          <mxGeometry x="1220" y="80" width="120" height="30" as="geometry" />
        </mxCell>
        <mxCell id="sBYTWP0x9dQmZdZI7Vvy-24" value="&lt;span&gt;Software project state&lt;/span&gt;" style="text;html=1;strokeColor=none;fillColor=none;align=center;verticalAlign=middle;whiteSpace=wrap;rounded=0;fontStyle=1;fontFamily=Lucida Console;" parent="f9wC7at-riD2UhF1JU6C-27" vertex="1">
          <mxGeometry x="270" y="10" width="100" height="30" as="geometry" />
        </mxCell>
        <mxCell id="sBYTWP0x9dQmZdZI7Vvy-25" value="&lt;span&gt;Access control&lt;/span&gt;" style="text;html=1;strokeColor=none;fillColor=none;align=center;verticalAlign=middle;whiteSpace=wrap;rounded=0;fontStyle=1;fontFamily=Lucida Console;" parent="f9wC7at-riD2UhF1JU6C-27" vertex="1">
          <mxGeometry x="1045" y="235" width="100" height="30" as="geometry" />
        </mxCell>
        <mxCell id="sBYTWP0x9dQmZdZI7Vvy-27" value="Members only" style="rounded=1;whiteSpace=wrap;html=1;fontStyle=0;fillColor=#dae8fc;strokeColor=#6c8ebf;fontFamily=Lucida Console;" parent="f9wC7at-riD2UhF1JU6C-27" vertex="1">
          <mxGeometry x="910" y="290" width="120" height="30" as="geometry" />
        </mxCell>
        <mxCell id="sBYTWP0x9dQmZdZI7Vvy-28" value="Free for all" style="rounded=1;whiteSpace=wrap;html=1;fontStyle=0;fillColor=#dae8fc;strokeColor=#6c8ebf;fontFamily=Lucida Console;" parent="f9wC7at-riD2UhF1JU6C-27" vertex="1">
          <mxGeometry x="1045" y="380" width="120" height="30" as="geometry" />
        </mxCell>
        <mxCell id="sBYTWP0x9dQmZdZI7Vvy-29" value="Custom" style="rounded=1;whiteSpace=wrap;html=1;fontStyle=0;fillColor=#dae8fc;strokeColor=#6c8ebf;fontFamily=Lucida Console;" parent="f9wC7at-riD2UhF1JU6C-27" vertex="1">
          <mxGeometry x="835" y="410" width="120" height="30" as="geometry" />
        </mxCell>
        <mxCell id="-yiGcmJATV5F3HlmwKO7-4" value="" style="endArrow=classic;html=1;rounded=0;fontStyle=0;edgeStyle=orthogonalEdgeStyle;entryX=0.5;entryY=0;entryDx=0;entryDy=0;exitX=0.436;exitY=1.008;exitDx=0;exitDy=0;exitPerimeter=0;fontFamily=Lucida Console;" parent="f9wC7at-riD2UhF1JU6C-27" source="f9wC7at-riD2UhF1JU6C-1" target="f9wC7at-riD2UhF1JU6C-16" edge="1">
          <mxGeometry width="50" height="50" relative="1" as="geometry">
            <mxPoint x="190" y="210" as="sourcePoint" />
            <mxPoint x="375" y="310" as="targetPoint" />
            <Array as="points">
              <mxPoint x="186" y="270" />
              <mxPoint x="100" y="270" />
            </Array>
          </mxGeometry>
        </mxCell>
        <mxCell id="f9wC7at-riD2UhF1JU6C-3" value="Project lifecycle" style="text;html=1;strokeColor=none;fillColor=none;align=center;verticalAlign=middle;whiteSpace=wrap;rounded=0;fontStyle=1;fontSize=16;fontFamily=Lucida Console;" parent="f9wC7at-riD2UhF1JU6C-27" vertex="1">
          <mxGeometry x="490" width="240" height="30" as="geometry" />
        </mxCell>
        <mxCell id="slEf7pB94JtYudOX0Uz1-97" value="" style="endArrow=classic;startArrow=classic;html=1;rounded=0;exitX=0.5;exitY=0;exitDx=0;exitDy=0;entryX=0.5;entryY=1;entryDx=0;entryDy=0;fontFamily=Lucida Console;" parent="f9wC7at-riD2UhF1JU6C-27" source="sBYTWP0x9dQmZdZI7Vvy-29" target="sBYTWP0x9dQmZdZI7Vvy-27" edge="1">
          <mxGeometry width="50" height="50" relative="1" as="geometry">
            <mxPoint x="1005" y="320" as="sourcePoint" />
            <mxPoint x="1055" y="270" as="targetPoint" />
          </mxGeometry>
        </mxCell>
        <mxCell id="slEf7pB94JtYudOX0Uz1-98" value="" style="endArrow=classic;startArrow=classic;html=1;rounded=0;exitX=0;exitY=0.5;exitDx=0;exitDy=0;entryX=0.5;entryY=1;entryDx=0;entryDy=0;fontFamily=Lucida Console;" parent="f9wC7at-riD2UhF1JU6C-27" source="sBYTWP0x9dQmZdZI7Vvy-28" target="sBYTWP0x9dQmZdZI7Vvy-27" edge="1">
          <mxGeometry width="50" height="50" relative="1" as="geometry">
            <mxPoint x="980" y="445" as="sourcePoint" />
            <mxPoint x="980" y="330" as="targetPoint" />
          </mxGeometry>
        </mxCell>
        <mxCell id="slEf7pB94JtYudOX0Uz1-99" value="" style="endArrow=classic;startArrow=classic;html=1;rounded=0;exitX=0.5;exitY=0;exitDx=0;exitDy=0;entryX=0;entryY=0.5;entryDx=0;entryDy=0;fontFamily=Lucida Console;" parent="f9wC7at-riD2UhF1JU6C-27" source="sBYTWP0x9dQmZdZI7Vvy-29" target="sBYTWP0x9dQmZdZI7Vvy-28" edge="1">
          <mxGeometry width="50" height="50" relative="1" as="geometry">
            <mxPoint x="990" y="455" as="sourcePoint" />
            <mxPoint x="990" y="340" as="targetPoint" />
          </mxGeometry>
        </mxCell>
        <mxCell id="slEf7pB94JtYudOX0Uz1-101" value="" style="edgeStyle=orthogonalEdgeStyle;rounded=0;orthogonalLoop=1;jettySize=auto;html=1;fontFamily=Lucida Console;" parent="f9wC7at-riD2UhF1JU6C-27" source="slEf7pB94JtYudOX0Uz1-100" target="f9wC7at-riD2UhF1JU6C-1" edge="1">
          <mxGeometry relative="1" as="geometry" />
        </mxCell>
        <mxCell id="slEf7pB94JtYudOX0Uz1-100" value="Create project" style="ellipse;whiteSpace=wrap;html=1;fillColor=#e1d5e7;strokeColor=#9673a6;fontFamily=Lucida Console;" parent="f9wC7at-riD2UhF1JU6C-27" vertex="1">
          <mxGeometry x="134.75" y="60" width="117.5" height="50" as="geometry" />
        </mxCell>
        <mxCell id="slEf7pB94JtYudOX0Uz1-102" value="Delete" style="rounded=1;whiteSpace=wrap;html=1;labelBackgroundColor=none;fillColor=#f8cecc;strokeColor=#b85450;fontStyle=0;fontFamily=Lucida Console;" parent="f9wC7at-riD2UhF1JU6C-27" vertex="1">
          <mxGeometry x="40" y="450" width="120" height="30" as="geometry" />
        </mxCell>
        <mxCell id="slEf7pB94JtYudOX0Uz1-104" value="Set custom status" style="rounded=1;whiteSpace=wrap;html=1;fontStyle=0;fillColor=#ffe6cc;strokeColor=#d79b00;fontFamily=Lucida Console;" parent="f9wC7at-riD2UhF1JU6C-27" vertex="1">
          <mxGeometry x="265" y="340" width="120" height="30" as="geometry" />
        </mxCell>
        <mxCell id="jQ7xkkAWMIfSwHw_iZFZ-4" value="Log the event in project log" style="rounded=1;whiteSpace=wrap;html=1;fillColor=#d5e8d4;strokeColor=#82b366;fontStyle=0;fontFamily=Lucida Console;" parent="f9wC7at-riD2UhF1JU6C-27" vertex="1">
          <mxGeometry x="480" y="560" width="160" height="30" as="geometry" />
        </mxCell>
        <mxCell id="O9GQEm4PDpVP6gSOnxCw-1" value="" style="endArrow=classic;html=1;rounded=0;exitX=0.548;exitY=0.994;exitDx=0;exitDy=0;entryX=0.5;entryY=0;entryDx=0;entryDy=0;edgeStyle=orthogonalEdgeStyle;exitPerimeter=0;fontFamily=Lucida Console;" parent="f9wC7at-riD2UhF1JU6C-27" source="f9wC7at-riD2UhF1JU6C-1" target="slEf7pB94JtYudOX0Uz1-104" edge="1">
          <mxGeometry width="50" height="50" relative="1" as="geometry">
            <mxPoint x="260" y="300" as="sourcePoint" />
            <mxPoint x="310" y="250" as="targetPoint" />
            <Array as="points">
              <mxPoint x="199" y="270" />
              <mxPoint x="325" y="270" />
            </Array>
          </mxGeometry>
        </mxCell>
        <mxCell id="O9GQEm4PDpVP6gSOnxCw-2" value="" style="endArrow=classic;html=1;rounded=0;exitX=0;exitY=0.25;exitDx=0;exitDy=0;entryX=1;entryY=0.25;entryDx=0;entryDy=0;jumpStyle=arc;jumpSize=12;fontFamily=Lucida Console;" parent="f9wC7at-riD2UhF1JU6C-27" source="slEf7pB94JtYudOX0Uz1-104" target="f9wC7at-riD2UhF1JU6C-16" edge="1">
          <mxGeometry width="50" height="50" relative="1" as="geometry">
            <mxPoint x="220" y="380" as="sourcePoint" />
            <mxPoint x="270" y="330" as="targetPoint" />
          </mxGeometry>
        </mxCell>
        <mxCell id="O9GQEm4PDpVP6gSOnxCw-33" value="" style="endArrow=classic;html=1;rounded=0;exitX=1;exitY=0.75;exitDx=0;exitDy=0;entryX=0;entryY=0.75;entryDx=0;entryDy=0;fontFamily=Lucida Console;" parent="f9wC7at-riD2UhF1JU6C-27" source="f9wC7at-riD2UhF1JU6C-16" target="slEf7pB94JtYudOX0Uz1-104" edge="1">
          <mxGeometry width="50" height="50" relative="1" as="geometry">
            <mxPoint x="190" y="370" as="sourcePoint" />
            <mxPoint x="240" y="320" as="targetPoint" />
          </mxGeometry>
        </mxCell>
        <mxCell id="O9GQEm4PDpVP6gSOnxCw-32" value="" style="endArrow=classic;html=1;rounded=0;fillColor=#ffe6cc;strokeColor=#d79b00;exitX=1;exitY=0.5;exitDx=0;exitDy=0;entryX=0.5;entryY=0;entryDx=0;entryDy=0;edgeStyle=orthogonalEdgeStyle;fontFamily=Lucida Console;" parent="f9wC7at-riD2UhF1JU6C-27" source="slEf7pB94JtYudOX0Uz1-104" target="jQ7xkkAWMIfSwHw_iZFZ-4" edge="1">
          <mxGeometry width="50" height="50" relative="1" as="geometry">
            <mxPoint x="300" y="460" as="sourcePoint" />
            <mxPoint x="350" y="410" as="targetPoint" />
          </mxGeometry>
        </mxCell>
        <mxCell id="O9GQEm4PDpVP6gSOnxCw-34" value="" style="endArrow=classic;html=1;rounded=0;exitX=0.75;exitY=1;exitDx=0;exitDy=0;entryX=0.554;entryY=-0.009;entryDx=0;entryDy=0;edgeStyle=orthogonalEdgeStyle;entryPerimeter=0;fillColor=#ffe6cc;strokeColor=#d79b00;fontFamily=Lucida Console;" parent="f9wC7at-riD2UhF1JU6C-27" source="f9wC7at-riD2UhF1JU6C-1" target="jQ7xkkAWMIfSwHw_iZFZ-4" edge="1">
          <mxGeometry width="50" height="50" relative="1" as="geometry">
            <mxPoint x="370" y="350" as="sourcePoint" />
            <mxPoint x="420" y="300" as="targetPoint" />
            <Array as="points">
              <mxPoint x="224" y="260" />
              <mxPoint x="569" y="260" />
            </Array>
          </mxGeometry>
        </mxCell>
        <mxCell id="O9GQEm4PDpVP6gSOnxCw-35" value="" style="endArrow=classic;html=1;rounded=0;exitX=0.75;exitY=1;exitDx=0;exitDy=0;entryX=0.442;entryY=-0.008;entryDx=0;entryDy=0;entryPerimeter=0;edgeStyle=orthogonalEdgeStyle;fillColor=#ffe6cc;strokeColor=#d79b00;fontFamily=Lucida Console;" parent="f9wC7at-riD2UhF1JU6C-27" source="f9wC7at-riD2UhF1JU6C-16" target="jQ7xkkAWMIfSwHw_iZFZ-4" edge="1">
          <mxGeometry width="50" height="50" relative="1" as="geometry">
            <mxPoint x="330" y="450" as="sourcePoint" />
            <mxPoint x="380" y="400" as="targetPoint" />
            <Array as="points">
              <mxPoint x="130" y="390" />
              <mxPoint x="550" y="390" />
              <mxPoint x="550" y="560" />
            </Array>
          </mxGeometry>
        </mxCell>
        <mxCell id="O9GQEm4PDpVP6gSOnxCw-40" value="" style="edgeStyle=orthogonalEdgeStyle;rounded=0;orthogonalLoop=1;jettySize=auto;html=1;fillColor=#ffe6cc;strokeColor=#d79b00;fontFamily=Lucida Console;" parent="f9wC7at-riD2UhF1JU6C-27" source="O9GQEm4PDpVP6gSOnxCw-36" target="O9GQEm4PDpVP6gSOnxCw-39" edge="1">
          <mxGeometry relative="1" as="geometry" />
        </mxCell>
        <mxCell id="O9GQEm4PDpVP6gSOnxCw-36" value="Create project" style="rounded=1;whiteSpace=wrap;html=1;fillColor=#dae8fc;strokeColor=#6c8ebf;fontStyle=0;fontFamily=Lucida Console;" parent="f9wC7at-riD2UhF1JU6C-27" vertex="1">
          <mxGeometry x="320" y="180" width="120" height="30" as="geometry" />
        </mxCell>
        <mxCell id="O9GQEm4PDpVP6gSOnxCw-37" value="SQL" style="endArrow=classic;html=1;rounded=0;exitX=1;exitY=0.5;exitDx=0;exitDy=0;entryX=0;entryY=0.5;entryDx=0;entryDy=0;fillColor=#ffe6cc;strokeColor=#000000;fontFamily=Lucida Console;" parent="f9wC7at-riD2UhF1JU6C-27" source="f9wC7at-riD2UhF1JU6C-1" target="O9GQEm4PDpVP6gSOnxCw-36" edge="1">
          <mxGeometry width="50" height="50" relative="1" as="geometry">
            <mxPoint x="410" y="260" as="sourcePoint" />
            <mxPoint x="460" y="210" as="targetPoint" />
          </mxGeometry>
        </mxCell>
        <mxCell id="O9GQEm4PDpVP6gSOnxCw-39" value="Add creator to participant with role" style="rounded=1;whiteSpace=wrap;html=1;fillColor=#dae8fc;strokeColor=#6c8ebf;fontStyle=0;fontFamily=Lucida Console;" parent="f9wC7at-riD2UhF1JU6C-27" vertex="1">
          <mxGeometry x="520" y="170" width="120" height="50" as="geometry" />
        </mxCell>
        <mxCell id="O9GQEm4PDpVP6gSOnxCw-41" value="" style="endArrow=classic;html=1;rounded=0;exitX=0.5;exitY=1;exitDx=0;exitDy=0;entryX=0.617;entryY=0.007;entryDx=0;entryDy=0;entryPerimeter=0;fillColor=#ffe6cc;strokeColor=#d79b00;fontFamily=Lucida Console;" parent="f9wC7at-riD2UhF1JU6C-27" source="O9GQEm4PDpVP6gSOnxCw-39" target="jQ7xkkAWMIfSwHw_iZFZ-4" edge="1">
          <mxGeometry width="50" height="50" relative="1" as="geometry">
            <mxPoint x="440" y="340" as="sourcePoint" />
            <mxPoint x="490" y="290" as="targetPoint" />
          </mxGeometry>
        </mxCell>
        <mxCell id="O9GQEm4PDpVP6gSOnxCw-42" value="Log the event in project log" style="rounded=1;whiteSpace=wrap;html=1;fillColor=#d5e8d4;strokeColor=#82b366;fontStyle=0;fontFamily=Lucida Console;" parent="f9wC7at-riD2UhF1JU6C-27" vertex="1">
          <mxGeometry x="1075" y="550" width="160" height="30" as="geometry" />
        </mxCell>
        <mxCell id="O9GQEm4PDpVP6gSOnxCw-43" value="" style="endArrow=classic;html=1;rounded=0;exitX=0.5;exitY=1;exitDx=0;exitDy=0;entryX=0.5;entryY=0;entryDx=0;entryDy=0;edgeStyle=orthogonalEdgeStyle;fillColor=#ffe6cc;strokeColor=#d79b00;fontFamily=Lucida Console;" parent="f9wC7at-riD2UhF1JU6C-27" source="sBYTWP0x9dQmZdZI7Vvy-28" target="O9GQEm4PDpVP6gSOnxCw-42" edge="1">
          <mxGeometry width="50" height="50" relative="1" as="geometry">
            <mxPoint x="975" y="450" as="sourcePoint" />
            <mxPoint x="1025" y="400" as="targetPoint" />
            <Array as="points">
              <mxPoint x="1105" y="480" />
              <mxPoint x="1155" y="480" />
            </Array>
          </mxGeometry>
        </mxCell>
        <mxCell id="O9GQEm4PDpVP6gSOnxCw-44" value="" style="endArrow=classic;html=1;rounded=0;exitX=1;exitY=0.5;exitDx=0;exitDy=0;entryX=0.555;entryY=-0.033;entryDx=0;entryDy=0;edgeStyle=orthogonalEdgeStyle;entryPerimeter=0;fillColor=#ffe6cc;strokeColor=#d79b00;fontFamily=Lucida Console;" parent="f9wC7at-riD2UhF1JU6C-27" source="sBYTWP0x9dQmZdZI7Vvy-27" target="O9GQEm4PDpVP6gSOnxCw-42" edge="1">
          <mxGeometry width="50" height="50" relative="1" as="geometry">
            <mxPoint x="975" y="450" as="sourcePoint" />
            <mxPoint x="1025" y="400" as="targetPoint" />
            <Array as="points">
              <mxPoint x="1205" y="305" />
              <mxPoint x="1205" y="490" />
              <mxPoint x="1164" y="490" />
            </Array>
          </mxGeometry>
        </mxCell>
        <mxCell id="O9GQEm4PDpVP6gSOnxCw-47" value="" style="endArrow=classic;html=1;rounded=0;exitX=0.5;exitY=1;exitDx=0;exitDy=0;entryX=0.443;entryY=-0.007;entryDx=0;entryDy=0;entryPerimeter=0;edgeStyle=orthogonalEdgeStyle;fillColor=#ffe6cc;strokeColor=#d79b00;fontFamily=Lucida Console;" parent="f9wC7at-riD2UhF1JU6C-27" source="sBYTWP0x9dQmZdZI7Vvy-29" target="O9GQEm4PDpVP6gSOnxCw-42" edge="1">
          <mxGeometry width="50" height="50" relative="1" as="geometry">
            <mxPoint x="980" y="480" as="sourcePoint" />
            <mxPoint x="1030" y="430" as="targetPoint" />
          </mxGeometry>
        </mxCell>
        <mxCell id="O9GQEm4PDpVP6gSOnxCw-50" value="Log the event in project log" style="rounded=1;whiteSpace=wrap;html=1;fillColor=#d5e8d4;strokeColor=#82b366;fontStyle=0;fontFamily=Lucida Console;" parent="f9wC7at-riD2UhF1JU6C-27" vertex="1">
          <mxGeometry x="1210" y="190" width="160" height="30" as="geometry" />
        </mxCell>
        <mxCell id="O9GQEm4PDpVP6gSOnxCw-51" value="" style="endArrow=classic;html=1;rounded=0;exitX=0.75;exitY=1;exitDx=0;exitDy=0;entryX=0.5;entryY=0;entryDx=0;entryDy=0;edgeStyle=orthogonalEdgeStyle;fillColor=#ffe6cc;strokeColor=#d79b00;" parent="f9wC7at-riD2UhF1JU6C-27" source="f9wC7at-riD2UhF1JU6C-35" target="O9GQEm4PDpVP6gSOnxCw-50" edge="1">
          <mxGeometry width="50" height="50" relative="1" as="geometry">
            <mxPoint x="1020" y="220" as="sourcePoint" />
            <mxPoint x="1070" y="170" as="targetPoint" />
            <Array as="points">
              <mxPoint x="1290" y="110" />
            </Array>
          </mxGeometry>
        </mxCell>
        <mxCell id="O9GQEm4PDpVP6gSOnxCw-52" value="" style="endArrow=classic;html=1;rounded=0;exitX=0.391;exitY=0.992;exitDx=0;exitDy=0;entryX=0.443;entryY=-0.013;entryDx=0;entryDy=0;entryPerimeter=0;fillColor=#ffe6cc;strokeColor=#d79b00;edgeStyle=orthogonalEdgeStyle;exitPerimeter=0;" parent="f9wC7at-riD2UhF1JU6C-27" source="f9wC7at-riD2UhF1JU6C-34" target="O9GQEm4PDpVP6gSOnxCw-50" edge="1">
          <mxGeometry width="50" height="50" relative="1" as="geometry">
            <mxPoint x="1020" y="220" as="sourcePoint" />
            <mxPoint x="1070" y="170" as="targetPoint" />
            <Array as="points">
              <mxPoint x="1067" y="140" />
              <mxPoint x="1281" y="140" />
            </Array>
          </mxGeometry>
        </mxCell>
        <mxCell id="f9wC7at-riD2UhF1JU6C-29" value="" style="swimlane;startSize=0;fontStyle=0;fontFamily=Lucida Console;" parent="1" vertex="1">
          <mxGeometry x="1630" y="200" width="370" height="400" as="geometry" />
        </mxCell>
        <mxCell id="3oDULfL1zoYqWpKgLJHx-4" value="&lt;span&gt;Access control&lt;/span&gt;" style="text;html=1;strokeColor=none;fillColor=none;align=center;verticalAlign=middle;whiteSpace=wrap;rounded=0;fontStyle=1;fontFamily=Lucida Console;" parent="f9wC7at-riD2UhF1JU6C-29" vertex="1">
          <mxGeometry x="30" y="80" width="100" height="30" as="geometry" />
        </mxCell>
        <mxCell id="3oDULfL1zoYqWpKgLJHx-5" value="Free for all" style="rounded=1;whiteSpace=wrap;html=1;fontStyle=0;fillColor=#d5e8d4;strokeColor=#82b366;fontFamily=Lucida Console;" parent="f9wC7at-riD2UhF1JU6C-29" vertex="1">
          <mxGeometry x="20" y="130" width="120" height="30" as="geometry" />
        </mxCell>
        <mxCell id="3oDULfL1zoYqWpKgLJHx-6" value="Review only" style="rounded=1;whiteSpace=wrap;html=1;fontStyle=0;fillColor=#f8cecc;strokeColor=#b85450;fontFamily=Lucida Console;" parent="f9wC7at-riD2UhF1JU6C-29" vertex="1">
          <mxGeometry x="20" y="180" width="120" height="30" as="geometry" />
        </mxCell>
        <mxCell id="3oDULfL1zoYqWpKgLJHx-2" value="Profile" style="text;html=1;strokeColor=none;fillColor=none;align=center;verticalAlign=middle;whiteSpace=wrap;rounded=0;fontStyle=1;fontSize=16;fontFamily=Lucida Console;" parent="f9wC7at-riD2UhF1JU6C-29" vertex="1">
          <mxGeometry x="65" width="240" height="30" as="geometry" />
        </mxCell>
        <mxCell id="slEf7pB94JtYudOX0Uz1-70" value="Legend" style="swimlane;whiteSpace=wrap;html=1;fontFamily=Lucida Console;" parent="1" vertex="1">
          <mxGeometry x="130" y="980" width="560" height="200" as="geometry" />
        </mxCell>
        <mxCell id="slEf7pB94JtYudOX0Uz1-72" value="" style="endArrow=classic;html=1;rounded=0;fillColor=#ffe6cc;strokeColor=#d79b00;fontFamily=Lucida Console;" parent="slEf7pB94JtYudOX0Uz1-70" target="slEf7pB94JtYudOX0Uz1-73" edge="1">
          <mxGeometry width="50" height="50" relative="1" as="geometry">
            <mxPoint x="30" y="110" as="sourcePoint" />
            <mxPoint x="120" y="110" as="targetPoint" />
          </mxGeometry>
        </mxCell>
        <mxCell id="slEf7pB94JtYudOX0Uz1-73" value="Asynchronous transition. Presumably via MQ" style="text;html=1;strokeColor=none;fillColor=none;align=center;verticalAlign=middle;whiteSpace=wrap;rounded=0;fontFamily=Lucida Console;" parent="slEf7pB94JtYudOX0Uz1-70" vertex="1">
          <mxGeometry x="125" y="95" width="165" height="30" as="geometry" />
        </mxCell>
        <mxCell id="slEf7pB94JtYudOX0Uz1-74" value="" style="whiteSpace=wrap;html=1;rounded=1;fillColor=#f8cecc;strokeColor=#b85450;fontStyle=0;fontFamily=Lucida Console;" parent="slEf7pB94JtYudOX0Uz1-70" vertex="1">
          <mxGeometry x="20" y="140" width="120" height="30" as="geometry" />
        </mxCell>
        <mxCell id="slEf7pB94JtYudOX0Uz1-76" value="Terminate action" style="text;html=1;strokeColor=none;fillColor=none;align=center;verticalAlign=middle;whiteSpace=wrap;rounded=0;fontFamily=Lucida Console;" parent="slEf7pB94JtYudOX0Uz1-70" vertex="1">
          <mxGeometry x="150" y="140" width="110" height="30" as="geometry" />
        </mxCell>
        <mxCell id="slEf7pB94JtYudOX0Uz1-77" value="Simple transition" style="text;html=1;strokeColor=none;fillColor=none;align=center;verticalAlign=middle;whiteSpace=wrap;rounded=0;fontFamily=Lucida Console;" parent="slEf7pB94JtYudOX0Uz1-70" vertex="1">
          <mxGeometry x="125" y="45" width="140" height="30" as="geometry" />
        </mxCell>
        <mxCell id="slEf7pB94JtYudOX0Uz1-78" value="" style="rounded=1;whiteSpace=wrap;html=1;fillColor=#dae8fc;strokeColor=#6c8ebf;fontStyle=0;fontFamily=Lucida Console;" parent="slEf7pB94JtYudOX0Uz1-70" vertex="1">
          <mxGeometry x="307.5" y="45" width="120" height="30" as="geometry" />
        </mxCell>
        <mxCell id="slEf7pB94JtYudOX0Uz1-71" value="" style="endArrow=classic;html=1;rounded=0;fontFamily=Lucida Console;" parent="slEf7pB94JtYudOX0Uz1-70" edge="1">
          <mxGeometry width="50" height="50" relative="1" as="geometry">
            <mxPoint x="30" y="59.67000000000011" as="sourcePoint" />
            <mxPoint x="125" y="59.67000000000011" as="targetPoint" />
          </mxGeometry>
        </mxCell>
        <mxCell id="slEf7pB94JtYudOX0Uz1-85" value="Intermediate action" style="text;html=1;strokeColor=none;fillColor=none;align=center;verticalAlign=middle;whiteSpace=wrap;rounded=0;fontFamily=Lucida Console;" parent="slEf7pB94JtYudOX0Uz1-70" vertex="1">
          <mxGeometry x="430" y="45" width="130" height="30" as="geometry" />
        </mxCell>
        <mxCell id="1gzCgmYTFRQFRFi3d6hF-21" value="" style="rounded=1;whiteSpace=wrap;html=1;fillColor=#d5e8d4;strokeColor=#82b366;fontStyle=0;fontFamily=Lucida Console;" parent="slEf7pB94JtYudOX0Uz1-70" vertex="1">
          <mxGeometry x="307.5" y="95" width="120" height="30" as="geometry" />
        </mxCell>
        <mxCell id="1gzCgmYTFRQFRFi3d6hF-22" value="Minor, async action" style="text;html=1;strokeColor=none;fillColor=none;align=center;verticalAlign=middle;whiteSpace=wrap;rounded=0;fontFamily=Lucida Console;" parent="slEf7pB94JtYudOX0Uz1-70" vertex="1">
          <mxGeometry x="430" y="95" width="130" height="30" as="geometry" />
        </mxCell>
        <mxCell id="1gzCgmYTFRQFRFi3d6hF-23" value="" style="ellipse;whiteSpace=wrap;html=1;fillColor=#e1d5e7;strokeColor=#9673a6;fontFamily=Lucida Console;" parent="slEf7pB94JtYudOX0Uz1-70" vertex="1">
          <mxGeometry x="308.75" y="140" width="117.5" height="50" as="geometry" />
        </mxCell>
        <mxCell id="1gzCgmYTFRQFRFi3d6hF-25" value="Initial event" style="text;html=1;strokeColor=none;fillColor=none;align=center;verticalAlign=middle;whiteSpace=wrap;rounded=0;fontFamily=Lucida Console;" parent="slEf7pB94JtYudOX0Uz1-70" vertex="1">
          <mxGeometry x="430" y="150" width="130" height="30" as="geometry" />
        </mxCell>
      </root>
    </mxGraphModel>
  </diagram>
  <diagram id="feqJdwBkKnx8GYfohc5w" name="Role permissions">
    <mxGraphModel dx="1418" dy="828" grid="1" gridSize="10" guides="1" tooltips="1" connect="1" arrows="1" fold="1" page="1" pageScale="1" pageWidth="900" pageHeight="1600" math="0" shadow="0">
      <root>
        <mxCell id="0" />
        <mxCell id="1" parent="0" />
        <mxCell id="0Q9ExDd1znIj0gaFJgWu-4" value="" style="group;fillColor=#f5f5f5;fontColor=#333333;strokeColor=#666666;" parent="1" vertex="1" connectable="0">
          <mxGeometry x="60" y="70" width="60" height="90" as="geometry" />
        </mxCell>
        <mxCell id="0Q9ExDd1znIj0gaFJgWu-2" value="" style="shape=actor;whiteSpace=wrap;html=1;" parent="0Q9ExDd1znIj0gaFJgWu-4" vertex="1">
          <mxGeometry x="10" width="40" height="60" as="geometry" />
        </mxCell>
        <mxCell id="0Q9ExDd1znIj0gaFJgWu-3" value="Guest" style="text;html=1;strokeColor=none;fillColor=none;align=center;verticalAlign=middle;whiteSpace=wrap;rounded=0;" parent="0Q9ExDd1znIj0gaFJgWu-4" vertex="1">
          <mxGeometry y="60" width="60" height="30" as="geometry" />
        </mxCell>
        <mxCell id="0Q9ExDd1znIj0gaFJgWu-5" value="" style="group;fillColor=#f5f5f5;fontColor=#333333;strokeColor=#666666;" parent="1" vertex="1" connectable="0">
          <mxGeometry x="430" y="70" width="60" height="110" as="geometry" />
        </mxCell>
        <mxCell id="0Q9ExDd1znIj0gaFJgWu-6" value="" style="shape=actor;whiteSpace=wrap;html=1;fillColor=#ffe6cc;strokeColor=#d79b00;" parent="0Q9ExDd1znIj0gaFJgWu-5" vertex="1">
          <mxGeometry x="10" width="40" height="60" as="geometry" />
        </mxCell>
        <mxCell id="0Q9ExDd1znIj0gaFJgWu-7" value="Member of project team" style="text;html=1;strokeColor=none;fillColor=none;align=center;verticalAlign=middle;whiteSpace=wrap;rounded=0;" parent="0Q9ExDd1znIj0gaFJgWu-5" vertex="1">
          <mxGeometry y="60" width="60" height="50" as="geometry" />
        </mxCell>
        <mxCell id="0Q9ExDd1znIj0gaFJgWu-8" value="" style="group;fillColor=#f5f5f5;fontColor=#333333;strokeColor=#666666;" parent="1" vertex="1" connectable="0">
          <mxGeometry x="610" y="70" width="60" height="110" as="geometry" />
        </mxCell>
        <mxCell id="0Q9ExDd1znIj0gaFJgWu-9" value="" style="shape=actor;whiteSpace=wrap;html=1;fillColor=#f8cecc;strokeColor=#b85450;" parent="0Q9ExDd1znIj0gaFJgWu-8" vertex="1">
          <mxGeometry x="10" width="40" height="60" as="geometry" />
        </mxCell>
        <mxCell id="0Q9ExDd1znIj0gaFJgWu-10" value="Project manager" style="text;html=1;strokeColor=none;fillColor=none;align=center;verticalAlign=middle;whiteSpace=wrap;rounded=0;" parent="0Q9ExDd1znIj0gaFJgWu-8" vertex="1">
          <mxGeometry y="60" width="60" height="50" as="geometry" />
        </mxCell>
        <mxCell id="0Q9ExDd1znIj0gaFJgWu-12" value="List and search projects" style="rounded=1;whiteSpace=wrap;html=1;fillColor=#cce5ff;strokeColor=#36393d;fontStyle=1;spacingLeft=0;spacingBottom=0;spacing=4;" parent="1" vertex="1">
          <mxGeometry x="30" y="200" width="120" height="60" as="geometry" />
        </mxCell>
        <mxCell id="0Q9ExDd1znIj0gaFJgWu-13" value="Sign in" style="rounded=1;whiteSpace=wrap;html=1;fillColor=#fff2cc;strokeColor=#d6b656;fontStyle=1" parent="1" vertex="1">
          <mxGeometry x="30" y="340" width="120" height="60" as="geometry" />
        </mxCell>
        <mxCell id="0Q9ExDd1znIj0gaFJgWu-14" value="Sign up" style="rounded=1;whiteSpace=wrap;html=1;fillColor=#fff2cc;strokeColor=#d6b656;fontStyle=1" parent="1" vertex="1">
          <mxGeometry x="30" y="410" width="120" height="60" as="geometry" />
        </mxCell>
        <mxCell id="CMWY3DKB_ORUD5jtvZPZ-3" value="" style="edgeStyle=orthogonalEdgeStyle;rounded=0;orthogonalLoop=1;jettySize=auto;html=1;entryX=0.9;entryY=0.5;entryDx=0;entryDy=0;entryPerimeter=0;" parent="1" source="FFl60IX-V8fLAbpVUtSc-1" target="0Q9ExDd1znIj0gaFJgWu-2" edge="1">
          <mxGeometry relative="1" as="geometry">
            <mxPoint x="180" y="100" as="targetPoint" />
          </mxGeometry>
        </mxCell>
        <mxCell id="CMWY3DKB_ORUD5jtvZPZ-5" value="&lt;b&gt;&amp;lt;&amp;lt;extends&amp;gt;&amp;gt;&lt;/b&gt;" style="edgeLabel;html=1;align=center;verticalAlign=middle;resizable=0;points=[];" parent="CMWY3DKB_ORUD5jtvZPZ-3" vertex="1" connectable="0">
          <mxGeometry x="-0.0026" y="1" relative="1" as="geometry">
            <mxPoint as="offset" />
          </mxGeometry>
        </mxCell>
        <mxCell id="FFl60IX-V8fLAbpVUtSc-2" value="" style="edgeStyle=orthogonalEdgeStyle;rounded=0;orthogonalLoop=1;jettySize=auto;html=1;" parent="1" source="0Q9ExDd1znIj0gaFJgWu-6" target="FFl60IX-V8fLAbpVUtSc-1" edge="1">
          <mxGeometry relative="1" as="geometry" />
        </mxCell>
        <mxCell id="FFl60IX-V8fLAbpVUtSc-3" value="&lt;b&gt;&amp;lt;&amp;lt;extends&amp;gt;&amp;gt;&lt;/b&gt;" style="edgeLabel;html=1;align=center;verticalAlign=middle;resizable=0;points=[];" parent="FFl60IX-V8fLAbpVUtSc-2" vertex="1" connectable="0">
          <mxGeometry x="-0.2015" y="-1" relative="1" as="geometry">
            <mxPoint x="-14" as="offset" />
          </mxGeometry>
        </mxCell>
        <mxCell id="CMWY3DKB_ORUD5jtvZPZ-1" value="View non-private user accounts" style="rounded=1;whiteSpace=wrap;html=1;fillColor=#cce5ff;strokeColor=#36393d;fontStyle=1" parent="1" vertex="1">
          <mxGeometry x="220" y="200" width="120" height="60" as="geometry" />
        </mxCell>
        <mxCell id="HxIY3uX1c_nm-HFygCqf-1" value="View team members accounts" style="rounded=1;whiteSpace=wrap;html=1;fillColor=#cce5ff;strokeColor=#36393d;fontStyle=1;spacing=4;" parent="1" vertex="1">
          <mxGeometry x="400" y="200" width="120" height="60" as="geometry" />
        </mxCell>
        <mxCell id="HxIY3uX1c_nm-HFygCqf-2" value="View applicant&#39;s account" style="rounded=1;whiteSpace=wrap;html=1;fillColor=#cce5ff;strokeColor=#36393d;fontStyle=1" parent="1" vertex="1">
          <mxGeometry x="400" y="270" width="120" height="60" as="geometry" />
        </mxCell>
        <mxCell id="JFG2s2A618l-5H5Y_ips-2" value="View about, etc." style="rounded=1;whiteSpace=wrap;html=1;fillColor=#cce5ff;strokeColor=#36393d;fontStyle=1;spacingLeft=0;spacingBottom=0;spacing=4;" parent="1" vertex="1">
          <mxGeometry x="30" y="270" width="120" height="60" as="geometry" />
        </mxCell>
        <mxCell id="__5w6sfBBtC5-cJdF2gN-2" value="" style="group;fillColor=#f5f5f5;fontColor=#333333;strokeColor=#666666;" parent="1" vertex="1" connectable="0">
          <mxGeometry x="250" y="70" width="60" height="90" as="geometry" />
        </mxCell>
        <mxCell id="FFl60IX-V8fLAbpVUtSc-1" value="" style="shape=actor;whiteSpace=wrap;html=1;fillColor=#d5e8d4;strokeColor=#82b366;" parent="__5w6sfBBtC5-cJdF2gN-2" vertex="1">
          <mxGeometry x="10" width="40" height="60" as="geometry" />
        </mxCell>
        <mxCell id="__5w6sfBBtC5-cJdF2gN-1" value="User" style="text;html=1;strokeColor=none;fillColor=none;align=center;verticalAlign=middle;whiteSpace=wrap;rounded=0;" parent="__5w6sfBBtC5-cJdF2gN-2" vertex="1">
          <mxGeometry y="60" width="60" height="30" as="geometry" />
        </mxCell>
        <mxCell id="__5w6sfBBtC5-cJdF2gN-3" value="Apply for project participation" style="rounded=1;whiteSpace=wrap;html=1;fillColor=#cce5ff;strokeColor=#36393d;fontStyle=1" parent="1" vertex="1">
          <mxGeometry x="220" y="270" width="120" height="60" as="geometry" />
        </mxCell>
        <mxCell id="__5w6sfBBtC5-cJdF2gN-5" value="" style="swimlane;startSize=0;" parent="1" vertex="1">
          <mxGeometry x="730" y="170" width="180" height="200" as="geometry" />
        </mxCell>
        <mxCell id="__5w6sfBBtC5-cJdF2gN-4" value="Unique for role" style="rounded=1;whiteSpace=wrap;html=1;fillColor=#fff2cc;strokeColor=#d6b656;fontStyle=1" parent="__5w6sfBBtC5-cJdF2gN-5" vertex="1">
          <mxGeometry x="30" y="30" width="120" height="60" as="geometry" />
        </mxCell>
        <mxCell id="__5w6sfBBtC5-cJdF2gN-10" value="Inheritable" style="rounded=1;whiteSpace=wrap;html=1;fillColor=#cce5ff;strokeColor=#36393d;fontStyle=1" parent="__5w6sfBBtC5-cJdF2gN-5" vertex="1">
          <mxGeometry x="30" y="105" width="120" height="60" as="geometry" />
        </mxCell>
        <mxCell id="__5w6sfBBtC5-cJdF2gN-6" value="Approve applicant&#39;s request" style="rounded=1;whiteSpace=wrap;html=1;fillColor=#dae8fc;strokeColor=#6c8ebf;fontStyle=1;spacing=4;" parent="1" vertex="1">
          <mxGeometry x="580" y="200" width="120" height="60" as="geometry" />
        </mxCell>
        <mxCell id="__5w6sfBBtC5-cJdF2gN-8" value="" style="edgeStyle=orthogonalEdgeStyle;rounded=0;orthogonalLoop=1;jettySize=auto;html=1;" parent="1" source="0Q9ExDd1znIj0gaFJgWu-9" edge="1">
          <mxGeometry relative="1" as="geometry">
            <mxPoint x="480" y="100" as="targetPoint" />
          </mxGeometry>
        </mxCell>
        <mxCell id="__5w6sfBBtC5-cJdF2gN-9" value="&lt;b style=&quot;border-color: var(--border-color);&quot;&gt;&amp;lt;&amp;lt;extends&amp;gt;&amp;gt;&lt;/b&gt;" style="edgeLabel;html=1;align=center;verticalAlign=middle;resizable=0;points=[];" parent="__5w6sfBBtC5-cJdF2gN-8" vertex="1" connectable="0">
          <mxGeometry x="-0.2056" y="3" relative="1" as="geometry">
            <mxPoint as="offset" />
          </mxGeometry>
        </mxCell>
        <mxCell id="FKzmJ-0tOjk_7syssW3B-1" value="Change state of project" style="rounded=1;whiteSpace=wrap;html=1;fillColor=#dae8fc;strokeColor=#6c8ebf;fontStyle=1;spacing=4;" parent="1" vertex="1">
          <mxGeometry x="580" y="270" width="120" height="60" as="geometry" />
        </mxCell>
        <mxCell id="FKzmJ-0tOjk_7syssW3B-2" value="Post latest news in the chat or the project log" style="rounded=1;whiteSpace=wrap;html=1;fillColor=#cce5ff;strokeColor=#36393d;fontStyle=1" parent="1" vertex="1">
          <mxGeometry x="400" y="340" width="120" height="60" as="geometry" />
        </mxCell>
        <mxCell id="cJdHPrRwaTDf7KUoYTLj-1" value="Kick member from project" style="rounded=1;whiteSpace=wrap;html=1;fillColor=#dae8fc;strokeColor=#6c8ebf;fontStyle=1;spacing=4;" parent="1" vertex="1">
          <mxGeometry x="580" y="340" width="120" height="60" as="geometry" />
        </mxCell>
        <mxCell id="cJdHPrRwaTDf7KUoYTLj-3" value="Publish employment request" style="rounded=1;whiteSpace=wrap;html=1;fillColor=#dae8fc;strokeColor=#6c8ebf;fontStyle=1;spacing=4;" parent="1" vertex="1">
          <mxGeometry x="580" y="410" width="120" height="60" as="geometry" />
        </mxCell>
        <mxCell id="O8LiHnkIWu-gxY_pakbp-1" value="Edit profile" style="rounded=1;whiteSpace=wrap;html=1;fillColor=#cce5ff;strokeColor=#36393d;fontStyle=1" parent="1" vertex="1">
          <mxGeometry x="220" y="340" width="120" height="60" as="geometry" />
        </mxCell>
      </root>
    </mxGraphModel>
  </diagram>
  <diagram id="Yx5yJvd6z23yyOCPuT9G" name="Indexing for search">
    <mxGraphModel dx="1418" dy="828" grid="1" gridSize="10" guides="1" tooltips="1" connect="1" arrows="1" fold="1" page="1" pageScale="1" pageWidth="850" pageHeight="1100" math="0" shadow="0">
      <root>
        <mxCell id="0" />
        <mxCell id="1" parent="0" />
        <mxCell id="RBcPtJj35-M5W1LEwYUv-4" value="" style="edgeStyle=orthogonalEdgeStyle;rounded=0;orthogonalLoop=1;jettySize=auto;html=1;" parent="1" source="RBcPtJj35-M5W1LEwYUv-1" target="RBcPtJj35-M5W1LEwYUv-3" edge="1">
          <mxGeometry relative="1" as="geometry" />
        </mxCell>
        <mxCell id="RBcPtJj35-M5W1LEwYUv-1" value="" style="shape=cylinder3;whiteSpace=wrap;html=1;boundedLbl=1;backgroundOutline=1;size=15;" parent="1" vertex="1">
          <mxGeometry x="365" y="250" width="60" height="80" as="geometry" />
        </mxCell>
        <mxCell id="RBcPtJj35-M5W1LEwYUv-5" value="" style="edgeStyle=orthogonalEdgeStyle;rounded=0;orthogonalLoop=1;jettySize=auto;html=1;" parent="1" source="RBcPtJj35-M5W1LEwYUv-2" target="RBcPtJj35-M5W1LEwYUv-1" edge="1">
          <mxGeometry relative="1" as="geometry" />
        </mxCell>
        <mxCell id="RBcPtJj35-M5W1LEwYUv-2" value="Application" style="rounded=1;whiteSpace=wrap;html=1;" parent="1" vertex="1">
          <mxGeometry x="150" y="260" width="120" height="60" as="geometry" />
        </mxCell>
        <mxCell id="RBcPtJj35-M5W1LEwYUv-7" value="" style="rounded=0;orthogonalLoop=1;jettySize=auto;html=1;" parent="1" source="RBcPtJj35-M5W1LEwYUv-3" target="RBcPtJj35-M5W1LEwYUv-6" edge="1">
          <mxGeometry relative="1" as="geometry" />
        </mxCell>
        <mxCell id="RBcPtJj35-M5W1LEwYUv-3" value="Lostash" style="shape=parallelogram;perimeter=parallelogramPerimeter;whiteSpace=wrap;html=1;fixedSize=1;" parent="1" vertex="1">
          <mxGeometry x="530" y="260" width="120" height="60" as="geometry" />
        </mxCell>
        <mxCell id="RBcPtJj35-M5W1LEwYUv-6" value="Elasticsearch" style="shape=trapezoid;perimeter=trapezoidPerimeter;whiteSpace=wrap;html=1;fixedSize=1;" parent="1" vertex="1">
          <mxGeometry x="530" y="100" width="120" height="60" as="geometry" />
        </mxCell>
        <mxCell id="RBcPtJj35-M5W1LEwYUv-8" value="" style="endArrow=classic;html=1;rounded=0;entryX=0;entryY=0.5;entryDx=0;entryDy=0;exitX=0.5;exitY=0;exitDx=0;exitDy=0;edgeStyle=orthogonalEdgeStyle;" parent="1" source="RBcPtJj35-M5W1LEwYUv-2" target="RBcPtJj35-M5W1LEwYUv-6" edge="1">
          <mxGeometry width="50" height="50" relative="1" as="geometry">
            <mxPoint x="460" y="300" as="sourcePoint" />
            <mxPoint x="510" y="250" as="targetPoint" />
            <Array as="points">
              <mxPoint x="210" y="130" />
            </Array>
          </mxGeometry>
        </mxCell>
        <mxCell id="RBcPtJj35-M5W1LEwYUv-11" value="Write ops" style="text;html=1;strokeColor=none;fillColor=none;align=center;verticalAlign=middle;whiteSpace=wrap;rounded=0;" parent="1" vertex="1">
          <mxGeometry x="280" y="340" width="60" height="30" as="geometry" />
        </mxCell>
        <mxCell id="RBcPtJj35-M5W1LEwYUv-12" value="Using jdbc driver checks for new records in tables" style="text;html=1;strokeColor=none;fillColor=none;align=center;verticalAlign=middle;whiteSpace=wrap;rounded=0;" parent="1" vertex="1">
          <mxGeometry x="450" y="380" width="130" height="60" as="geometry" />
        </mxCell>
        <mxCell id="RBcPtJj35-M5W1LEwYUv-13" value="" style="endArrow=none;dashed=1;html=1;dashPattern=1 3;strokeWidth=2;rounded=0;exitX=0.5;exitY=0;exitDx=0;exitDy=0;" parent="1" source="RBcPtJj35-M5W1LEwYUv-12" edge="1">
          <mxGeometry width="50" height="50" relative="1" as="geometry">
            <mxPoint x="400" y="320" as="sourcePoint" />
            <mxPoint x="480" y="290" as="targetPoint" />
          </mxGeometry>
        </mxCell>
        <mxCell id="RBcPtJj35-M5W1LEwYUv-14" value="" style="endArrow=none;dashed=1;html=1;dashPattern=1 3;strokeWidth=2;rounded=0;" parent="1" target="RBcPtJj35-M5W1LEwYUv-16" edge="1">
          <mxGeometry width="50" height="50" relative="1" as="geometry">
            <mxPoint x="590" y="210" as="sourcePoint" />
            <mxPoint x="760" y="250" as="targetPoint" />
          </mxGeometry>
        </mxCell>
        <mxCell id="RBcPtJj35-M5W1LEwYUv-16" value="Puts processed data in indexes" style="text;html=1;strokeColor=none;fillColor=none;align=center;verticalAlign=middle;whiteSpace=wrap;rounded=0;" parent="1" vertex="1">
          <mxGeometry x="730" y="235" width="160" height="30" as="geometry" />
        </mxCell>
        <mxCell id="RBcPtJj35-M5W1LEwYUv-17" value="" style="endArrow=none;dashed=1;html=1;dashPattern=1 3;strokeWidth=2;rounded=0;entryX=0.5;entryY=0;entryDx=0;entryDy=0;" parent="1" target="RBcPtJj35-M5W1LEwYUv-11" edge="1">
          <mxGeometry width="50" height="50" relative="1" as="geometry">
            <mxPoint x="320" y="290" as="sourcePoint" />
            <mxPoint x="470" y="220" as="targetPoint" />
          </mxGeometry>
        </mxCell>
        <mxCell id="RBcPtJj35-M5W1LEwYUv-18" value="" style="endArrow=none;dashed=1;html=1;dashPattern=1 3;strokeWidth=2;rounded=0;" parent="1" target="RBcPtJj35-M5W1LEwYUv-19" edge="1">
          <mxGeometry width="50" height="50" relative="1" as="geometry">
            <mxPoint x="320" y="130" as="sourcePoint" />
            <mxPoint x="380" y="70" as="targetPoint" />
          </mxGeometry>
        </mxCell>
        <mxCell id="RBcPtJj35-M5W1LEwYUv-19" value="Fast search using elasticsearch" style="text;html=1;strokeColor=none;fillColor=none;align=center;verticalAlign=middle;whiteSpace=wrap;rounded=0;" parent="1" vertex="1">
          <mxGeometry x="350" y="55" width="140" height="30" as="geometry" />
        </mxCell>
      </root>
    </mxGraphModel>
  </diagram>
  <diagram id="qPmtfm_QRfu5nl-yiWLu" name="Microservices">
    <mxGraphModel dx="2426" dy="2020" grid="1" gridSize="10" guides="1" tooltips="1" connect="1" arrows="1" fold="1" page="1" pageScale="1" pageWidth="850" pageHeight="1100" math="0" shadow="0">
      <root>
        <mxCell id="0" />
        <mxCell id="1" parent="0" />
        <mxCell id="EFgW5jW_aL9SyOM_Q5C--1" value="" style="edgeStyle=orthogonalEdgeStyle;rounded=0;orthogonalLoop=1;jettySize=auto;html=1;fontFamily=Lucida Console;" parent="1" source="EFgW5jW_aL9SyOM_Q5C--3" target="EFgW5jW_aL9SyOM_Q5C--4" edge="1">
          <mxGeometry relative="1" as="geometry" />
        </mxCell>
        <mxCell id="EFgW5jW_aL9SyOM_Q5C--2" value="" style="edgeStyle=orthogonalEdgeStyle;rounded=0;orthogonalLoop=1;jettySize=auto;html=1;fontFamily=Lucida Console;" parent="1" source="EFgW5jW_aL9SyOM_Q5C--3" target="EFgW5jW_aL9SyOM_Q5C--6" edge="1">
          <mxGeometry relative="1" as="geometry" />
        </mxCell>
        <mxCell id="EFgW5jW_aL9SyOM_Q5C--3" value="nginx" style="rounded=0;whiteSpace=wrap;html=1;fillColor=#fff2cc;strokeColor=#d6b656;fontFamily=Lucida Console;" parent="1" vertex="1">
          <mxGeometry x="110" y="340" width="120" height="60" as="geometry" />
        </mxCell>
        <mxCell id="EFgW5jW_aL9SyOM_Q5C--4" value="Frontend" style="rounded=1;whiteSpace=wrap;html=1;fontFamily=Lucida Console;fillColor=#dae8fc;strokeColor=#6c8ebf;" parent="1" vertex="1">
          <mxGeometry x="95" y="530" width="150" height="100" as="geometry" />
        </mxCell>
        <mxCell id="EFgW5jW_aL9SyOM_Q5C--5" value="" style="edgeStyle=orthogonalEdgeStyle;rounded=0;orthogonalLoop=1;jettySize=auto;html=1;fontFamily=Lucida Console;" parent="1" source="EFgW5jW_aL9SyOM_Q5C--6" target="EFgW5jW_aL9SyOM_Q5C--9" edge="1">
          <mxGeometry relative="1" as="geometry" />
        </mxCell>
        <mxCell id="EFgW5jW_aL9SyOM_Q5C--6" value="API gateway" style="rounded=1;whiteSpace=wrap;html=1;fillColor=#dae8fc;strokeColor=#6c8ebf;fontFamily=Lucida Console;" parent="1" vertex="1">
          <mxGeometry x="430" y="320" width="120" height="100" as="geometry" />
        </mxCell>
        <mxCell id="EFgW5jW_aL9SyOM_Q5C--7" value="Authorization server" style="rounded=0;whiteSpace=wrap;html=1;fillColor=#fff2cc;strokeColor=#d6b656;fontFamily=Lucida Console;" parent="1" vertex="1">
          <mxGeometry x="590" y="840" width="120" height="100" as="geometry" />
        </mxCell>
        <mxCell id="EFgW5jW_aL9SyOM_Q5C--8" value="" style="edgeStyle=orthogonalEdgeStyle;rounded=0;orthogonalLoop=1;jettySize=auto;html=1;fontFamily=Lucida Console;" parent="1" source="EFgW5jW_aL9SyOM_Q5C--20" target="EFgW5jW_aL9SyOM_Q5C--17" edge="1">
          <mxGeometry relative="1" as="geometry" />
        </mxCell>
        <mxCell id="EFgW5jW_aL9SyOM_Q5C--9" value="Project Management" style="rounded=1;whiteSpace=wrap;html=1;fillColor=#dae8fc;strokeColor=#6c8ebf;fontFamily=Lucida Console;" parent="1" vertex="1">
          <mxGeometry x="950" y="340" width="120" height="60" as="geometry" />
        </mxCell>
        <mxCell id="EFgW5jW_aL9SyOM_Q5C--10" value="" style="edgeStyle=orthogonalEdgeStyle;rounded=0;orthogonalLoop=1;jettySize=auto;html=1;fontFamily=Lucida Console;" parent="1" source="EFgW5jW_aL9SyOM_Q5C--11" target="EFgW5jW_aL9SyOM_Q5C--3" edge="1">
          <mxGeometry relative="1" as="geometry" />
        </mxCell>
        <mxCell id="EFgW5jW_aL9SyOM_Q5C--11" value="Actor" style="shape=umlActor;verticalLabelPosition=bottom;verticalAlign=top;html=1;outlineConnect=0;fontFamily=Lucida Console;" parent="1" vertex="1">
          <mxGeometry x="-20" y="340" width="30" height="60" as="geometry" />
        </mxCell>
        <mxCell id="EFgW5jW_aL9SyOM_Q5C--14" value="" style="edgeStyle=orthogonalEdgeStyle;rounded=0;orthogonalLoop=1;jettySize=auto;html=1;fontFamily=Lucida Console;" parent="1" source="EFgW5jW_aL9SyOM_Q5C--15" target="EFgW5jW_aL9SyOM_Q5C--16" edge="1">
          <mxGeometry relative="1" as="geometry" />
        </mxCell>
        <mxCell id="EFgW5jW_aL9SyOM_Q5C--15" value="Search" style="rounded=1;whiteSpace=wrap;html=1;fillColor=#dae8fc;strokeColor=#6c8ebf;fontFamily=Lucida Console;" parent="1" vertex="1">
          <mxGeometry x="950" y="620" width="120" height="60" as="geometry" />
        </mxCell>
        <mxCell id="EFgW5jW_aL9SyOM_Q5C--16" value="Elasticsearch" style="shape=trapezoid;perimeter=trapezoidPerimeter;whiteSpace=wrap;html=1;fixedSize=1;fillColor=#fff2cc;strokeColor=#d6b656;fontFamily=Lucida Console;" parent="1" vertex="1">
          <mxGeometry x="950" y="860" width="120" height="60" as="geometry" />
        </mxCell>
        <mxCell id="EFgW5jW_aL9SyOM_Q5C--17" value="Logstash" style="rounded=0;whiteSpace=wrap;html=1;fillColor=#fff2cc;strokeColor=#d6b656;fontFamily=Lucida Console;" parent="1" vertex="1">
          <mxGeometry x="1260" y="840" width="120" height="60" as="geometry" />
        </mxCell>
        <mxCell id="EFgW5jW_aL9SyOM_Q5C--18" value="" style="endArrow=classic;html=1;rounded=0;exitX=0.5;exitY=1;exitDx=0;exitDy=0;entryX=0.5;entryY=1;entryDx=0;entryDy=0;edgeStyle=orthogonalEdgeStyle;fontFamily=Lucida Console;" parent="1" source="EFgW5jW_aL9SyOM_Q5C--17" target="EFgW5jW_aL9SyOM_Q5C--16" edge="1">
          <mxGeometry width="50" height="50" relative="1" as="geometry">
            <mxPoint x="970" y="810" as="sourcePoint" />
            <mxPoint x="1020" y="760" as="targetPoint" />
            <Array as="points">
              <mxPoint x="1320" y="990" />
              <mxPoint x="1010" y="990" />
            </Array>
          </mxGeometry>
        </mxCell>
        <mxCell id="EFgW5jW_aL9SyOM_Q5C--19" value="" style="edgeStyle=orthogonalEdgeStyle;rounded=0;orthogonalLoop=1;jettySize=auto;html=1;fontFamily=Lucida Console;" parent="1" edge="1">
          <mxGeometry relative="1" as="geometry">
            <mxPoint x="1070" y="390" as="sourcePoint" />
            <mxPoint x="1320" y="660" as="targetPoint" />
            <Array as="points">
              <mxPoint x="1320" y="390" />
            </Array>
          </mxGeometry>
        </mxCell>
        <mxCell id="EFgW5jW_aL9SyOM_Q5C--20" value="postgresql" style="shape=cylinder3;whiteSpace=wrap;html=1;boundedLbl=1;backgroundOutline=1;size=15;fillColor=#fff2cc;strokeColor=#d6b656;fontFamily=Lucida Console;" parent="1" vertex="1">
          <mxGeometry x="1270" y="630" width="100" height="80" as="geometry" />
        </mxCell>
        <mxCell id="EFgW5jW_aL9SyOM_Q5C--21" value="Project membership" style="rounded=1;whiteSpace=wrap;html=1;fillColor=#dae8fc;strokeColor=#6c8ebf;fontFamily=Lucida Console;" parent="1" vertex="1">
          <mxGeometry x="950" y="100" width="120" height="60" as="geometry" />
        </mxCell>
        <mxCell id="EFgW5jW_aL9SyOM_Q5C--22" value="" style="endArrow=classic;html=1;rounded=0;entryX=0;entryY=0.5;entryDx=0;entryDy=0;edgeStyle=orthogonalEdgeStyle;fontFamily=Lucida Console;" parent="1" target="EFgW5jW_aL9SyOM_Q5C--21" edge="1">
          <mxGeometry width="50" height="50" relative="1" as="geometry">
            <mxPoint x="550" y="360" as="sourcePoint" />
            <mxPoint x="790" y="250" as="targetPoint" />
            <Array as="points">
              <mxPoint x="630" y="360" />
              <mxPoint x="630" y="130" />
            </Array>
          </mxGeometry>
        </mxCell>
        <mxCell id="EFgW5jW_aL9SyOM_Q5C--23" value="" style="edgeStyle=orthogonalEdgeStyle;rounded=0;orthogonalLoop=1;jettySize=auto;html=1;exitX=-0.01;exitY=0.609;exitDx=0;exitDy=0;exitPerimeter=0;entryX=-0.001;entryY=0.349;entryDx=0;entryDy=0;fontFamily=Lucida Console;entryPerimeter=0;" parent="1" source="EFgW5jW_aL9SyOM_Q5C--24" target="EFgW5jW_aL9SyOM_Q5C--26" edge="1">
          <mxGeometry relative="1" as="geometry">
            <Array as="points">
              <mxPoint x="1640" y="39" />
              <mxPoint x="1640" y="-280" />
              <mxPoint x="860" y="-280" />
              <mxPoint x="860" y="-120" />
              <mxPoint x="950" y="-120" />
            </Array>
          </mxGeometry>
        </mxCell>
        <mxCell id="EFgW5jW_aL9SyOM_Q5C--24" value="RabbitMQ" style="strokeWidth=1;html=1;shape=mxgraph.flowchart.direct_data;whiteSpace=wrap;direction=west;fillColor=#fff2cc;strokeColor=#d6b656;fontFamily=Lucida Console;" parent="1" vertex="1">
          <mxGeometry x="1440" width="100" height="100" as="geometry" />
        </mxCell>
        <mxCell id="EFgW5jW_aL9SyOM_Q5C--25" value="" style="endArrow=classic;html=1;rounded=0;exitX=1;exitY=0.5;exitDx=0;exitDy=0;entryX=1;entryY=0.5;entryDx=0;entryDy=0;entryPerimeter=0;edgeStyle=orthogonalEdgeStyle;fontFamily=Lucida Console;" parent="1" source="EFgW5jW_aL9SyOM_Q5C--21" target="EFgW5jW_aL9SyOM_Q5C--24" edge="1">
          <mxGeometry width="50" height="50" relative="1" as="geometry">
            <mxPoint x="1110" y="420" as="sourcePoint" />
            <mxPoint x="1160" y="370" as="targetPoint" />
            <Array as="points">
              <mxPoint x="1250" y="130" />
              <mxPoint x="1250" y="50" />
            </Array>
          </mxGeometry>
        </mxCell>
        <mxCell id="EFgW5jW_aL9SyOM_Q5C--26" value="Event" style="rounded=1;whiteSpace=wrap;html=1;fillColor=#dae8fc;strokeColor=#6c8ebf;fontFamily=Lucida Console;" parent="1" vertex="1">
          <mxGeometry x="950" y="-140" width="120" height="60" as="geometry" />
        </mxCell>
        <mxCell id="EFgW5jW_aL9SyOM_Q5C--27" value="Notification" style="rounded=1;whiteSpace=wrap;html=1;fillColor=#dae8fc;strokeColor=#6c8ebf;fontFamily=Lucida Console;" parent="1" vertex="1">
          <mxGeometry x="1830" y="20" width="120" height="60" as="geometry" />
        </mxCell>
        <mxCell id="EFgW5jW_aL9SyOM_Q5C--28" value="" style="endArrow=classic;html=1;rounded=0;exitX=1;exitY=0.5;exitDx=0;exitDy=0;edgeStyle=orthogonalEdgeStyle;fontFamily=Lucida Console;" parent="1" source="EFgW5jW_aL9SyOM_Q5C--26" edge="1">
          <mxGeometry width="50" height="50" relative="1" as="geometry">
            <mxPoint x="1280" y="440" as="sourcePoint" />
            <mxPoint x="1440" y="40" as="targetPoint" />
            <Array as="points">
              <mxPoint x="1320" y="-110" />
              <mxPoint x="1320" y="40" />
              <mxPoint x="1440" y="40" />
            </Array>
          </mxGeometry>
        </mxCell>
        <mxCell id="EFgW5jW_aL9SyOM_Q5C--29" value="" style="endArrow=classic;html=1;rounded=0;exitX=0;exitY=0.5;exitDx=0;exitDy=0;exitPerimeter=0;entryX=0;entryY=0.5;entryDx=0;entryDy=0;fontFamily=Lucida Console;" parent="1" source="EFgW5jW_aL9SyOM_Q5C--24" target="EFgW5jW_aL9SyOM_Q5C--27" edge="1">
          <mxGeometry width="50" height="50" relative="1" as="geometry">
            <mxPoint x="1540" y="370" as="sourcePoint" />
            <mxPoint x="1410" y="330" as="targetPoint" />
          </mxGeometry>
        </mxCell>
        <mxCell id="EFgW5jW_aL9SyOM_Q5C--30" value="" style="endArrow=classic;html=1;rounded=0;entryX=0;entryY=0.5;entryDx=0;entryDy=0;edgeStyle=orthogonalEdgeStyle;jumpStyle=none;jumpSize=12;fontFamily=Lucida Console;" parent="1" target="EFgW5jW_aL9SyOM_Q5C--15" edge="1">
          <mxGeometry width="50" height="50" relative="1" as="geometry">
            <mxPoint x="550" y="390" as="sourcePoint" />
            <mxPoint x="840" y="440" as="targetPoint" />
            <Array as="points">
              <mxPoint x="550" y="390" />
              <mxPoint x="620" y="390" />
              <mxPoint x="620" y="650" />
            </Array>
          </mxGeometry>
        </mxCell>
        <mxCell id="EFgW5jW_aL9SyOM_Q5C--31" value="" style="endArrow=classic;html=1;rounded=0;edgeStyle=orthogonalEdgeStyle;movable=1;resizable=1;rotatable=1;deletable=1;editable=1;locked=0;connectable=1;fontFamily=Lucida Console;" parent="1" edge="1">
          <mxGeometry width="50" height="50" relative="1" as="geometry">
            <mxPoint x="1071" y="350" as="sourcePoint" />
            <mxPoint x="1442" y="60" as="targetPoint" />
            <Array as="points">
              <mxPoint x="1320" y="350" />
              <mxPoint x="1320" y="60" />
              <mxPoint x="1442" y="60" />
            </Array>
          </mxGeometry>
        </mxCell>
        <mxCell id="EFgW5jW_aL9SyOM_Q5C--32" value="" style="endArrow=classic;html=1;rounded=0;entryX=0;entryY=0.5;entryDx=0;entryDy=0;edgeStyle=orthogonalEdgeStyle;fontFamily=Lucida Console;" parent="1" target="EFgW5jW_aL9SyOM_Q5C--26" edge="1">
          <mxGeometry width="50" height="50" relative="1" as="geometry">
            <mxPoint x="550" y="350" as="sourcePoint" />
            <mxPoint x="850" y="250" as="targetPoint" />
            <Array as="points">
              <mxPoint x="550" y="350" />
              <mxPoint x="620" y="350" />
              <mxPoint x="620" y="-110" />
            </Array>
          </mxGeometry>
        </mxCell>
        <mxCell id="EFgW5jW_aL9SyOM_Q5C--33" value="" style="endArrow=classic;html=1;rounded=0;exitX=0.414;exitY=1.01;exitDx=0;exitDy=0;edgeStyle=orthogonalEdgeStyle;fontFamily=Lucida Console;exitPerimeter=0;entryX=0.669;entryY=0.007;entryDx=0;entryDy=0;entryPerimeter=0;" parent="1" source="EFgW5jW_aL9SyOM_Q5C--15" target="EFgW5jW_aL9SyOM_Q5C--7" edge="1">
          <mxGeometry width="50" height="50" relative="1" as="geometry">
            <mxPoint x="700" y="720" as="sourcePoint" />
            <mxPoint x="650" y="840" as="targetPoint" />
            <Array as="points">
              <mxPoint x="1000" y="760" />
              <mxPoint x="670" y="760" />
            </Array>
          </mxGeometry>
        </mxCell>
        <mxCell id="ohztR64R9KrUzPSYAaLb-3" value="Authorize request" style="edgeLabel;html=1;align=center;verticalAlign=middle;resizable=0;points=[];fontFamily=Lucida Console;fontSize=12;fontColor=#0066CC;fontStyle=0" parent="EFgW5jW_aL9SyOM_Q5C--33" vertex="1" connectable="0">
          <mxGeometry x="-0.0365" y="-3" relative="1" as="geometry">
            <mxPoint y="3" as="offset" />
          </mxGeometry>
        </mxCell>
        <mxCell id="EFgW5jW_aL9SyOM_Q5C--34" value="" style="endArrow=classic;html=1;rounded=0;exitX=0.5;exitY=1;exitDx=0;exitDy=0;edgeStyle=orthogonalEdgeStyle;jumpStyle=arc;jumpSize=12;fontFamily=Lucida Console;entryX=0.588;entryY=-0.006;entryDx=0;entryDy=0;entryPerimeter=0;" parent="1" source="EFgW5jW_aL9SyOM_Q5C--9" target="EFgW5jW_aL9SyOM_Q5C--7" edge="1">
          <mxGeometry width="50" height="50" relative="1" as="geometry">
            <mxPoint x="830" y="570" as="sourcePoint" />
            <mxPoint x="640" y="840" as="targetPoint" />
            <Array as="points">
              <mxPoint x="1010" y="500" />
              <mxPoint x="660" y="500" />
              <mxPoint x="660" y="839" />
            </Array>
          </mxGeometry>
        </mxCell>
        <mxCell id="EFgW5jW_aL9SyOM_Q5C--35" value="" style="edgeStyle=orthogonalEdgeStyle;rounded=0;orthogonalLoop=1;jettySize=auto;html=1;jumpStyle=arc;jumpSize=12;fontFamily=Lucida Console;" parent="1" source="EFgW5jW_aL9SyOM_Q5C--6" target="EFgW5jW_aL9SyOM_Q5C--7" edge="1">
          <mxGeometry relative="1" as="geometry">
            <Array as="points">
              <mxPoint x="630" y="380" />
            </Array>
          </mxGeometry>
        </mxCell>
        <mxCell id="ohztR64R9KrUzPSYAaLb-4" value="Authorize request" style="edgeLabel;html=1;align=center;verticalAlign=middle;resizable=0;points=[];fontFamily=Lucida Console;fontSize=12;fontColor=#0066CC;fontStyle=0" parent="1" vertex="1" connectable="0">
          <mxGeometry x="829.996667786174" y="500" as="geometry" />
        </mxCell>
        <mxCell id="ohztR64R9KrUzPSYAaLb-7" value="" style="endArrow=classic;html=1;rounded=0;exitX=0.5;exitY=1;exitDx=0;exitDy=0;entryX=0.593;entryY=0.001;entryDx=0;entryDy=0;edgeStyle=orthogonalEdgeStyle;entryPerimeter=0;jumpStyle=arc;jumpSize=12;" parent="1" edge="1">
          <mxGeometry width="50" height="50" relative="1" as="geometry">
            <mxPoint x="1000" y="160" as="sourcePoint" />
            <mxPoint x="651.1599999999999" y="840.0999999999999" as="targetPoint" />
            <Array as="points">
              <mxPoint x="1000" y="230" />
              <mxPoint x="651" y="230" />
            </Array>
          </mxGeometry>
        </mxCell>
        <mxCell id="ohztR64R9KrUzPSYAaLb-8" value="" style="endArrow=classic;html=1;rounded=0;exitX=0.5;exitY=1;exitDx=0;exitDy=0;entryX=0.5;entryY=0;entryDx=0;entryDy=0;edgeStyle=orthogonalEdgeStyle;jumpStyle=arc;jumpSize=12;" parent="1" edge="1">
          <mxGeometry width="50" height="50" relative="1" as="geometry">
            <mxPoint x="1000" y="-80" as="sourcePoint" />
            <mxPoint x="640" y="840" as="targetPoint" />
            <Array as="points">
              <mxPoint x="1000" />
              <mxPoint x="640" />
            </Array>
          </mxGeometry>
        </mxCell>
        <mxCell id="ohztR64R9KrUzPSYAaLb-9" value="Authorize request" style="edgeLabel;html=1;align=center;verticalAlign=middle;resizable=0;points=[];fontFamily=Lucida Console;fontSize=12;fontColor=#0066CC;fontStyle=0" parent="1" vertex="1" connectable="0">
          <mxGeometry x="839.996667786174" y="230" as="geometry" />
        </mxCell>
        <mxCell id="ohztR64R9KrUzPSYAaLb-10" value="Authorize request" style="edgeLabel;html=1;align=center;verticalAlign=middle;resizable=0;points=[];fontFamily=Lucida Console;fontSize=12;fontColor=#0066CC;fontStyle=0" parent="1" vertex="1" connectable="0">
          <mxGeometry x="829.996667786174" as="geometry" />
        </mxCell>
        <mxCell id="ohztR64R9KrUzPSYAaLb-11" value="" style="endArrow=classic;html=1;rounded=0;exitX=0.5;exitY=1;exitDx=0;exitDy=0;entryX=0;entryY=0.5;entryDx=0;entryDy=0;fontFamily=Lucida Console;edgeStyle=orthogonalEdgeStyle;elbow=vertical;" parent="1" source="EFgW5jW_aL9SyOM_Q5C--4" target="EFgW5jW_aL9SyOM_Q5C--7" edge="1">
          <mxGeometry width="50" height="50" relative="1" as="geometry">
            <mxPoint x="420" y="700" as="sourcePoint" />
            <mxPoint x="470" y="650" as="targetPoint" />
            <Array as="points">
              <mxPoint x="170" y="890" />
            </Array>
          </mxGeometry>
        </mxCell>
        <mxCell id="ohztR64R9KrUzPSYAaLb-12" value="Authenticate user" style="edgeLabel;html=1;align=center;verticalAlign=middle;resizable=0;points=[];fontFamily=Lucida Console;fontSize=12;fontColor=#0066CC;fontStyle=0" parent="1" vertex="1" connectable="0">
          <mxGeometry x="340.00333445284105" y="890" as="geometry" />
        </mxCell>
        <mxCell id="EFgW5jW_aL9SyOM_Q5C--13" value="Discovery service" style="rounded=1;whiteSpace=wrap;html=1;fillColor=#dae8fc;strokeColor=#6c8ebf;fontFamily=Lucida Console;" parent="1" vertex="1">
          <mxGeometry x="770" y="1090" width="150" height="80" as="geometry" />
        </mxCell>
        <mxCell id="ohztR64R9KrUzPSYAaLb-13" value="Project event log" style="rounded=1;whiteSpace=wrap;html=1;fillColor=#dae8fc;strokeColor=#6c8ebf;fontFamily=Lucida Console;" parent="1" vertex="1">
          <mxGeometry x="950" y="-400" width="120" height="60" as="geometry" />
        </mxCell>
        <mxCell id="ohztR64R9KrUzPSYAaLb-14" value="Chat" style="rounded=1;whiteSpace=wrap;html=1;fillColor=#dae8fc;strokeColor=#6c8ebf;fontFamily=Lucida Console;" parent="1" vertex="1">
          <mxGeometry x="950" y="-730" width="120" height="60" as="geometry" />
        </mxCell>
      </root>
    </mxGraphModel>
  </diagram>
  <diagram id="33WxTmefMG-jh-m4C64U" name="Project membership flow">
    <mxGraphModel dx="2578" dy="2605" grid="1" gridSize="10" guides="1" tooltips="1" connect="1" arrows="1" fold="1" page="1" pageScale="1" pageWidth="850" pageHeight="1100" math="0" shadow="0">
      <root>
        <mxCell id="0" />
        <mxCell id="1" parent="0" />
        <mxCell id="y2ZhOVEjS_DB00s_sJJf-65" value="" style="endArrow=classic;html=1;rounded=0;exitX=-0.011;exitY=0.693;exitDx=0;exitDy=0;entryX=0.5;entryY=0;entryDx=0;entryDy=0;edgeStyle=orthogonalEdgeStyle;exitPerimeter=0;fillColor=#ffe6cc;strokeColor=#d79b00;fontFamily=Lucida Console;" edge="1" parent="1" source="jv0xiTuXP7Q5Xd7sCUJV-44" target="jv0xiTuXP7Q5Xd7sCUJV-16">
          <mxGeometry width="50" height="50" relative="1" as="geometry">
            <mxPoint x="1290" y="1190" as="sourcePoint" />
            <mxPoint x="1340" y="1140" as="targetPoint" />
            <Array as="points">
              <mxPoint x="720" y="1450" />
              <mxPoint x="720" y="730" />
              <mxPoint x="1760" y="730" />
            </Array>
          </mxGeometry>
        </mxCell>
        <mxCell id="-qR9p5dMgf5ARg4mVedY-38" value="" style="edgeStyle=orthogonalEdgeStyle;rounded=0;orthogonalLoop=1;jettySize=auto;html=1;entryX=0.5;entryY=0;entryDx=0;entryDy=0;exitX=0.5;exitY=1;exitDx=0;exitDy=0;fontFamily=Lucida Console;fillColor=#ffe6cc;strokeColor=#d79b00;" edge="1" parent="1" source="-qR9p5dMgf5ARg4mVedY-85" target="-qR9p5dMgf5ARg4mVedY-37">
          <mxGeometry relative="1" as="geometry">
            <mxPoint x="1346.725" y="-215" as="sourcePoint" />
            <mxPoint x="1560.06" y="-265" as="targetPoint" />
            <Array as="points" />
          </mxGeometry>
        </mxCell>
        <mxCell id="21GR-3T6zuQb7VVUM2Bg-1" value="" style="edgeStyle=orthogonalEdgeStyle;rounded=0;orthogonalLoop=1;jettySize=auto;html=1;fontFamily=Lucida Console;" parent="1" source="21GR-3T6zuQb7VVUM2Bg-3" target="21GR-3T6zuQb7VVUM2Bg-9" edge="1">
          <mxGeometry relative="1" as="geometry" />
        </mxCell>
        <mxCell id="21GR-3T6zuQb7VVUM2Bg-2" value="Request" style="edgeLabel;html=1;align=center;verticalAlign=middle;resizable=0;points=[];fontFamily=Lucida Console;" parent="21GR-3T6zuQb7VVUM2Bg-1" vertex="1" connectable="0">
          <mxGeometry x="-0.0436" y="-2" relative="1" as="geometry">
            <mxPoint as="offset" />
          </mxGeometry>
        </mxCell>
        <mxCell id="21GR-3T6zuQb7VVUM2Bg-3" value="Leave project" style="ellipse;whiteSpace=wrap;html=1;fillColor=#e1d5e7;strokeColor=#9673a6;fontFamily=Lucida Console;" parent="1" vertex="1">
          <mxGeometry x="2830" y="80" width="117.5" height="50" as="geometry" />
        </mxCell>
        <mxCell id="21GR-3T6zuQb7VVUM2Bg-4" value="&lt;font&gt;Project membership service&lt;/font&gt;" style="swimlane;whiteSpace=wrap;html=1;startSize=23;fontFamily=Lucida Console;" parent="1" vertex="1">
          <mxGeometry x="2670" y="190" width="770" height="400" as="geometry" />
        </mxCell>
        <mxCell id="21GR-3T6zuQb7VVUM2Bg-5" value="" style="edgeStyle=orthogonalEdgeStyle;rounded=0;orthogonalLoop=1;jettySize=auto;html=1;fontFamily=Lucida Console;exitX=1;exitY=0.5;exitDx=0;exitDy=0;" parent="21GR-3T6zuQb7VVUM2Bg-4" source="21GR-3T6zuQb7VVUM2Bg-15" target="21GR-3T6zuQb7VVUM2Bg-8" edge="1">
          <mxGeometry relative="1" as="geometry">
            <mxPoint x="408.75" y="275" as="sourcePoint" />
          </mxGeometry>
        </mxCell>
        <mxCell id="21GR-3T6zuQb7VVUM2Bg-6" value="SQL" style="edgeLabel;html=1;align=center;verticalAlign=middle;resizable=0;points=[];fontFamily=Lucida Console;" parent="21GR-3T6zuQb7VVUM2Bg-5" vertex="1" connectable="0">
          <mxGeometry x="-0.2262" y="-3" relative="1" as="geometry">
            <mxPoint as="offset" />
          </mxGeometry>
        </mxCell>
        <mxCell id="21GR-3T6zuQb7VVUM2Bg-7" value="" style="edgeStyle=orthogonalEdgeStyle;rounded=0;orthogonalLoop=1;jettySize=auto;html=1;fontFamily=Lucida Console;" parent="21GR-3T6zuQb7VVUM2Bg-4" source="21GR-3T6zuQb7VVUM2Bg-8" target="21GR-3T6zuQb7VVUM2Bg-16" edge="1">
          <mxGeometry relative="1" as="geometry" />
        </mxCell>
        <mxCell id="21GR-3T6zuQb7VVUM2Bg-8" value="Remove user&amp;nbsp; membership" style="rounded=1;whiteSpace=wrap;html=1;fillColor=#f8cecc;strokeColor=#b85450;fontStyle=0;fontFamily=Lucida Console;" parent="21GR-3T6zuQb7VVUM2Bg-4" vertex="1">
          <mxGeometry x="488.75" y="260" width="120" height="30" as="geometry" />
        </mxCell>
        <mxCell id="21GR-3T6zuQb7VVUM2Bg-9" value="Request confirmation" style="rounded=1;whiteSpace=wrap;html=1;fillColor=#dae8fc;strokeColor=#6c8ebf;fontStyle=0;fontFamily=Lucida Console;" parent="21GR-3T6zuQb7VVUM2Bg-4" vertex="1">
          <mxGeometry x="160" y="50" width="120" height="30" as="geometry" />
        </mxCell>
        <mxCell id="21GR-3T6zuQb7VVUM2Bg-10" value="Receive confirmation" style="rounded=1;whiteSpace=wrap;html=1;fillColor=#dae8fc;strokeColor=#6c8ebf;fontStyle=0;fontFamily=Lucida Console;" parent="21GR-3T6zuQb7VVUM2Bg-4" vertex="1">
          <mxGeometry x="280" y="160" width="120" height="30" as="geometry" />
        </mxCell>
        <mxCell id="21GR-3T6zuQb7VVUM2Bg-11" value="Cancel" style="rounded=1;whiteSpace=wrap;html=1;fillColor=#f8cecc;strokeColor=#b85450;fontStyle=0;fontFamily=Lucida Console;" parent="21GR-3T6zuQb7VVUM2Bg-4" vertex="1">
          <mxGeometry x="40" y="160" width="120" height="30" as="geometry" />
        </mxCell>
        <mxCell id="21GR-3T6zuQb7VVUM2Bg-12" value="" style="endArrow=classic;html=1;rounded=0;exitX=0;exitY=0.5;exitDx=0;exitDy=0;entryX=0.5;entryY=0;entryDx=0;entryDy=0;edgeStyle=orthogonalEdgeStyle;fontFamily=Lucida Console;" parent="21GR-3T6zuQb7VVUM2Bg-4" source="21GR-3T6zuQb7VVUM2Bg-9" target="21GR-3T6zuQb7VVUM2Bg-11" edge="1">
          <mxGeometry width="50" height="50" relative="1" as="geometry">
            <mxPoint y="140" as="sourcePoint" />
            <mxPoint x="50" y="90" as="targetPoint" />
          </mxGeometry>
        </mxCell>
        <mxCell id="21GR-3T6zuQb7VVUM2Bg-13" value="" style="endArrow=classic;html=1;rounded=0;exitX=1;exitY=0.5;exitDx=0;exitDy=0;entryX=0.5;entryY=0;entryDx=0;entryDy=0;edgeStyle=orthogonalEdgeStyle;fontFamily=Lucida Console;" parent="21GR-3T6zuQb7VVUM2Bg-4" source="21GR-3T6zuQb7VVUM2Bg-9" target="21GR-3T6zuQb7VVUM2Bg-10" edge="1">
          <mxGeometry width="50" height="50" relative="1" as="geometry">
            <mxPoint y="140" as="sourcePoint" />
            <mxPoint x="50" y="90" as="targetPoint" />
          </mxGeometry>
        </mxCell>
        <mxCell id="21GR-3T6zuQb7VVUM2Bg-14" value="" style="edgeStyle=orthogonalEdgeStyle;rounded=0;orthogonalLoop=1;jettySize=auto;html=1;fontFamily=Lucida Console;" parent="21GR-3T6zuQb7VVUM2Bg-4" target="21GR-3T6zuQb7VVUM2Bg-15" edge="1">
          <mxGeometry relative="1" as="geometry">
            <mxPoint x="338.75" y="190" as="sourcePoint" />
          </mxGeometry>
        </mxCell>
        <mxCell id="21GR-3T6zuQb7VVUM2Bg-15" value="Remove user membership for the project" style="rounded=1;whiteSpace=wrap;html=1;fillColor=#dae8fc;strokeColor=#6c8ebf;fontStyle=0;fontFamily=Lucida Console;" parent="21GR-3T6zuQb7VVUM2Bg-4" vertex="1">
          <mxGeometry x="278.75" y="250" width="120" height="50" as="geometry" />
        </mxCell>
        <mxCell id="21GR-3T6zuQb7VVUM2Bg-16" value="&lt;font&gt;User was removed from project&lt;/font&gt;" style="shape=message;html=1;html=1;outlineConnect=0;labelPosition=center;verticalLabelPosition=bottom;align=center;verticalAlign=top;fillColor=#ffe6cc;strokeColor=#d79b00;fontFamily=Lucida Console;" parent="21GR-3T6zuQb7VVUM2Bg-4" vertex="1">
          <mxGeometry x="528.75" y="330" width="40" height="30" as="geometry" />
        </mxCell>
        <mxCell id="21GR-3T6zuQb7VVUM2Bg-17" value="&lt;font&gt;User left project&lt;/font&gt;" style="shape=message;html=1;html=1;outlineConnect=0;labelPosition=center;verticalLabelPosition=bottom;align=center;verticalAlign=top;fillColor=#ffe6cc;strokeColor=#d79b00;fontFamily=Lucida Console;" parent="21GR-3T6zuQb7VVUM2Bg-4" vertex="1">
          <mxGeometry x="678.75" y="260" width="40" height="30" as="geometry" />
        </mxCell>
        <mxCell id="21GR-3T6zuQb7VVUM2Bg-18" value="" style="edgeStyle=orthogonalEdgeStyle;rounded=0;orthogonalLoop=1;jettySize=auto;html=1;fillColor=#ffe6cc;strokeColor=#000000;fontFamily=Lucida Console;" parent="21GR-3T6zuQb7VVUM2Bg-4" source="21GR-3T6zuQb7VVUM2Bg-8" target="21GR-3T6zuQb7VVUM2Bg-17" edge="1">
          <mxGeometry relative="1" as="geometry">
            <mxPoint x="738.75" y="1195" as="sourcePoint" />
            <mxPoint x="958.75" y="1185" as="targetPoint" />
          </mxGeometry>
        </mxCell>
        <mxCell id="21GR-3T6zuQb7VVUM2Bg-19" value="" style="sketch=0;aspect=fixed;pointerEvents=1;shadow=0;html=1;labelPosition=center;verticalLabelPosition=bottom;verticalAlign=top;align=center;shape=mxgraph.azure.queue_generic;fillColor=#e1d5e7;strokeColor=#9673a6;fontFamily=Lucida Console;" parent="1" vertex="1">
          <mxGeometry x="3485.42" y="630" width="133.33" height="40" as="geometry" />
        </mxCell>
        <mxCell id="21GR-3T6zuQb7VVUM2Bg-20" value="" style="edgeStyle=orthogonalEdgeStyle;rounded=0;orthogonalLoop=1;jettySize=auto;html=1;fillColor=#ffe6cc;strokeColor=#d79b00;entryX=0;entryY=0.5;entryDx=0;entryDy=0;entryPerimeter=0;exitX=0.5;exitY=1;exitDx=0;exitDy=0;fontFamily=Lucida Console;" parent="1" source="21GR-3T6zuQb7VVUM2Bg-16" target="21GR-3T6zuQb7VVUM2Bg-19" edge="1">
          <mxGeometry relative="1" as="geometry">
            <mxPoint x="3218.75" y="725" as="targetPoint" />
          </mxGeometry>
        </mxCell>
        <mxCell id="21GR-3T6zuQb7VVUM2Bg-21" value="" style="endArrow=classic;html=1;rounded=0;exitX=1.002;exitY=0.435;exitDx=0;exitDy=0;exitPerimeter=0;entryX=0;entryY=0.5;entryDx=0;entryDy=0;edgeStyle=orthogonalEdgeStyle;fillColor=#ffe6cc;strokeColor=#d79b00;fontFamily=Lucida Console;" parent="1" source="21GR-3T6zuQb7VVUM2Bg-19" target="21GR-3T6zuQb7VVUM2Bg-25" edge="1">
          <mxGeometry width="50" height="50" relative="1" as="geometry">
            <mxPoint x="3418.75" y="620" as="sourcePoint" />
            <mxPoint x="3468.75" y="570" as="targetPoint" />
          </mxGeometry>
        </mxCell>
        <mxCell id="21GR-3T6zuQb7VVUM2Bg-22" value="" style="endArrow=classic;html=1;rounded=0;exitX=1;exitY=0.5;exitDx=0;exitDy=0;entryX=0.002;entryY=0.272;entryDx=0;entryDy=0;fillColor=#ffe6cc;strokeColor=#d79b00;entryPerimeter=0;edgeStyle=orthogonalEdgeStyle;fontFamily=Lucida Console;" parent="1" source="21GR-3T6zuQb7VVUM2Bg-17" target="21GR-3T6zuQb7VVUM2Bg-19" edge="1">
          <mxGeometry width="50" height="50" relative="1" as="geometry">
            <mxPoint x="3338.75" y="530" as="sourcePoint" />
            <mxPoint x="3388.75" y="480" as="targetPoint" />
            <Array as="points">
              <mxPoint x="3458.75" y="465" />
              <mxPoint x="3458.75" y="641" />
            </Array>
          </mxGeometry>
        </mxCell>
        <mxCell id="21GR-3T6zuQb7VVUM2Bg-23" value="" style="endArrow=classic;html=1;rounded=0;exitX=1.011;exitY=0.655;exitDx=0;exitDy=0;exitPerimeter=0;entryX=0;entryY=0.5;entryDx=0;entryDy=0;fillColor=#ffe6cc;strokeColor=#d79b00;edgeStyle=orthogonalEdgeStyle;fontFamily=Lucida Console;" parent="1" source="21GR-3T6zuQb7VVUM2Bg-19" target="21GR-3T6zuQb7VVUM2Bg-27" edge="1">
          <mxGeometry width="50" height="50" relative="1" as="geometry">
            <mxPoint x="3598.75" y="680" as="sourcePoint" />
            <mxPoint x="3648.75" y="630" as="targetPoint" />
          </mxGeometry>
        </mxCell>
        <mxCell id="21GR-3T6zuQb7VVUM2Bg-24" value="Notification service" style="swimlane;whiteSpace=wrap;html=1;fontFamily=Lucida Console;" parent="1" vertex="1">
          <mxGeometry x="3678.75" y="495" width="250" height="135" as="geometry" />
        </mxCell>
        <mxCell id="21GR-3T6zuQb7VVUM2Bg-25" value="Send notification to the person who left project" style="rounded=1;whiteSpace=wrap;html=1;fillColor=#d5e8d4;strokeColor=#82b366;fontStyle=0;fontFamily=Lucida Console;" parent="21GR-3T6zuQb7VVUM2Bg-24" vertex="1">
          <mxGeometry x="35" y="45" width="180" height="50" as="geometry" />
        </mxCell>
        <mxCell id="21GR-3T6zuQb7VVUM2Bg-26" value="Project event log service" style="swimlane;whiteSpace=wrap;html=1;fontFamily=Lucida Console;" parent="1" vertex="1">
          <mxGeometry x="3678.75" y="660" width="250" height="120" as="geometry" />
        </mxCell>
        <mxCell id="21GR-3T6zuQb7VVUM2Bg-27" value="Log the event in project log" style="rounded=1;whiteSpace=wrap;html=1;fillColor=#d5e8d4;strokeColor=#82b366;fontStyle=0;fontFamily=Lucida Console;" parent="21GR-3T6zuQb7VVUM2Bg-26" vertex="1">
          <mxGeometry x="35" y="60" width="180" height="30" as="geometry" />
        </mxCell>
        <mxCell id="uyUoQ418wU7ILJamZXVb-1" value="" style="edgeStyle=orthogonalEdgeStyle;rounded=0;orthogonalLoop=1;jettySize=auto;html=1;fontFamily=Lucida Console;" parent="1" source="uyUoQ418wU7ILJamZXVb-3" target="uyUoQ418wU7ILJamZXVb-4" edge="1">
          <mxGeometry relative="1" as="geometry" />
        </mxCell>
        <mxCell id="uyUoQ418wU7ILJamZXVb-2" value="Request" style="edgeLabel;html=1;align=center;verticalAlign=middle;resizable=0;points=[];fontFamily=Lucida Console;" parent="uyUoQ418wU7ILJamZXVb-1" vertex="1" connectable="0">
          <mxGeometry x="-0.2362" relative="1" as="geometry">
            <mxPoint y="43" as="offset" />
          </mxGeometry>
        </mxCell>
        <mxCell id="uyUoQ418wU7ILJamZXVb-3" value="Kick user from project" style="ellipse;whiteSpace=wrap;html=1;fillColor=#e1d5e7;strokeColor=#9673a6;fontFamily=Lucida Console;" parent="1" vertex="1">
          <mxGeometry x="2801.25" y="740" width="117.5" height="50" as="geometry" />
        </mxCell>
        <mxCell id="uyUoQ418wU7ILJamZXVb-4" value="Request confirmation" style="rounded=1;whiteSpace=wrap;html=1;fillColor=#dae8fc;strokeColor=#6c8ebf;fontStyle=0;fontFamily=Lucida Console;" parent="1" vertex="1">
          <mxGeometry x="2800" y="910.95" width="120" height="30" as="geometry" />
        </mxCell>
        <mxCell id="uyUoQ418wU7ILJamZXVb-6" value="Receive confirmation" style="rounded=1;whiteSpace=wrap;html=1;fillColor=#dae8fc;strokeColor=#6c8ebf;fontStyle=0;fontFamily=Lucida Console;" parent="1" vertex="1">
          <mxGeometry x="2920" y="1030.95" width="120" height="30" as="geometry" />
        </mxCell>
        <mxCell id="uyUoQ418wU7ILJamZXVb-7" value="Cancel" style="rounded=1;whiteSpace=wrap;html=1;fillColor=#f8cecc;strokeColor=#b85450;fontStyle=0;fontFamily=Lucida Console;" parent="1" vertex="1">
          <mxGeometry x="2680" y="1030.95" width="120" height="30" as="geometry" />
        </mxCell>
        <mxCell id="uyUoQ418wU7ILJamZXVb-8" value="" style="endArrow=classic;html=1;rounded=0;exitX=1;exitY=0.5;exitDx=0;exitDy=0;entryX=0.5;entryY=0;entryDx=0;entryDy=0;edgeStyle=orthogonalEdgeStyle;fontFamily=Lucida Console;" parent="1" source="uyUoQ418wU7ILJamZXVb-4" target="uyUoQ418wU7ILJamZXVb-6" edge="1">
          <mxGeometry width="50" height="50" relative="1" as="geometry">
            <mxPoint x="2760" y="1050.95" as="sourcePoint" />
            <mxPoint x="2810" y="1000.95" as="targetPoint" />
          </mxGeometry>
        </mxCell>
        <mxCell id="uyUoQ418wU7ILJamZXVb-9" value="" style="endArrow=classic;html=1;rounded=0;exitX=0;exitY=0.5;exitDx=0;exitDy=0;entryX=0.5;entryY=0;entryDx=0;entryDy=0;edgeStyle=orthogonalEdgeStyle;fontFamily=Lucida Console;" parent="1" source="uyUoQ418wU7ILJamZXVb-4" target="uyUoQ418wU7ILJamZXVb-7" edge="1">
          <mxGeometry width="50" height="50" relative="1" as="geometry">
            <mxPoint x="2670" y="1110.95" as="sourcePoint" />
            <mxPoint x="2720" y="1060.95" as="targetPoint" />
          </mxGeometry>
        </mxCell>
        <mxCell id="uyUoQ418wU7ILJamZXVb-11" value="Remove the membership from the user in the project" style="rounded=1;whiteSpace=wrap;html=1;fillColor=#dae8fc;strokeColor=#6c8ebf;fontStyle=0;spacing=5;fontFamily=Lucida Console;" parent="1" vertex="1">
          <mxGeometry x="2920" y="1160.95" width="120" height="50" as="geometry" />
        </mxCell>
        <mxCell id="uyUoQ418wU7ILJamZXVb-12" value="" style="endArrow=classic;html=1;rounded=0;exitX=0.5;exitY=1;exitDx=0;exitDy=0;entryX=0.5;entryY=0;entryDx=0;entryDy=0;edgeStyle=orthogonalEdgeStyle;fillColor=#ffe6cc;strokeColor=#d79b00;fontFamily=Lucida Console;" parent="1" source="uyUoQ418wU7ILJamZXVb-6" target="uyUoQ418wU7ILJamZXVb-11" edge="1">
          <mxGeometry width="50" height="50" relative="1" as="geometry">
            <mxPoint x="2760" y="1170.95" as="sourcePoint" />
            <mxPoint x="2810" y="1120.95" as="targetPoint" />
          </mxGeometry>
        </mxCell>
        <mxCell id="uyUoQ418wU7ILJamZXVb-22" value="Project membership service" style="swimlane;whiteSpace=wrap;html=1;fontFamily=Lucida Console;" parent="1" vertex="1">
          <mxGeometry x="2670" y="840" width="710" height="480" as="geometry" />
        </mxCell>
        <mxCell id="uyUoQ418wU7ILJamZXVb-26" value="" style="edgeStyle=orthogonalEdgeStyle;rounded=0;orthogonalLoop=1;jettySize=auto;html=1;fontFamily=Lucida Console;exitX=1;exitY=0.5;exitDx=0;exitDy=0;" parent="uyUoQ418wU7ILJamZXVb-22" target="uyUoQ418wU7ILJamZXVb-29" edge="1">
          <mxGeometry relative="1" as="geometry">
            <mxPoint x="370" y="345.00000000000006" as="sourcePoint" />
          </mxGeometry>
        </mxCell>
        <mxCell id="uyUoQ418wU7ILJamZXVb-27" value="SQL" style="edgeLabel;html=1;align=center;verticalAlign=middle;resizable=0;points=[];fontFamily=Lucida Console;" parent="uyUoQ418wU7ILJamZXVb-26" vertex="1" connectable="0">
          <mxGeometry x="-0.2262" y="-3" relative="1" as="geometry">
            <mxPoint as="offset" />
          </mxGeometry>
        </mxCell>
        <mxCell id="uyUoQ418wU7ILJamZXVb-29" value="Remove user&amp;nbsp; membership" style="rounded=1;whiteSpace=wrap;html=1;fillColor=#f8cecc;strokeColor=#b85450;fontStyle=0;fontFamily=Lucida Console;" parent="uyUoQ418wU7ILJamZXVb-22" vertex="1">
          <mxGeometry x="459.75" y="330.00000000000006" width="120" height="30" as="geometry" />
        </mxCell>
        <mxCell id="uyUoQ418wU7ILJamZXVb-30" value="&lt;font&gt;User was removed from project&lt;/font&gt;" style="shape=message;html=1;html=1;outlineConnect=0;labelPosition=center;verticalLabelPosition=bottom;align=center;verticalAlign=top;fillColor=#ffe6cc;strokeColor=#d79b00;fontFamily=Lucida Console;" parent="uyUoQ418wU7ILJamZXVb-22" vertex="1">
          <mxGeometry x="499.75" y="400.00000000000006" width="40" height="30" as="geometry" />
        </mxCell>
        <mxCell id="uyUoQ418wU7ILJamZXVb-28" value="" style="edgeStyle=orthogonalEdgeStyle;rounded=0;orthogonalLoop=1;jettySize=auto;html=1;fontFamily=Lucida Console;" parent="uyUoQ418wU7ILJamZXVb-22" source="uyUoQ418wU7ILJamZXVb-29" target="uyUoQ418wU7ILJamZXVb-30" edge="1">
          <mxGeometry relative="1" as="geometry" />
        </mxCell>
        <mxCell id="uyUoQ418wU7ILJamZXVb-31" value="&lt;font&gt;User was kicked from project&lt;/font&gt;" style="shape=message;html=1;html=1;outlineConnect=0;labelPosition=center;verticalLabelPosition=bottom;align=center;verticalAlign=top;fillColor=#ffe6cc;strokeColor=#d79b00;fontFamily=Lucida Console;" parent="uyUoQ418wU7ILJamZXVb-22" vertex="1">
          <mxGeometry x="649.75" y="330.00000000000006" width="40" height="30" as="geometry" />
        </mxCell>
        <mxCell id="uyUoQ418wU7ILJamZXVb-32" value="" style="edgeStyle=orthogonalEdgeStyle;rounded=0;orthogonalLoop=1;jettySize=auto;html=1;fillColor=#ffe6cc;strokeColor=#000000;fontFamily=Lucida Console;" parent="uyUoQ418wU7ILJamZXVb-22" source="uyUoQ418wU7ILJamZXVb-29" target="uyUoQ418wU7ILJamZXVb-31" edge="1">
          <mxGeometry relative="1" as="geometry">
            <mxPoint x="709.75" y="1265" as="sourcePoint" />
            <mxPoint x="929.75" y="1255" as="targetPoint" />
          </mxGeometry>
        </mxCell>
        <mxCell id="uyUoQ418wU7ILJamZXVb-33" value="" style="sketch=0;aspect=fixed;pointerEvents=1;shadow=0;html=1;labelPosition=center;verticalLabelPosition=bottom;verticalAlign=top;align=center;shape=mxgraph.azure.queue_generic;fillColor=#e1d5e7;strokeColor=#9673a6;fontFamily=Lucida Console;" parent="uyUoQ418wU7ILJamZXVb-22" vertex="1">
          <mxGeometry x="786.4200000000001" y="510.00000000000006" width="133.33" height="40" as="geometry" />
        </mxCell>
        <mxCell id="uyUoQ418wU7ILJamZXVb-34" value="" style="edgeStyle=orthogonalEdgeStyle;rounded=0;orthogonalLoop=1;jettySize=auto;html=1;fillColor=#ffe6cc;strokeColor=#d79b00;entryX=0;entryY=0.5;entryDx=0;entryDy=0;entryPerimeter=0;exitX=0.5;exitY=1;exitDx=0;exitDy=0;fontFamily=Lucida Console;" parent="uyUoQ418wU7ILJamZXVb-22" source="uyUoQ418wU7ILJamZXVb-30" target="uyUoQ418wU7ILJamZXVb-33" edge="1">
          <mxGeometry relative="1" as="geometry">
            <mxPoint x="519.75" y="605" as="targetPoint" />
          </mxGeometry>
        </mxCell>
        <mxCell id="uyUoQ418wU7ILJamZXVb-35" value="" style="endArrow=classic;html=1;rounded=0;exitX=1.002;exitY=0.435;exitDx=0;exitDy=0;exitPerimeter=0;entryX=0;entryY=0.5;entryDx=0;entryDy=0;edgeStyle=orthogonalEdgeStyle;fillColor=#ffe6cc;strokeColor=#d79b00;fontFamily=Lucida Console;" parent="uyUoQ418wU7ILJamZXVb-22" source="uyUoQ418wU7ILJamZXVb-33" target="uyUoQ418wU7ILJamZXVb-39" edge="1">
          <mxGeometry width="50" height="50" relative="1" as="geometry">
            <mxPoint x="719.75" y="500.00000000000006" as="sourcePoint" />
            <mxPoint x="769.75" y="450.00000000000006" as="targetPoint" />
          </mxGeometry>
        </mxCell>
        <mxCell id="uyUoQ418wU7ILJamZXVb-36" value="" style="endArrow=classic;html=1;rounded=0;exitX=1;exitY=0.5;exitDx=0;exitDy=0;entryX=0.002;entryY=0.272;entryDx=0;entryDy=0;fillColor=#ffe6cc;strokeColor=#d79b00;entryPerimeter=0;edgeStyle=orthogonalEdgeStyle;fontFamily=Lucida Console;" parent="uyUoQ418wU7ILJamZXVb-22" source="uyUoQ418wU7ILJamZXVb-31" target="uyUoQ418wU7ILJamZXVb-33" edge="1">
          <mxGeometry width="50" height="50" relative="1" as="geometry">
            <mxPoint x="639.75" y="410.00000000000006" as="sourcePoint" />
            <mxPoint x="689.75" y="360.00000000000006" as="targetPoint" />
            <Array as="points">
              <mxPoint x="759.75" y="345.00000000000006" />
              <mxPoint x="759.75" y="521" />
            </Array>
          </mxGeometry>
        </mxCell>
        <mxCell id="uyUoQ418wU7ILJamZXVb-37" value="" style="endArrow=classic;html=1;rounded=0;exitX=1.011;exitY=0.655;exitDx=0;exitDy=0;exitPerimeter=0;entryX=0;entryY=0.5;entryDx=0;entryDy=0;fillColor=#ffe6cc;strokeColor=#d79b00;edgeStyle=orthogonalEdgeStyle;fontFamily=Lucida Console;" parent="uyUoQ418wU7ILJamZXVb-22" source="uyUoQ418wU7ILJamZXVb-33" target="uyUoQ418wU7ILJamZXVb-41" edge="1">
          <mxGeometry width="50" height="50" relative="1" as="geometry">
            <mxPoint x="899.75" y="560" as="sourcePoint" />
            <mxPoint x="949.75" y="510.00000000000006" as="targetPoint" />
          </mxGeometry>
        </mxCell>
        <mxCell id="uyUoQ418wU7ILJamZXVb-38" value="Notofication service" style="swimlane;whiteSpace=wrap;html=1;fontFamily=Lucida Console;" parent="uyUoQ418wU7ILJamZXVb-22" vertex="1">
          <mxGeometry x="979.75" y="375.00000000000006" width="250" height="135" as="geometry" />
        </mxCell>
        <mxCell id="uyUoQ418wU7ILJamZXVb-39" value="Send notification to the who person was kicked" style="rounded=1;whiteSpace=wrap;html=1;fillColor=#d5e8d4;strokeColor=#82b366;fontStyle=0;fontFamily=Lucida Console;" parent="uyUoQ418wU7ILJamZXVb-38" vertex="1">
          <mxGeometry x="35" y="45" width="180" height="50" as="geometry" />
        </mxCell>
        <mxCell id="uyUoQ418wU7ILJamZXVb-40" value="Project event log service" style="swimlane;whiteSpace=wrap;html=1;fontFamily=Lucida Console;" parent="uyUoQ418wU7ILJamZXVb-22" vertex="1">
          <mxGeometry x="979.75" y="540" width="250" height="120" as="geometry" />
        </mxCell>
        <mxCell id="uyUoQ418wU7ILJamZXVb-41" value="Log the event in project log" style="rounded=1;whiteSpace=wrap;html=1;fillColor=#d5e8d4;strokeColor=#82b366;fontStyle=0;fontFamily=Lucida Console;" parent="uyUoQ418wU7ILJamZXVb-40" vertex="1">
          <mxGeometry x="35" y="60" width="180" height="30" as="geometry" />
        </mxCell>
        <mxCell id="-qR9p5dMgf5ARg4mVedY-32" value="Project membership service" style="swimlane;whiteSpace=wrap;html=1;fontFamily=Lucida Console;" vertex="1" parent="1">
          <mxGeometry x="980" y="95" width="960.06" height="405" as="geometry" />
        </mxCell>
        <mxCell id="-qR9p5dMgf5ARg4mVedY-12" value="Register invitation" style="rounded=1;whiteSpace=wrap;html=1;fillColor=#dae8fc;strokeColor=#6c8ebf;fontStyle=0;fontFamily=Lucida Console;" vertex="1" parent="-qR9p5dMgf5ARg4mVedY-32">
          <mxGeometry x="20.059999999999945" y="75" width="120" height="30" as="geometry" />
        </mxCell>
        <mxCell id="-qR9p5dMgf5ARg4mVedY-14" value="Create invitation for user" style="rounded=1;whiteSpace=wrap;html=1;fillColor=#dae8fc;strokeColor=#6c8ebf;fontStyle=0;fontFamily=Lucida Console;" vertex="1" parent="-qR9p5dMgf5ARg4mVedY-32">
          <mxGeometry x="230.06" y="70" width="120" height="40" as="geometry" />
        </mxCell>
        <mxCell id="-qR9p5dMgf5ARg4mVedY-8" value="" style="rounded=0;orthogonalLoop=1;jettySize=auto;html=1;fontFamily=Lucida Console;" edge="1" parent="-qR9p5dMgf5ARg4mVedY-32" source="-qR9p5dMgf5ARg4mVedY-12" target="-qR9p5dMgf5ARg4mVedY-14">
          <mxGeometry relative="1" as="geometry" />
        </mxCell>
        <mxCell id="-qR9p5dMgf5ARg4mVedY-9" value="" style="edgeStyle=orthogonalEdgeStyle;rounded=0;orthogonalLoop=1;jettySize=auto;html=1;fontFamily=Lucida Console;" edge="1" parent="-qR9p5dMgf5ARg4mVedY-32" source="-qR9p5dMgf5ARg4mVedY-12" target="-qR9p5dMgf5ARg4mVedY-14">
          <mxGeometry relative="1" as="geometry" />
        </mxCell>
        <mxCell id="-qR9p5dMgf5ARg4mVedY-10" value="SQL" style="edgeLabel;html=1;align=center;verticalAlign=middle;resizable=0;points=[];fontFamily=Lucida Console;" vertex="1" connectable="0" parent="-qR9p5dMgf5ARg4mVedY-9">
          <mxGeometry x="-0.2226" y="-3" relative="1" as="geometry">
            <mxPoint as="offset" />
          </mxGeometry>
        </mxCell>
        <mxCell id="-qR9p5dMgf5ARg4mVedY-27" value="Invite specific user" style="ellipse;whiteSpace=wrap;html=1;fillColor=#e1d5e7;strokeColor=#9673a6;fontFamily=Lucida Console;" vertex="1" parent="-qR9p5dMgf5ARg4mVedY-32">
          <mxGeometry x="20.059999999999945" y="-55" width="117.5" height="50" as="geometry" />
        </mxCell>
        <mxCell id="-qR9p5dMgf5ARg4mVedY-6" value="" style="rounded=0;orthogonalLoop=1;jettySize=auto;html=1;fontFamily=Lucida Console;exitX=0.5;exitY=1;exitDx=0;exitDy=0;" edge="1" parent="-qR9p5dMgf5ARg4mVedY-32" target="-qR9p5dMgf5ARg4mVedY-12" source="-qR9p5dMgf5ARg4mVedY-27">
          <mxGeometry relative="1" as="geometry">
            <mxPoint x="77.55999999999995" y="45" as="sourcePoint" />
          </mxGeometry>
        </mxCell>
        <mxCell id="-qR9p5dMgf5ARg4mVedY-7" value="Request" style="edgeLabel;html=1;align=center;verticalAlign=middle;resizable=0;points=[];fontFamily=Lucida Console;" vertex="1" connectable="0" parent="-qR9p5dMgf5ARg4mVedY-6">
          <mxGeometry x="-0.0733" y="1" relative="1" as="geometry">
            <mxPoint as="offset" />
          </mxGeometry>
        </mxCell>
        <mxCell id="-qR9p5dMgf5ARg4mVedY-35" value="Send invitation" style="rounded=1;whiteSpace=wrap;html=1;fillColor=#dae8fc;strokeColor=#6c8ebf;fontStyle=0;fontFamily=Lucida Console;" vertex="1" parent="-qR9p5dMgf5ARg4mVedY-32">
          <mxGeometry x="20.060000000000002" y="145" width="120" height="30" as="geometry" />
        </mxCell>
        <mxCell id="-qR9p5dMgf5ARg4mVedY-36" value="" style="edgeStyle=orthogonalEdgeStyle;rounded=0;orthogonalLoop=1;jettySize=auto;html=1;entryX=0.5;entryY=0;entryDx=0;entryDy=0;exitX=0.5;exitY=1;exitDx=0;exitDy=0;fontFamily=Lucida Console;" edge="1" parent="-qR9p5dMgf5ARg4mVedY-32" source="-qR9p5dMgf5ARg4mVedY-12" target="-qR9p5dMgf5ARg4mVedY-35">
          <mxGeometry relative="1" as="geometry">
            <mxPoint x="80.09999999999991" y="105" as="sourcePoint" />
            <mxPoint x="190.0999999999999" y="215" as="targetPoint" />
          </mxGeometry>
        </mxCell>
        <mxCell id="-qR9p5dMgf5ARg4mVedY-23" value="Add user membership for project" style="rounded=1;whiteSpace=wrap;html=1;fillColor=#f8cecc;strokeColor=#b85450;fontStyle=0;fontFamily=Lucida Console;" vertex="1" parent="-qR9p5dMgf5ARg4mVedY-32">
          <mxGeometry x="760.06" y="295" width="120" height="55" as="geometry" />
        </mxCell>
        <mxCell id="-qR9p5dMgf5ARg4mVedY-50" value="" style="edgeStyle=orthogonalEdgeStyle;rounded=0;orthogonalLoop=1;jettySize=auto;html=1;fontFamily=Lucida Console;" edge="1" parent="-qR9p5dMgf5ARg4mVedY-32" source="-qR9p5dMgf5ARg4mVedY-43" target="-qR9p5dMgf5ARg4mVedY-49">
          <mxGeometry relative="1" as="geometry" />
        </mxCell>
        <mxCell id="-qR9p5dMgf5ARg4mVedY-43" value="Update invitation" style="rounded=1;whiteSpace=wrap;html=1;fillColor=#dae8fc;strokeColor=#6c8ebf;fontStyle=0;fontFamily=Lucida Console;" vertex="1" parent="-qR9p5dMgf5ARg4mVedY-32">
          <mxGeometry x="590.06" y="115" width="120" height="30" as="geometry" />
        </mxCell>
        <mxCell id="-qR9p5dMgf5ARg4mVedY-46" value="Update invitation" style="rounded=1;whiteSpace=wrap;html=1;fillColor=#dae8fc;strokeColor=#6c8ebf;fontStyle=0;fontFamily=Lucida Console;" vertex="1" parent="-qR9p5dMgf5ARg4mVedY-32">
          <mxGeometry x="450.05999999999995" y="175" width="120" height="30" as="geometry" />
        </mxCell>
        <mxCell id="-qR9p5dMgf5ARg4mVedY-49" value="Set invitation rejected" style="rounded=1;whiteSpace=wrap;html=1;fillColor=#f8cecc;strokeColor=#b85450;fontStyle=0;fontFamily=Lucida Console;" vertex="1" parent="-qR9p5dMgf5ARg4mVedY-32">
          <mxGeometry x="760.06" y="115" width="120" height="30" as="geometry" />
        </mxCell>
        <mxCell id="-qR9p5dMgf5ARg4mVedY-54" value="Set invitation accepted" style="rounded=1;whiteSpace=wrap;html=1;fillColor=#dae8fc;strokeColor=#6c8ebf;fontStyle=0;fontFamily=Lucida Console;" vertex="1" parent="-qR9p5dMgf5ARg4mVedY-32">
          <mxGeometry x="760.06" y="175" width="120" height="30" as="geometry" />
        </mxCell>
        <mxCell id="-qR9p5dMgf5ARg4mVedY-55" value="" style="edgeStyle=orthogonalEdgeStyle;rounded=0;orthogonalLoop=1;jettySize=auto;html=1;exitX=1;exitY=0.5;exitDx=0;exitDy=0;entryX=0;entryY=0.5;entryDx=0;entryDy=0;fontFamily=Lucida Console;" edge="1" parent="-qR9p5dMgf5ARg4mVedY-32" source="-qR9p5dMgf5ARg4mVedY-46" target="-qR9p5dMgf5ARg4mVedY-54">
          <mxGeometry relative="1" as="geometry">
            <mxPoint x="720" y="140" as="sourcePoint" />
            <mxPoint x="770" y="140" as="targetPoint" />
          </mxGeometry>
        </mxCell>
        <mxCell id="-qR9p5dMgf5ARg4mVedY-24" value="" style="endArrow=classic;html=1;rounded=0;entryX=0.5;entryY=0;entryDx=0;entryDy=0;edgeStyle=orthogonalEdgeStyle;fillColor=#ffe6cc;strokeColor=#000000;fontFamily=Lucida Console;exitX=0.5;exitY=1;exitDx=0;exitDy=0;" edge="1" parent="-qR9p5dMgf5ARg4mVedY-32" source="-qR9p5dMgf5ARg4mVedY-54" target="-qR9p5dMgf5ARg4mVedY-23">
          <mxGeometry width="50" height="50" relative="1" as="geometry">
            <mxPoint x="480.05999999999995" y="255" as="sourcePoint" />
            <mxPoint x="290.02" y="395" as="targetPoint" />
            <Array as="points">
              <mxPoint x="820" y="265" />
              <mxPoint x="820" y="265" />
            </Array>
          </mxGeometry>
        </mxCell>
        <mxCell id="-qR9p5dMgf5ARg4mVedY-59" value="&lt;font&gt;User was added in project&lt;/font&gt;" style="shape=message;html=1;html=1;outlineConnect=0;labelPosition=center;verticalLabelPosition=bottom;align=center;verticalAlign=top;fillColor=#ffe6cc;strokeColor=#d79b00;fontFamily=Lucida Console;" vertex="1" parent="-qR9p5dMgf5ARg4mVedY-32">
          <mxGeometry x="910.06" y="307.5" width="40" height="30" as="geometry" />
        </mxCell>
        <mxCell id="-qR9p5dMgf5ARg4mVedY-60" value="" style="endArrow=classic;html=1;rounded=0;exitX=1;exitY=0.5;exitDx=0;exitDy=0;entryX=0;entryY=0.5;entryDx=0;entryDy=0;edgeStyle=orthogonalEdgeStyle;fontFamily=Lucida Console;" edge="1" parent="-qR9p5dMgf5ARg4mVedY-32" source="-qR9p5dMgf5ARg4mVedY-23" target="-qR9p5dMgf5ARg4mVedY-59">
          <mxGeometry width="50" height="50" relative="1" as="geometry">
            <mxPoint x="880.06" y="323" as="sourcePoint" />
            <mxPoint x="1009.06" y="195" as="targetPoint" />
            <Array as="points" />
          </mxGeometry>
        </mxCell>
        <mxCell id="-qR9p5dMgf5ARg4mVedY-61" value="&lt;font&gt;User rejected invitation&lt;/font&gt;" style="shape=message;html=1;html=1;outlineConnect=0;labelPosition=center;verticalLabelPosition=bottom;align=center;verticalAlign=top;fillColor=#ffe6cc;strokeColor=#d79b00;fontFamily=Lucida Console;" vertex="1" parent="-qR9p5dMgf5ARg4mVedY-32">
          <mxGeometry x="900.06" y="115" width="40" height="30" as="geometry" />
        </mxCell>
        <mxCell id="-qR9p5dMgf5ARg4mVedY-62" value="" style="endArrow=classic;html=1;rounded=0;exitX=1;exitY=0.5;exitDx=0;exitDy=0;entryX=0;entryY=0.377;entryDx=0;entryDy=0;entryPerimeter=0;edgeStyle=orthogonalEdgeStyle;fontFamily=Lucida Console;" edge="1" parent="-qR9p5dMgf5ARg4mVedY-32" source="-qR9p5dMgf5ARg4mVedY-49" target="-qR9p5dMgf5ARg4mVedY-61">
          <mxGeometry width="50" height="50" relative="1" as="geometry">
            <mxPoint x="880.06" y="130" as="sourcePoint" />
            <mxPoint x="1050.06" y="180" as="targetPoint" />
            <Array as="points" />
          </mxGeometry>
        </mxCell>
        <mxCell id="-qR9p5dMgf5ARg4mVedY-67" value="&lt;font&gt;User accepted invitation&lt;/font&gt;" style="shape=message;html=1;html=1;outlineConnect=0;labelPosition=center;verticalLabelPosition=bottom;align=center;verticalAlign=top;fillColor=#ffe6cc;strokeColor=#d79b00;fontFamily=Lucida Console;" vertex="1" parent="-qR9p5dMgf5ARg4mVedY-32">
          <mxGeometry x="910.06" y="175" width="40" height="30" as="geometry" />
        </mxCell>
        <mxCell id="-qR9p5dMgf5ARg4mVedY-68" value="" style="endArrow=classic;html=1;rounded=0;exitX=1;exitY=0.5;exitDx=0;exitDy=0;fontFamily=Lucida Console;" edge="1" parent="-qR9p5dMgf5ARg4mVedY-32" source="-qR9p5dMgf5ARg4mVedY-54" target="-qR9p5dMgf5ARg4mVedY-67">
          <mxGeometry width="50" height="50" relative="1" as="geometry">
            <mxPoint x="880.06" y="190" as="sourcePoint" />
            <mxPoint x="1050.06" y="185" as="targetPoint" />
          </mxGeometry>
        </mxCell>
        <mxCell id="-qR9p5dMgf5ARg4mVedY-83" value="&lt;font&gt;Invitation&lt;/font&gt;" style="shape=message;html=1;html=1;outlineConnect=0;labelPosition=center;verticalLabelPosition=bottom;align=center;verticalAlign=top;fillColor=#ffe6cc;strokeColor=#d79b00;fontFamily=Lucida Console;" vertex="1" parent="-qR9p5dMgf5ARg4mVedY-32">
          <mxGeometry x="60.059999999999945" y="255" width="40" height="30" as="geometry" />
        </mxCell>
        <mxCell id="-qR9p5dMgf5ARg4mVedY-84" value="" style="endArrow=classic;html=1;rounded=0;exitX=0.5;exitY=1;exitDx=0;exitDy=0;entryX=0.5;entryY=0;entryDx=0;entryDy=0;edgeStyle=orthogonalEdgeStyle;fontFamily=Lucida Console;" edge="1" parent="-qR9p5dMgf5ARg4mVedY-32" source="-qR9p5dMgf5ARg4mVedY-35" target="-qR9p5dMgf5ARg4mVedY-83">
          <mxGeometry width="50" height="50" relative="1" as="geometry">
            <mxPoint x="80" y="175" as="sourcePoint" />
            <mxPoint x="1049" y="205" as="targetPoint" />
            <Array as="points" />
          </mxGeometry>
        </mxCell>
        <mxCell id="-qR9p5dMgf5ARg4mVedY-39" value="Invited user" style="swimlane;whiteSpace=wrap;html=1;fillColor=#d5e8d4;strokeColor=#82b366;fontFamily=Lucida Console;" vertex="1" parent="1">
          <mxGeometry x="1390.06" y="-150" width="320" height="230" as="geometry" />
        </mxCell>
        <mxCell id="-qR9p5dMgf5ARg4mVedY-19" value="Reject invitation" style="rounded=1;whiteSpace=wrap;html=1;fillColor=#dae8fc;strokeColor=#6c8ebf;fontStyle=0;fontFamily=Lucida Console;" vertex="1" parent="-qR9p5dMgf5ARg4mVedY-39">
          <mxGeometry x="180" y="195" width="120" height="30" as="geometry" />
        </mxCell>
        <mxCell id="-qR9p5dMgf5ARg4mVedY-20" value="" style="edgeStyle=orthogonalEdgeStyle;rounded=0;orthogonalLoop=1;jettySize=auto;html=1;exitX=0.5;exitY=1;exitDx=0;exitDy=0;fontFamily=Lucida Console;" edge="1" parent="-qR9p5dMgf5ARg4mVedY-39" source="-qR9p5dMgf5ARg4mVedY-37" target="-qR9p5dMgf5ARg4mVedY-19">
          <mxGeometry relative="1" as="geometry">
            <mxPoint x="49.960000000000036" y="204.99999999999977" as="sourcePoint" />
            <mxPoint x="-40.039999999999964" y="255" as="targetPoint" />
          </mxGeometry>
        </mxCell>
        <mxCell id="-qR9p5dMgf5ARg4mVedY-17" value="Accept invitation" style="rounded=1;whiteSpace=wrap;html=1;fillColor=#dae8fc;strokeColor=#6c8ebf;fontStyle=0;fontFamily=Lucida Console;" vertex="1" parent="-qR9p5dMgf5ARg4mVedY-39">
          <mxGeometry x="40" y="195" width="120" height="30" as="geometry" />
        </mxCell>
        <mxCell id="-qR9p5dMgf5ARg4mVedY-37" value="Receive invitation" style="rounded=1;whiteSpace=wrap;html=1;fillColor=#dae8fc;strokeColor=#6c8ebf;fontStyle=0;fontFamily=Lucida Console;" vertex="1" parent="-qR9p5dMgf5ARg4mVedY-39">
          <mxGeometry x="110" y="45" width="120" height="30" as="geometry" />
        </mxCell>
        <mxCell id="-qR9p5dMgf5ARg4mVedY-11" value="" style="edgeStyle=orthogonalEdgeStyle;rounded=0;orthogonalLoop=1;jettySize=auto;html=1;entryX=0.5;entryY=0;entryDx=0;entryDy=0;fontFamily=Lucida Console;exitX=0.5;exitY=1;exitDx=0;exitDy=0;" edge="1" parent="-qR9p5dMgf5ARg4mVedY-39" source="-qR9p5dMgf5ARg4mVedY-37" target="-qR9p5dMgf5ARg4mVedY-17">
          <mxGeometry relative="1" as="geometry" />
        </mxCell>
        <mxCell id="-qR9p5dMgf5ARg4mVedY-44" value="" style="endArrow=classic;html=1;rounded=0;exitX=0.75;exitY=1;exitDx=0;exitDy=0;entryX=0.5;entryY=0;entryDx=0;entryDy=0;fontFamily=Lucida Console;" edge="1" parent="1" source="-qR9p5dMgf5ARg4mVedY-39" target="-qR9p5dMgf5ARg4mVedY-43">
          <mxGeometry width="50" height="50" relative="1" as="geometry">
            <mxPoint x="1530.06" y="110" as="sourcePoint" />
            <mxPoint x="1580.06" y="60" as="targetPoint" />
          </mxGeometry>
        </mxCell>
        <mxCell id="-qR9p5dMgf5ARg4mVedY-45" value="Request" style="edgeLabel;html=1;align=center;verticalAlign=middle;resizable=0;points=[];fontFamily=Lucida Console;" vertex="1" connectable="0" parent="-qR9p5dMgf5ARg4mVedY-44">
          <mxGeometry relative="1" as="geometry">
            <mxPoint as="offset" />
          </mxGeometry>
        </mxCell>
        <mxCell id="-qR9p5dMgf5ARg4mVedY-47" value="" style="endArrow=classic;html=1;rounded=0;exitX=0.5;exitY=1;exitDx=0;exitDy=0;entryX=0.5;entryY=0;entryDx=0;entryDy=0;fontFamily=Lucida Console;" edge="1" parent="1" source="-qR9p5dMgf5ARg4mVedY-17" target="-qR9p5dMgf5ARg4mVedY-46">
          <mxGeometry width="50" height="50" relative="1" as="geometry">
            <mxPoint x="1550.06" y="80" as="sourcePoint" />
            <mxPoint x="1550.06" y="210" as="targetPoint" />
          </mxGeometry>
        </mxCell>
        <mxCell id="-qR9p5dMgf5ARg4mVedY-48" value="Request" style="edgeLabel;html=1;align=center;verticalAlign=middle;resizable=0;points=[];fontFamily=Lucida Console;" vertex="1" connectable="0" parent="-qR9p5dMgf5ARg4mVedY-47">
          <mxGeometry relative="1" as="geometry">
            <mxPoint as="offset" />
          </mxGeometry>
        </mxCell>
        <mxCell id="-qR9p5dMgf5ARg4mVedY-56" value="" style="sketch=0;aspect=fixed;pointerEvents=1;shadow=0;html=1;labelPosition=center;verticalLabelPosition=bottom;verticalAlign=top;align=center;shape=mxgraph.azure.queue_generic;fillColor=#e1d5e7;strokeColor=#9673a6;fontFamily=Lucida Console;" vertex="1" parent="1">
          <mxGeometry x="2030.06" y="265" width="133.33" height="40" as="geometry" />
        </mxCell>
        <mxCell id="-qR9p5dMgf5ARg4mVedY-57" value="" style="endArrow=classic;html=1;rounded=0;exitX=1;exitY=0.5;exitDx=0;exitDy=0;entryX=-0.008;entryY=0.698;entryDx=0;entryDy=0;entryPerimeter=0;edgeStyle=orthogonalEdgeStyle;fontFamily=Lucida Console;" edge="1" parent="1" source="-qR9p5dMgf5ARg4mVedY-59" target="-qR9p5dMgf5ARg4mVedY-56">
          <mxGeometry width="50" height="50" relative="1" as="geometry">
            <mxPoint x="1970.06" y="350" as="sourcePoint" />
            <mxPoint x="2020.06" y="300" as="targetPoint" />
            <Array as="points">
              <mxPoint x="1980.06" y="417" />
              <mxPoint x="1980.06" y="293" />
            </Array>
          </mxGeometry>
        </mxCell>
        <mxCell id="-qR9p5dMgf5ARg4mVedY-58" value="" style="endArrow=classic;html=1;rounded=0;exitX=1;exitY=0.5;exitDx=0;exitDy=0;edgeStyle=orthogonalEdgeStyle;fontFamily=Lucida Console;" edge="1" parent="1" source="-qR9p5dMgf5ARg4mVedY-61">
          <mxGeometry width="50" height="50" relative="1" as="geometry">
            <mxPoint x="1870.06" y="428" as="sourcePoint" />
            <mxPoint x="2030.06" y="275" as="targetPoint" />
            <Array as="points">
              <mxPoint x="1980.06" y="225" />
              <mxPoint x="1980.06" y="275" />
            </Array>
          </mxGeometry>
        </mxCell>
        <mxCell id="-qR9p5dMgf5ARg4mVedY-64" value="" style="endArrow=classic;html=1;rounded=0;exitX=1;exitY=0.5;exitDx=0;exitDy=0;entryX=0;entryY=0.5;entryDx=0;entryDy=0;edgeStyle=orthogonalEdgeStyle;fillColor=#ffe6cc;strokeColor=#d79b00;fontFamily=Lucida Console;" edge="1" parent="1" source="-qR9p5dMgf5ARg4mVedY-63" target="-qR9p5dMgf5ARg4mVedY-21">
          <mxGeometry width="50" height="50" relative="1" as="geometry">
            <mxPoint x="2270.0000000000005" y="225.30000000000018" as="sourcePoint" />
            <mxPoint x="2110" y="270" as="targetPoint" />
          </mxGeometry>
        </mxCell>
        <mxCell id="-qR9p5dMgf5ARg4mVedY-65" value="" style="endArrow=classic;html=1;rounded=0;exitX=1.02;exitY=0.275;exitDx=0;exitDy=0;exitPerimeter=0;entryX=0;entryY=0.5;entryDx=0;entryDy=0;edgeStyle=orthogonalEdgeStyle;fillColor=#ffe6cc;strokeColor=#d79b00;fontFamily=Lucida Console;" edge="1" parent="1" source="-qR9p5dMgf5ARg4mVedY-56" target="-qR9p5dMgf5ARg4mVedY-63">
          <mxGeometry width="50" height="50" relative="1" as="geometry">
            <mxPoint x="2163.06" y="280" as="sourcePoint" />
            <mxPoint x="2260.06" y="200" as="targetPoint" />
          </mxGeometry>
        </mxCell>
        <mxCell id="-qR9p5dMgf5ARg4mVedY-63" value="&lt;font&gt;User rejected invitation&lt;/font&gt;" style="shape=message;html=1;html=1;outlineConnect=0;labelPosition=center;verticalLabelPosition=bottom;align=center;verticalAlign=top;fillColor=#ffe6cc;strokeColor=#d79b00;fontFamily=Lucida Console;" vertex="1" parent="1">
          <mxGeometry x="2210" y="210" width="40" height="30" as="geometry" />
        </mxCell>
        <mxCell id="-qR9p5dMgf5ARg4mVedY-66" value="" style="endArrow=classic;html=1;rounded=0;exitX=1;exitY=0.5;exitDx=0;exitDy=0;entryX=0;entryY=0.5;entryDx=0;entryDy=0;entryPerimeter=0;fontFamily=Lucida Console;" edge="1" parent="1" source="-qR9p5dMgf5ARg4mVedY-67" target="-qR9p5dMgf5ARg4mVedY-56">
          <mxGeometry width="50" height="50" relative="1" as="geometry">
            <mxPoint x="1980.06" y="330" as="sourcePoint" />
            <mxPoint x="2030.06" y="280" as="targetPoint" />
          </mxGeometry>
        </mxCell>
        <mxCell id="-qR9p5dMgf5ARg4mVedY-70" value="" style="endArrow=classic;html=1;rounded=0;exitX=1;exitY=0.5;exitDx=0;exitDy=0;entryX=0;entryY=0.5;entryDx=0;entryDy=0;edgeStyle=orthogonalEdgeStyle;fillColor=#ffe6cc;strokeColor=#d79b00;fontFamily=Lucida Console;" edge="1" parent="1" source="-qR9p5dMgf5ARg4mVedY-76" target="-qR9p5dMgf5ARg4mVedY-22">
          <mxGeometry width="50" height="50" relative="1" as="geometry">
            <mxPoint x="2270.0000000000005" y="285.3000000000002" as="sourcePoint" />
            <mxPoint x="2210" y="290" as="targetPoint" />
          </mxGeometry>
        </mxCell>
        <mxCell id="-qR9p5dMgf5ARg4mVedY-71" value="" style="endArrow=classic;html=1;rounded=0;exitX=0.5;exitY=1;exitDx=0;exitDy=0;entryX=0;entryY=0.5;entryDx=0;entryDy=0;edgeStyle=orthogonalEdgeStyle;fillColor=#ffe6cc;strokeColor=#d79b00;fontFamily=Lucida Console;" edge="1" parent="1" source="-qR9p5dMgf5ARg4mVedY-78" target="-qR9p5dMgf5ARg4mVedY-25">
          <mxGeometry width="50" height="50" relative="1" as="geometry">
            <mxPoint x="2120.06" y="340" as="sourcePoint" />
            <mxPoint x="2170.06" y="290" as="targetPoint" />
            <Array as="points">
              <mxPoint x="2190" y="530" />
            </Array>
          </mxGeometry>
        </mxCell>
        <mxCell id="-qR9p5dMgf5ARg4mVedY-72" value="Notification service" style="swimlane;whiteSpace=wrap;html=1;fontFamily=Lucida Console;" vertex="1" parent="1">
          <mxGeometry x="2280" y="120" width="250" height="300" as="geometry" />
        </mxCell>
        <mxCell id="-qR9p5dMgf5ARg4mVedY-21" value="Send notification that invitation was declined to the person who invited" style="rounded=1;whiteSpace=wrap;html=1;fillColor=#d5e8d4;strokeColor=#82b366;fontStyle=0;fontFamily=Lucida Console;" vertex="1" parent="-qR9p5dMgf5ARg4mVedY-72">
          <mxGeometry x="50" y="45" width="150" height="60" as="geometry" />
        </mxCell>
        <mxCell id="-qR9p5dMgf5ARg4mVedY-22" value="Send notification that invintation was accepted to the person who invited" style="rounded=1;whiteSpace=wrap;html=1;fillColor=#d5e8d4;strokeColor=#82b366;fontStyle=0;fontFamily=Lucida Console;" vertex="1" parent="-qR9p5dMgf5ARg4mVedY-72">
          <mxGeometry x="50" y="135" width="150" height="60" as="geometry" />
        </mxCell>
        <mxCell id="-qR9p5dMgf5ARg4mVedY-88" value="Send invintation notification to the who person was invited" style="rounded=1;whiteSpace=wrap;html=1;fillColor=#d5e8d4;strokeColor=#82b366;fontStyle=0;fontFamily=Lucida Console;" vertex="1" parent="-qR9p5dMgf5ARg4mVedY-72">
          <mxGeometry x="35" y="220" width="180" height="50" as="geometry" />
        </mxCell>
        <mxCell id="-qR9p5dMgf5ARg4mVedY-74" value="Project event log service" style="swimlane;whiteSpace=wrap;html=1;fontFamily=Lucida Console;" vertex="1" parent="1">
          <mxGeometry x="2280" y="460" width="250" height="120" as="geometry" />
        </mxCell>
        <mxCell id="-qR9p5dMgf5ARg4mVedY-25" value="Log the event in project log" style="rounded=1;whiteSpace=wrap;html=1;fillColor=#d5e8d4;strokeColor=#82b366;fontStyle=0;fontFamily=Lucida Console;" vertex="1" parent="-qR9p5dMgf5ARg4mVedY-74">
          <mxGeometry x="40" y="50" width="180" height="40" as="geometry" />
        </mxCell>
        <mxCell id="-qR9p5dMgf5ARg4mVedY-77" value="" style="endArrow=classic;html=1;rounded=0;exitX=1;exitY=0.51;exitDx=0;exitDy=0;exitPerimeter=0;entryX=0;entryY=0.5;entryDx=0;entryDy=0;edgeStyle=orthogonalEdgeStyle;fillColor=#ffe6cc;strokeColor=#d79b00;fontFamily=Lucida Console;" edge="1" parent="1" source="-qR9p5dMgf5ARg4mVedY-56" target="-qR9p5dMgf5ARg4mVedY-76">
          <mxGeometry width="50" height="50" relative="1" as="geometry">
            <mxPoint x="2163.06" y="285" as="sourcePoint" />
            <mxPoint x="2295.06" y="330" as="targetPoint" />
          </mxGeometry>
        </mxCell>
        <mxCell id="-qR9p5dMgf5ARg4mVedY-76" value="&lt;font&gt;User accepted invitation&lt;/font&gt;" style="shape=message;html=1;html=1;outlineConnect=0;labelPosition=center;verticalLabelPosition=bottom;align=center;verticalAlign=top;fillColor=#ffe6cc;strokeColor=#d79b00;fontFamily=Lucida Console;" vertex="1" parent="1">
          <mxGeometry x="2210" y="270" width="40" height="30" as="geometry" />
        </mxCell>
        <mxCell id="-qR9p5dMgf5ARg4mVedY-79" value="" style="endArrow=classic;html=1;rounded=0;entryX=0.5;entryY=0;entryDx=0;entryDy=0;edgeStyle=orthogonalEdgeStyle;fillColor=#ffe6cc;strokeColor=#d79b00;fontFamily=Lucida Console;" edge="1" parent="1" target="-qR9p5dMgf5ARg4mVedY-78">
          <mxGeometry width="50" height="50" relative="1" as="geometry">
            <mxPoint x="2160" y="310" as="sourcePoint" />
            <mxPoint x="2255.06" y="450" as="targetPoint" />
          </mxGeometry>
        </mxCell>
        <mxCell id="-qR9p5dMgf5ARg4mVedY-78" value="&lt;font&gt;User was added in project&lt;/font&gt;" style="shape=message;html=1;html=1;outlineConnect=0;labelPosition=center;verticalLabelPosition=bottom;align=center;verticalAlign=top;fillColor=#ffe6cc;strokeColor=#d79b00;fontFamily=Lucida Console;" vertex="1" parent="1">
          <mxGeometry x="2170" y="450" width="40" height="30" as="geometry" />
        </mxCell>
        <mxCell id="-qR9p5dMgf5ARg4mVedY-82" value="" style="endArrow=classic;html=1;rounded=0;exitX=0.5;exitY=1;exitDx=0;exitDy=0;entryX=-0.008;entryY=0.882;entryDx=0;entryDy=0;entryPerimeter=0;edgeStyle=orthogonalEdgeStyle;fillColor=#ffe6cc;strokeColor=#000000;fontFamily=Lucida Console;" edge="1" parent="1" source="-qR9p5dMgf5ARg4mVedY-83" target="-qR9p5dMgf5ARg4mVedY-56">
          <mxGeometry width="50" height="50" relative="1" as="geometry">
            <mxPoint x="1480" y="200" as="sourcePoint" />
            <mxPoint x="1530" y="150" as="targetPoint" />
            <Array as="points">
              <mxPoint x="1060" y="470" />
              <mxPoint x="2000" y="470" />
              <mxPoint x="2000" y="300" />
            </Array>
          </mxGeometry>
        </mxCell>
        <mxCell id="-qR9p5dMgf5ARg4mVedY-86" value="" style="edgeStyle=orthogonalEdgeStyle;rounded=0;orthogonalLoop=1;jettySize=auto;html=1;entryX=0.5;entryY=0;entryDx=0;entryDy=0;exitX=1;exitY=0.5;exitDx=0;exitDy=0;fontFamily=Lucida Console;fillColor=#ffe6cc;strokeColor=#d79b00;" edge="1" parent="1" source="-qR9p5dMgf5ARg4mVedY-88" target="-qR9p5dMgf5ARg4mVedY-85">
          <mxGeometry relative="1" as="geometry">
            <mxPoint x="2151" y="265" as="sourcePoint" />
            <mxPoint x="1560" y="-265" as="targetPoint" />
            <Array as="points">
              <mxPoint x="2580" y="365" />
              <mxPoint x="2580" y="-250" />
              <mxPoint x="1560" y="-250" />
            </Array>
          </mxGeometry>
        </mxCell>
        <mxCell id="-qR9p5dMgf5ARg4mVedY-85" value="&lt;font&gt;Invitation&lt;/font&gt;" style="shape=message;html=1;html=1;outlineConnect=0;labelPosition=center;verticalLabelPosition=bottom;align=center;verticalAlign=top;fillColor=#ffe6cc;strokeColor=#d79b00;fontFamily=Lucida Console;" vertex="1" parent="1">
          <mxGeometry x="1540.06" y="-210" width="40" height="30" as="geometry" />
        </mxCell>
        <mxCell id="-qR9p5dMgf5ARg4mVedY-87" value="" style="endArrow=classic;html=1;rounded=0;edgeStyle=orthogonalEdgeStyle;fillColor=#ffe6cc;strokeColor=#d79b00;entryX=0;entryY=0.5;entryDx=0;entryDy=0;exitX=1;exitY=0.5;exitDx=0;exitDy=0;fontFamily=Lucida Console;" edge="1" parent="1" source="-qR9p5dMgf5ARg4mVedY-89" target="-qR9p5dMgf5ARg4mVedY-88">
          <mxGeometry width="50" height="50" relative="1" as="geometry">
            <mxPoint x="2164" y="310" as="sourcePoint" />
            <mxPoint x="2280" y="540" as="targetPoint" />
            <Array as="points" />
          </mxGeometry>
        </mxCell>
        <mxCell id="-qR9p5dMgf5ARg4mVedY-90" value="" style="endArrow=classic;html=1;rounded=0;edgeStyle=orthogonalEdgeStyle;fillColor=#ffe6cc;strokeColor=#d79b00;entryX=0;entryY=0.5;entryDx=0;entryDy=0;exitX=1.003;exitY=0.95;exitDx=0;exitDy=0;exitPerimeter=0;fontFamily=Lucida Console;" edge="1" parent="1" source="-qR9p5dMgf5ARg4mVedY-56" target="-qR9p5dMgf5ARg4mVedY-89">
          <mxGeometry width="50" height="50" relative="1" as="geometry">
            <mxPoint x="2164" y="303" as="sourcePoint" />
            <mxPoint x="2315" y="365" as="targetPoint" />
            <Array as="points">
              <mxPoint x="2200" y="303" />
              <mxPoint x="2200" y="365" />
            </Array>
          </mxGeometry>
        </mxCell>
        <mxCell id="-qR9p5dMgf5ARg4mVedY-89" value="&lt;font&gt;Invitation&lt;/font&gt;" style="shape=message;html=1;html=1;outlineConnect=0;labelPosition=center;verticalLabelPosition=bottom;align=center;verticalAlign=top;fillColor=#ffe6cc;strokeColor=#d79b00;fontFamily=Lucida Console;" vertex="1" parent="1">
          <mxGeometry x="2210" y="350" width="40" height="30" as="geometry" />
        </mxCell>
        <mxCell id="jv0xiTuXP7Q5Xd7sCUJV-19" value="Make participation request" style="ellipse;whiteSpace=wrap;html=1;fillColor=#e1d5e7;strokeColor=#9673a6;fontFamily=Lucida Console;" vertex="1" parent="1">
          <mxGeometry x="861.25" y="840" width="117.5" height="50" as="geometry" />
        </mxCell>
        <mxCell id="jv0xiTuXP7Q5Xd7sCUJV-23" value="" style="edgeStyle=orthogonalEdgeStyle;rounded=0;orthogonalLoop=1;jettySize=auto;html=1;fillColor=#ffe6cc;strokeColor=#d79b00;entryX=0;entryY=0.5;entryDx=0;entryDy=0;fontFamily=Lucida Console;exitX=0.5;exitY=1;exitDx=0;exitDy=0;" edge="1" parent="1" source="y2ZhOVEjS_DB00s_sJJf-32" target="y2ZhOVEjS_DB00s_sJJf-12">
          <mxGeometry relative="1" as="geometry">
            <Array as="points">
              <mxPoint x="1993.33" y="1490" />
            </Array>
            <mxPoint x="1675.83" y="1475" as="sourcePoint" />
            <mxPoint x="2073.71" y="1347.52" as="targetPoint" />
          </mxGeometry>
        </mxCell>
        <mxCell id="jv0xiTuXP7Q5Xd7sCUJV-31" value="Project membership service" style="swimlane;whiteSpace=wrap;html=1;fontFamily=Lucida Console;" vertex="1" parent="1">
          <mxGeometry x="840" y="990" width="1010" height="620" as="geometry" />
        </mxCell>
        <mxCell id="jv0xiTuXP7Q5Xd7sCUJV-45" value="" style="edgeStyle=orthogonalEdgeStyle;rounded=0;orthogonalLoop=1;jettySize=auto;html=1;fontFamily=Lucida Console;" edge="1" parent="jv0xiTuXP7Q5Xd7sCUJV-31" source="jv0xiTuXP7Q5Xd7sCUJV-46" target="jv0xiTuXP7Q5Xd7sCUJV-44">
          <mxGeometry relative="1" as="geometry" />
        </mxCell>
        <mxCell id="y2ZhOVEjS_DB00s_sJJf-2" value="No, it&#39;s private" style="edgeLabel;html=1;align=center;verticalAlign=middle;resizable=0;points=[];fontFamily=Lucida Console;" vertex="1" connectable="0" parent="jv0xiTuXP7Q5Xd7sCUJV-45">
          <mxGeometry x="-0.0945" y="-1" relative="1" as="geometry">
            <mxPoint as="offset" />
          </mxGeometry>
        </mxCell>
        <mxCell id="jv0xiTuXP7Q5Xd7sCUJV-7" value="Register participation request" style="rounded=1;whiteSpace=wrap;html=1;fillColor=#dae8fc;strokeColor=#6c8ebf;fontStyle=0;fontFamily=Lucida Console;" vertex="1" parent="jv0xiTuXP7Q5Xd7sCUJV-31">
          <mxGeometry x="20" y="160" width="120" height="50" as="geometry" />
        </mxCell>
        <mxCell id="jv0xiTuXP7Q5Xd7sCUJV-21" value="Create participation request" style="rounded=1;whiteSpace=wrap;html=1;fillColor=#dae8fc;strokeColor=#6c8ebf;fontStyle=0;fontFamily=Lucida Console;" vertex="1" parent="jv0xiTuXP7Q5Xd7sCUJV-31">
          <mxGeometry x="219.99999999999994" y="160" width="120" height="50" as="geometry" />
        </mxCell>
        <mxCell id="jv0xiTuXP7Q5Xd7sCUJV-4" value="" style="edgeStyle=orthogonalEdgeStyle;rounded=0;orthogonalLoop=1;jettySize=auto;html=1;fontFamily=Lucida Console;" edge="1" parent="jv0xiTuXP7Q5Xd7sCUJV-31" source="jv0xiTuXP7Q5Xd7sCUJV-7" target="jv0xiTuXP7Q5Xd7sCUJV-21">
          <mxGeometry relative="1" as="geometry" />
        </mxCell>
        <mxCell id="jv0xiTuXP7Q5Xd7sCUJV-5" value="SQL" style="edgeLabel;html=1;align=center;verticalAlign=middle;resizable=0;points=[];fontFamily=Lucida Console;" vertex="1" connectable="0" parent="jv0xiTuXP7Q5Xd7sCUJV-4">
          <mxGeometry x="-0.1313" y="1" relative="1" as="geometry">
            <mxPoint as="offset" />
          </mxGeometry>
        </mxCell>
        <mxCell id="jv0xiTuXP7Q5Xd7sCUJV-44" value="Set request on review" style="rounded=1;whiteSpace=wrap;html=1;fillColor=#dae8fc;strokeColor=#6c8ebf;fontStyle=0;fontFamily=Lucida Console;" vertex="1" parent="jv0xiTuXP7Q5Xd7sCUJV-31">
          <mxGeometry x="20" y="425" width="120" height="50" as="geometry" />
        </mxCell>
        <mxCell id="y2ZhOVEjS_DB00s_sJJf-1" value="" style="edgeStyle=orthogonalEdgeStyle;rounded=0;orthogonalLoop=1;jettySize=auto;html=1;fontFamily=Lucida Console;" edge="1" parent="jv0xiTuXP7Q5Xd7sCUJV-31" source="jv0xiTuXP7Q5Xd7sCUJV-7" target="jv0xiTuXP7Q5Xd7sCUJV-46">
          <mxGeometry relative="1" as="geometry">
            <mxPoint x="1060" y="980" as="sourcePoint" />
            <mxPoint x="1060" y="1125" as="targetPoint" />
          </mxGeometry>
        </mxCell>
        <mxCell id="y2ZhOVEjS_DB00s_sJJf-9" value="" style="edgeStyle=orthogonalEdgeStyle;rounded=0;orthogonalLoop=1;jettySize=auto;html=1;entryX=0;entryY=0.5;entryDx=0;entryDy=0;fontFamily=Lucida Console;" edge="1" parent="jv0xiTuXP7Q5Xd7sCUJV-31" source="jv0xiTuXP7Q5Xd7sCUJV-46" target="y2ZhOVEjS_DB00s_sJJf-10">
          <mxGeometry relative="1" as="geometry">
            <mxPoint x="180" y="315" as="targetPoint" />
          </mxGeometry>
        </mxCell>
        <mxCell id="y2ZhOVEjS_DB00s_sJJf-66" value="Yes" style="edgeLabel;html=1;align=center;verticalAlign=middle;resizable=0;points=[];fontFamily=Lucida Console;" vertex="1" connectable="0" parent="y2ZhOVEjS_DB00s_sJJf-9">
          <mxGeometry x="-0.7574" y="-4" relative="1" as="geometry">
            <mxPoint x="3" y="-4" as="offset" />
          </mxGeometry>
        </mxCell>
        <mxCell id="jv0xiTuXP7Q5Xd7sCUJV-46" value="Does the project have FFA access type?" style="rhombus;whiteSpace=wrap;html=1;fillColor=#dae8fc;strokeColor=#6c8ebf;fontFamily=Lucida Console;" vertex="1" parent="jv0xiTuXP7Q5Xd7sCUJV-31">
          <mxGeometry x="12.5" y="265" width="135" height="70" as="geometry" />
        </mxCell>
        <mxCell id="y2ZhOVEjS_DB00s_sJJf-23" value="" style="edgeStyle=orthogonalEdgeStyle;rounded=0;orthogonalLoop=1;jettySize=auto;html=1;fontFamily=Lucida Console;" edge="1" parent="jv0xiTuXP7Q5Xd7sCUJV-31" source="y2ZhOVEjS_DB00s_sJJf-10" target="y2ZhOVEjS_DB00s_sJJf-22">
          <mxGeometry relative="1" as="geometry" />
        </mxCell>
        <mxCell id="y2ZhOVEjS_DB00s_sJJf-10" value="Add user membership for project" style="rounded=1;whiteSpace=wrap;html=1;fillColor=#f8cecc;strokeColor=#b85450;fontStyle=0;fontFamily=Lucida Console;" vertex="1" parent="jv0xiTuXP7Q5Xd7sCUJV-31">
          <mxGeometry x="560" y="380" width="120" height="55" as="geometry" />
        </mxCell>
        <mxCell id="y2ZhOVEjS_DB00s_sJJf-13" value="&lt;font&gt;New request on review&lt;/font&gt;" style="shape=message;html=1;html=1;outlineConnect=0;labelPosition=center;verticalLabelPosition=bottom;align=center;verticalAlign=top;fillColor=#ffe6cc;strokeColor=#d79b00;fontFamily=Lucida Console;" vertex="1" parent="jv0xiTuXP7Q5Xd7sCUJV-31">
          <mxGeometry x="170" y="495" width="40" height="30" as="geometry" />
        </mxCell>
        <mxCell id="y2ZhOVEjS_DB00s_sJJf-14" value="" style="endArrow=classic;html=1;rounded=0;exitX=0.5;exitY=1;exitDx=0;exitDy=0;entryX=0;entryY=0.5;entryDx=0;entryDy=0;edgeStyle=orthogonalEdgeStyle;fontFamily=Lucida Console;" edge="1" parent="jv0xiTuXP7Q5Xd7sCUJV-31" source="jv0xiTuXP7Q5Xd7sCUJV-44" target="y2ZhOVEjS_DB00s_sJJf-13">
          <mxGeometry width="50" height="50" relative="1" as="geometry">
            <mxPoint x="260" y="475" as="sourcePoint" />
            <mxPoint x="310" y="425" as="targetPoint" />
          </mxGeometry>
        </mxCell>
        <mxCell id="y2ZhOVEjS_DB00s_sJJf-19" value="" style="edgeStyle=orthogonalEdgeStyle;rounded=0;orthogonalLoop=1;jettySize=auto;html=1;fontFamily=Lucida Console;" edge="1" parent="jv0xiTuXP7Q5Xd7sCUJV-31" source="y2ZhOVEjS_DB00s_sJJf-15" target="y2ZhOVEjS_DB00s_sJJf-18">
          <mxGeometry relative="1" as="geometry" />
        </mxCell>
        <mxCell id="y2ZhOVEjS_DB00s_sJJf-20" value="No" style="edgeLabel;html=1;align=center;verticalAlign=middle;resizable=0;points=[];fontFamily=Lucida Console;" vertex="1" connectable="0" parent="y2ZhOVEjS_DB00s_sJJf-19">
          <mxGeometry x="-0.1721" relative="1" as="geometry">
            <mxPoint as="offset" />
          </mxGeometry>
        </mxCell>
        <mxCell id="y2ZhOVEjS_DB00s_sJJf-15" value="Is the project seeking people?" style="rhombus;whiteSpace=wrap;html=1;fillColor=#dae8fc;strokeColor=#6c8ebf;fontFamily=Lucida Console;" vertex="1" parent="jv0xiTuXP7Q5Xd7sCUJV-31">
          <mxGeometry x="12.5" y="40" width="135" height="70" as="geometry" />
        </mxCell>
        <mxCell id="jv0xiTuXP7Q5Xd7sCUJV-17" value="" style="edgeStyle=orthogonalEdgeStyle;rounded=0;orthogonalLoop=1;jettySize=auto;html=1;fontFamily=Lucida Console;" edge="1" parent="jv0xiTuXP7Q5Xd7sCUJV-31" source="y2ZhOVEjS_DB00s_sJJf-15" target="jv0xiTuXP7Q5Xd7sCUJV-7">
          <mxGeometry relative="1" as="geometry" />
        </mxCell>
        <mxCell id="y2ZhOVEjS_DB00s_sJJf-21" value="Yes" style="edgeLabel;html=1;align=center;verticalAlign=middle;resizable=0;points=[];fontFamily=Lucida Console;" vertex="1" connectable="0" parent="jv0xiTuXP7Q5Xd7sCUJV-17">
          <mxGeometry x="-0.3641" relative="1" as="geometry">
            <mxPoint as="offset" />
          </mxGeometry>
        </mxCell>
        <mxCell id="y2ZhOVEjS_DB00s_sJJf-18" value="Decline request" style="rounded=1;whiteSpace=wrap;html=1;fillColor=#f8cecc;strokeColor=#b85450;fontFamily=Lucida Console;" vertex="1" parent="jv0xiTuXP7Q5Xd7sCUJV-31">
          <mxGeometry x="220" y="60" width="120" height="30" as="geometry" />
        </mxCell>
        <mxCell id="y2ZhOVEjS_DB00s_sJJf-22" value="&lt;font&gt;User joined the project&lt;/font&gt;" style="shape=message;html=1;html=1;outlineConnect=0;labelPosition=center;verticalLabelPosition=bottom;align=center;verticalAlign=top;fillColor=#ffe6cc;strokeColor=#d79b00;fontFamily=Lucida Console;" vertex="1" parent="jv0xiTuXP7Q5Xd7sCUJV-31">
          <mxGeometry x="750" y="392.5" width="40" height="30" as="geometry" />
        </mxCell>
        <mxCell id="y2ZhOVEjS_DB00s_sJJf-40" value="Set request as rejected and disable withraw action" style="rounded=1;whiteSpace=wrap;html=1;fillColor=#f8cecc;strokeColor=#b85450;fontStyle=0;fontFamily=Lucida Console;" vertex="1" parent="jv0xiTuXP7Q5Xd7sCUJV-31">
          <mxGeometry x="375" y="50" width="120" height="70" as="geometry" />
        </mxCell>
        <mxCell id="y2ZhOVEjS_DB00s_sJJf-53" value="" style="edgeStyle=orthogonalEdgeStyle;rounded=0;orthogonalLoop=1;jettySize=auto;html=1;fontFamily=Lucida Console;" edge="1" parent="jv0xiTuXP7Q5Xd7sCUJV-31" source="y2ZhOVEjS_DB00s_sJJf-42" target="y2ZhOVEjS_DB00s_sJJf-52">
          <mxGeometry relative="1" as="geometry" />
        </mxCell>
        <mxCell id="y2ZhOVEjS_DB00s_sJJf-42" value="Set request as approved and disable withraw action&amp;nbsp;" style="rounded=1;whiteSpace=wrap;html=1;fillColor=#dae8fc;strokeColor=#6c8ebf;fontStyle=0;fontFamily=Lucida Console;" vertex="1" parent="jv0xiTuXP7Q5Xd7sCUJV-31">
          <mxGeometry x="603.8" y="50" width="120" height="70" as="geometry" />
        </mxCell>
        <mxCell id="y2ZhOVEjS_DB00s_sJJf-44" value="Set request as witdrawn and disable review actions" style="rounded=1;whiteSpace=wrap;html=1;fillColor=#f8cecc;strokeColor=#b85450;fontStyle=0;fontFamily=Lucida Console;" vertex="1" parent="jv0xiTuXP7Q5Xd7sCUJV-31">
          <mxGeometry x="860" y="50" width="120" height="70" as="geometry" />
        </mxCell>
        <mxCell id="y2ZhOVEjS_DB00s_sJJf-47" value="&lt;font&gt;Your request sent on review&lt;/font&gt;" style="shape=message;html=1;html=1;outlineConnect=0;labelPosition=center;verticalLabelPosition=bottom;align=center;verticalAlign=top;fillColor=#ffe6cc;strokeColor=#d79b00;fontFamily=Lucida Console;" vertex="1" parent="jv0xiTuXP7Q5Xd7sCUJV-31">
          <mxGeometry x="169.99999999999994" y="560" width="40" height="30" as="geometry" />
        </mxCell>
        <mxCell id="y2ZhOVEjS_DB00s_sJJf-48" value="" style="endArrow=classic;html=1;rounded=0;exitX=0.421;exitY=0.983;exitDx=0;exitDy=0;exitPerimeter=0;entryX=0;entryY=0.5;entryDx=0;entryDy=0;edgeStyle=orthogonalEdgeStyle;fontFamily=Lucida Console;" edge="1" parent="jv0xiTuXP7Q5Xd7sCUJV-31" source="jv0xiTuXP7Q5Xd7sCUJV-44" target="y2ZhOVEjS_DB00s_sJJf-47">
          <mxGeometry width="50" height="50" relative="1" as="geometry">
            <mxPoint x="71" y="474" as="sourcePoint" />
            <mxPoint x="1011" y="393" as="targetPoint" />
            <Array as="points" />
          </mxGeometry>
        </mxCell>
        <mxCell id="y2ZhOVEjS_DB00s_sJJf-52" value="Add user membership for project" style="rounded=1;whiteSpace=wrap;html=1;fillColor=#f8cecc;strokeColor=#b85450;fontStyle=0;fontFamily=Lucida Console;" vertex="1" parent="jv0xiTuXP7Q5Xd7sCUJV-31">
          <mxGeometry x="603.8" y="210" width="120" height="55" as="geometry" />
        </mxCell>
        <mxCell id="y2ZhOVEjS_DB00s_sJJf-55" value="&lt;font&gt;Request was approved and &lt;br&gt;user joined the project&lt;/font&gt;" style="shape=message;html=1;html=1;outlineConnect=0;labelPosition=center;verticalLabelPosition=bottom;align=center;verticalAlign=top;fillColor=#ffe6cc;strokeColor=#d79b00;fontFamily=Lucida Console;" vertex="1" parent="jv0xiTuXP7Q5Xd7sCUJV-31">
          <mxGeometry x="800" y="204" width="40" height="30" as="geometry" />
        </mxCell>
        <mxCell id="y2ZhOVEjS_DB00s_sJJf-56" value="" style="endArrow=classic;html=1;rounded=0;exitX=1.014;exitY=0.158;exitDx=0;exitDy=0;entryX=0;entryY=0.5;entryDx=0;entryDy=0;edgeStyle=orthogonalEdgeStyle;fontFamily=Lucida Console;exitPerimeter=0;" edge="1" parent="jv0xiTuXP7Q5Xd7sCUJV-31" source="y2ZhOVEjS_DB00s_sJJf-52" target="y2ZhOVEjS_DB00s_sJJf-55">
          <mxGeometry width="50" height="50" relative="1" as="geometry">
            <mxPoint x="724" y="238" as="sourcePoint" />
            <mxPoint x="996" y="364" as="targetPoint" />
            <Array as="points" />
          </mxGeometry>
        </mxCell>
        <mxCell id="y2ZhOVEjS_DB00s_sJJf-59" value="&lt;font&gt;Your request did not pass &lt;br&gt;review and was rejected&lt;/font&gt;" style="shape=message;html=1;html=1;outlineConnect=0;labelPosition=center;verticalLabelPosition=bottom;align=center;verticalAlign=top;fillColor=#ffe6cc;strokeColor=#d79b00;fontFamily=Lucida Console;" vertex="1" parent="jv0xiTuXP7Q5Xd7sCUJV-31">
          <mxGeometry x="415" y="150" width="40" height="30" as="geometry" />
        </mxCell>
        <mxCell id="y2ZhOVEjS_DB00s_sJJf-60" value="" style="endArrow=classic;html=1;rounded=0;exitX=0.5;exitY=1;exitDx=0;exitDy=0;entryX=0.5;entryY=0;entryDx=0;entryDy=0;edgeStyle=orthogonalEdgeStyle;fontFamily=Lucida Console;" edge="1" parent="jv0xiTuXP7Q5Xd7sCUJV-31" source="y2ZhOVEjS_DB00s_sJJf-40" target="y2ZhOVEjS_DB00s_sJJf-59">
          <mxGeometry width="50" height="50" relative="1" as="geometry">
            <mxPoint x="435" y="120" as="sourcePoint" />
            <mxPoint x="998" y="364" as="targetPoint" />
            <Array as="points" />
          </mxGeometry>
        </mxCell>
        <mxCell id="y2ZhOVEjS_DB00s_sJJf-61" value="&lt;font&gt;User withdrew request&lt;/font&gt;" style="shape=message;html=1;html=1;outlineConnect=0;labelPosition=center;verticalLabelPosition=bottom;align=center;verticalAlign=top;fillColor=#ffe6cc;strokeColor=#d79b00;fontFamily=Lucida Console;" vertex="1" parent="jv0xiTuXP7Q5Xd7sCUJV-31">
          <mxGeometry x="900" y="140" width="40" height="30" as="geometry" />
        </mxCell>
        <mxCell id="y2ZhOVEjS_DB00s_sJJf-62" value="" style="endArrow=classic;html=1;rounded=0;exitX=0.5;exitY=1;exitDx=0;exitDy=0;edgeStyle=orthogonalEdgeStyle;fontFamily=Lucida Console;" edge="1" parent="jv0xiTuXP7Q5Xd7sCUJV-31" source="y2ZhOVEjS_DB00s_sJJf-44" target="y2ZhOVEjS_DB00s_sJJf-61">
          <mxGeometry width="50" height="50" relative="1" as="geometry">
            <mxPoint x="870" y="120" as="sourcePoint" />
            <mxPoint x="1034" y="353" as="targetPoint" />
            <Array as="points" />
          </mxGeometry>
        </mxCell>
        <mxCell id="y2ZhOVEjS_DB00s_sJJf-69" value="Your request was approved" style="shape=message;html=1;html=1;outlineConnect=0;labelPosition=center;verticalLabelPosition=bottom;align=center;verticalAlign=top;fillColor=#ffe6cc;strokeColor=#d79b00;fontFamily=Lucida Console;" vertex="1" parent="jv0xiTuXP7Q5Xd7sCUJV-31">
          <mxGeometry x="770" y="285" width="40" height="30" as="geometry" />
        </mxCell>
        <mxCell id="y2ZhOVEjS_DB00s_sJJf-70" value="" style="endArrow=classic;html=1;rounded=0;exitX=1;exitY=0.75;exitDx=0;exitDy=0;edgeStyle=orthogonalEdgeStyle;" edge="1" parent="jv0xiTuXP7Q5Xd7sCUJV-31" source="y2ZhOVEjS_DB00s_sJJf-52" target="y2ZhOVEjS_DB00s_sJJf-69">
          <mxGeometry width="50" height="50" relative="1" as="geometry">
            <mxPoint x="724" y="251" as="sourcePoint" />
            <mxPoint x="1060" y="360" as="targetPoint" />
          </mxGeometry>
        </mxCell>
        <mxCell id="jv0xiTuXP7Q5Xd7sCUJV-32" value="" style="sketch=0;aspect=fixed;pointerEvents=1;shadow=0;html=1;labelPosition=center;verticalLabelPosition=bottom;verticalAlign=top;align=center;shape=mxgraph.azure.queue_generic;fillColor=#e1d5e7;strokeColor=#9673a6;fontFamily=Lucida Console;" vertex="1" parent="1">
          <mxGeometry x="1900" y="1330" width="187.5" height="56.25" as="geometry" />
        </mxCell>
        <mxCell id="jv0xiTuXP7Q5Xd7sCUJV-33" value="User with rights to review" style="swimlane;whiteSpace=wrap;html=1;fillColor=#d5e8d4;strokeColor=#82b366;fontFamily=Lucida Console;" vertex="1" parent="1">
          <mxGeometry x="1200.06" y="780" width="380" height="200" as="geometry" />
        </mxCell>
        <mxCell id="jv0xiTuXP7Q5Xd7sCUJV-11" value="Review" style="whiteSpace=wrap;html=1;rounded=1;fillColor=#dae8fc;strokeColor=#6c8ebf;fontStyle=0;fontFamily=Lucida Console;" vertex="1" parent="jv0xiTuXP7Q5Xd7sCUJV-33">
          <mxGeometry x="123.73999999999991" y="42.5" width="120" height="30" as="geometry" />
        </mxCell>
        <mxCell id="jv0xiTuXP7Q5Xd7sCUJV-12" value="Reject" style="whiteSpace=wrap;html=1;rounded=1;fillColor=#f8cecc;strokeColor=#b85450;fontStyle=0;fontFamily=Lucida Console;" vertex="1" parent="jv0xiTuXP7Q5Xd7sCUJV-33">
          <mxGeometry x="16.25999999999992" y="157.5" width="120" height="30" as="geometry" />
        </mxCell>
        <mxCell id="jv0xiTuXP7Q5Xd7sCUJV-8" value="" style="edgeStyle=orthogonalEdgeStyle;rounded=0;orthogonalLoop=1;jettySize=auto;html=1;fontStyle=0;fontFamily=Lucida Console;" edge="1" parent="jv0xiTuXP7Q5Xd7sCUJV-33" source="jv0xiTuXP7Q5Xd7sCUJV-11" target="jv0xiTuXP7Q5Xd7sCUJV-12">
          <mxGeometry relative="1" as="geometry" />
        </mxCell>
        <mxCell id="jv0xiTuXP7Q5Xd7sCUJV-15" value="Approve" style="whiteSpace=wrap;html=1;rounded=1;fillColor=#dae8fc;strokeColor=#6c8ebf;fontStyle=0;fontFamily=Lucida Console;" vertex="1" parent="jv0xiTuXP7Q5Xd7sCUJV-33">
          <mxGeometry x="243.74" y="157.5" width="120" height="30" as="geometry" />
        </mxCell>
        <mxCell id="jv0xiTuXP7Q5Xd7sCUJV-9" value="" style="edgeStyle=orthogonalEdgeStyle;rounded=0;orthogonalLoop=1;jettySize=auto;html=1;fontStyle=0;fontFamily=Lucida Console;" edge="1" parent="jv0xiTuXP7Q5Xd7sCUJV-33" source="jv0xiTuXP7Q5Xd7sCUJV-11" target="jv0xiTuXP7Q5Xd7sCUJV-15">
          <mxGeometry relative="1" as="geometry" />
        </mxCell>
        <mxCell id="y2ZhOVEjS_DB00s_sJJf-11" value="Project event log service" style="swimlane;whiteSpace=wrap;html=1;fontFamily=Lucida Console;" vertex="1" parent="1">
          <mxGeometry x="2130" y="1420" width="250" height="120" as="geometry" />
        </mxCell>
        <mxCell id="y2ZhOVEjS_DB00s_sJJf-12" value="Log the event in project log" style="rounded=1;whiteSpace=wrap;html=1;fillColor=#d5e8d4;strokeColor=#82b366;fontStyle=0;fontFamily=Lucida Console;" vertex="1" parent="y2ZhOVEjS_DB00s_sJJf-11">
          <mxGeometry x="40" y="50" width="180" height="40" as="geometry" />
        </mxCell>
        <mxCell id="y2ZhOVEjS_DB00s_sJJf-16" value="" style="edgeStyle=orthogonalEdgeStyle;rounded=0;orthogonalLoop=1;jettySize=auto;html=1;fontFamily=Lucida Console;" edge="1" parent="1" source="jv0xiTuXP7Q5Xd7sCUJV-19" target="y2ZhOVEjS_DB00s_sJJf-15">
          <mxGeometry relative="1" as="geometry">
            <mxPoint x="1060" y="900" as="sourcePoint" />
            <mxPoint x="1060" y="1130" as="targetPoint" />
          </mxGeometry>
        </mxCell>
        <mxCell id="y2ZhOVEjS_DB00s_sJJf-17" value="Request" style="edgeLabel;html=1;align=center;verticalAlign=middle;resizable=0;points=[];fontFamily=Lucida Console;" vertex="1" connectable="0" parent="y2ZhOVEjS_DB00s_sJJf-16">
          <mxGeometry x="-0.2611" relative="1" as="geometry">
            <mxPoint as="offset" />
          </mxGeometry>
        </mxCell>
        <mxCell id="y2ZhOVEjS_DB00s_sJJf-24" value="" style="edgeStyle=orthogonalEdgeStyle;rounded=0;orthogonalLoop=1;jettySize=auto;html=1;fontFamily=Lucida Console;entryX=0;entryY=0.604;entryDx=0;entryDy=0;entryPerimeter=0;" edge="1" parent="1" source="y2ZhOVEjS_DB00s_sJJf-22" target="jv0xiTuXP7Q5Xd7sCUJV-32">
          <mxGeometry relative="1" as="geometry" />
        </mxCell>
        <mxCell id="y2ZhOVEjS_DB00s_sJJf-25" value="" style="endArrow=classic;html=1;rounded=0;exitX=1;exitY=0.5;exitDx=0;exitDy=0;entryX=0.011;entryY=0.759;entryDx=0;entryDy=0;entryPerimeter=0;edgeStyle=orthogonalEdgeStyle;fontFamily=Lucida Console;" edge="1" parent="1" source="y2ZhOVEjS_DB00s_sJJf-13" target="jv0xiTuXP7Q5Xd7sCUJV-32">
          <mxGeometry width="50" height="50" relative="1" as="geometry">
            <mxPoint x="1430" y="1390" as="sourcePoint" />
            <mxPoint x="1480" y="1340" as="targetPoint" />
            <Array as="points">
              <mxPoint x="1780" y="1500" />
              <mxPoint x="1780" y="1372" />
              <mxPoint x="1902" y="1372" />
            </Array>
          </mxGeometry>
        </mxCell>
        <mxCell id="y2ZhOVEjS_DB00s_sJJf-26" value="Notification service" style="swimlane;whiteSpace=wrap;html=1;fontFamily=Lucida Console;" vertex="1" parent="1">
          <mxGeometry x="2130" y="1100" width="250" height="300" as="geometry" />
        </mxCell>
        <mxCell id="jv0xiTuXP7Q5Xd7sCUJV-25" value="Send notification that invintation was accepted to the person who invited" style="rounded=1;whiteSpace=wrap;html=1;fillColor=#d5e8d4;strokeColor=#82b366;fontStyle=0;fontFamily=Lucida Console;" vertex="1" parent="y2ZhOVEjS_DB00s_sJJf-26">
          <mxGeometry x="50" y="45" width="150" height="60" as="geometry" />
        </mxCell>
        <mxCell id="jv0xiTuXP7Q5Xd7sCUJV-22" value="Send notification to hiring persons that new participation request was created" style="rounded=1;whiteSpace=wrap;html=1;fillColor=#d5e8d4;strokeColor=#82b366;fontStyle=0;fontFamily=Lucida Console;" vertex="1" parent="y2ZhOVEjS_DB00s_sJJf-26">
          <mxGeometry x="35" y="120" width="180" height="70" as="geometry" />
        </mxCell>
        <mxCell id="y2ZhOVEjS_DB00s_sJJf-33" value="" style="edgeStyle=orthogonalEdgeStyle;rounded=0;orthogonalLoop=1;jettySize=auto;html=1;fillColor=#ffe6cc;strokeColor=#d79b00;entryX=0.5;entryY=0;entryDx=0;entryDy=0;fontFamily=Lucida Console;exitX=1;exitY=0.51;exitDx=0;exitDy=0;exitPerimeter=0;" edge="1" parent="1" source="jv0xiTuXP7Q5Xd7sCUJV-32" target="y2ZhOVEjS_DB00s_sJJf-32">
          <mxGeometry relative="1" as="geometry">
            <Array as="points" />
            <mxPoint x="2023.33" y="1363" as="sourcePoint" />
            <mxPoint x="2113.33" y="1490" as="targetPoint" />
          </mxGeometry>
        </mxCell>
        <mxCell id="y2ZhOVEjS_DB00s_sJJf-32" value="&lt;font&gt;User joined the project&lt;/font&gt;" style="shape=message;html=1;html=1;outlineConnect=0;labelPosition=center;verticalLabelPosition=bottom;align=center;verticalAlign=top;fillColor=#ffe6cc;strokeColor=#d79b00;fontFamily=Lucida Console;" vertex="1" parent="1">
          <mxGeometry x="2023.33" y="1440" width="40" height="30" as="geometry" />
        </mxCell>
        <mxCell id="y2ZhOVEjS_DB00s_sJJf-34" value="User who made participation request" style="swimlane;whiteSpace=wrap;html=1;fillColor=#d5e8d4;strokeColor=#82b366;fontFamily=Lucida Console;" vertex="1" parent="1">
          <mxGeometry x="1600" y="890" width="300" height="90" as="geometry" />
        </mxCell>
        <mxCell id="jv0xiTuXP7Q5Xd7sCUJV-16" value="Withdraw" style="whiteSpace=wrap;html=1;fillColor=#f8cecc;strokeColor=#b85450;rounded=1;fontStyle=0;fontFamily=Lucida Console;" vertex="1" parent="y2ZhOVEjS_DB00s_sJJf-34">
          <mxGeometry x="100" y="47.5" width="120" height="30" as="geometry" />
        </mxCell>
        <mxCell id="y2ZhOVEjS_DB00s_sJJf-41" value="" style="edgeStyle=orthogonalEdgeStyle;rounded=0;orthogonalLoop=1;jettySize=auto;html=1;fontFamily=Lucida Console;" edge="1" parent="1" source="jv0xiTuXP7Q5Xd7sCUJV-12" target="y2ZhOVEjS_DB00s_sJJf-40">
          <mxGeometry relative="1" as="geometry" />
        </mxCell>
        <mxCell id="y2ZhOVEjS_DB00s_sJJf-43" value="" style="edgeStyle=orthogonalEdgeStyle;rounded=0;orthogonalLoop=1;jettySize=auto;html=1;fontFamily=Lucida Console;" edge="1" parent="1" source="jv0xiTuXP7Q5Xd7sCUJV-15" target="y2ZhOVEjS_DB00s_sJJf-42">
          <mxGeometry relative="1" as="geometry" />
        </mxCell>
        <mxCell id="y2ZhOVEjS_DB00s_sJJf-45" value="" style="edgeStyle=orthogonalEdgeStyle;rounded=0;orthogonalLoop=1;jettySize=auto;html=1;fontFamily=Lucida Console;" edge="1" parent="1" source="jv0xiTuXP7Q5Xd7sCUJV-16" target="y2ZhOVEjS_DB00s_sJJf-44">
          <mxGeometry relative="1" as="geometry" />
        </mxCell>
        <mxCell id="y2ZhOVEjS_DB00s_sJJf-46" value="" style="endArrow=classic;html=1;rounded=0;exitX=1;exitY=0.5;exitDx=0;exitDy=0;entryX=-0.001;entryY=0.904;entryDx=0;entryDy=0;entryPerimeter=0;edgeStyle=orthogonalEdgeStyle;fontFamily=Lucida Console;" edge="1" parent="1" source="y2ZhOVEjS_DB00s_sJJf-47" target="jv0xiTuXP7Q5Xd7sCUJV-32">
          <mxGeometry width="50" height="50" relative="1" as="geometry">
            <mxPoint x="1220" y="1390" as="sourcePoint" />
            <mxPoint x="1270" y="1340" as="targetPoint" />
            <Array as="points">
              <mxPoint x="1790" y="1565" />
              <mxPoint x="1790" y="1381" />
            </Array>
          </mxGeometry>
        </mxCell>
        <mxCell id="y2ZhOVEjS_DB00s_sJJf-54" value="" style="endArrow=classic;html=1;rounded=0;exitX=1;exitY=0.5;exitDx=0;exitDy=0;edgeStyle=orthogonalEdgeStyle;fontFamily=Lucida Console;entryX=0.003;entryY=0.21;entryDx=0;entryDy=0;entryPerimeter=0;" edge="1" parent="1" source="y2ZhOVEjS_DB00s_sJJf-55" target="jv0xiTuXP7Q5Xd7sCUJV-32">
          <mxGeometry width="50" height="50" relative="1" as="geometry">
            <mxPoint x="1420" y="1260" as="sourcePoint" />
            <mxPoint x="1899" y="1350" as="targetPoint" />
            <Array as="points">
              <mxPoint x="1750" y="1209" />
              <mxPoint x="1750" y="1342" />
            </Array>
          </mxGeometry>
        </mxCell>
        <mxCell id="y2ZhOVEjS_DB00s_sJJf-57" value="" style="endArrow=classic;html=1;rounded=0;exitX=0.5;exitY=1;exitDx=0;exitDy=0;edgeStyle=orthogonalEdgeStyle;fontFamily=Lucida Console;entryX=0.005;entryY=0.03;entryDx=0;entryDy=0;entryPerimeter=0;" edge="1" parent="1" source="y2ZhOVEjS_DB00s_sJJf-61" target="jv0xiTuXP7Q5Xd7sCUJV-32">
          <mxGeometry width="50" height="50" relative="1" as="geometry">
            <mxPoint x="1510" y="1250" as="sourcePoint" />
            <mxPoint x="1899" y="1341" as="targetPoint" />
            <Array as="points">
              <mxPoint x="1760" y="1332" />
              <mxPoint x="1901" y="1332" />
            </Array>
          </mxGeometry>
        </mxCell>
        <mxCell id="y2ZhOVEjS_DB00s_sJJf-58" value="" style="endArrow=classic;html=1;rounded=0;exitX=0.5;exitY=1;exitDx=0;exitDy=0;entryX=0;entryY=0.5;entryDx=0;entryDy=0;entryPerimeter=0;edgeStyle=orthogonalEdgeStyle;fontFamily=Lucida Console;" edge="1" parent="1" source="y2ZhOVEjS_DB00s_sJJf-59" target="jv0xiTuXP7Q5Xd7sCUJV-32">
          <mxGeometry width="50" height="50" relative="1" as="geometry">
            <mxPoint x="1550" y="1300" as="sourcePoint" />
            <mxPoint x="1600" y="1250" as="targetPoint" />
          </mxGeometry>
        </mxCell>
        <mxCell id="y2ZhOVEjS_DB00s_sJJf-64" value="" style="endArrow=classic;html=1;rounded=0;exitX=0;exitY=0.5;exitDx=0;exitDy=0;entryX=0.5;entryY=0;entryDx=0;entryDy=0;edgeStyle=orthogonalEdgeStyle;fillColor=#ffe6cc;strokeColor=#d79b00;fontFamily=Lucida Console;" edge="1" parent="1" source="jv0xiTuXP7Q5Xd7sCUJV-44" target="jv0xiTuXP7Q5Xd7sCUJV-11">
          <mxGeometry width="50" height="50" relative="1" as="geometry">
            <mxPoint x="1400" y="1170" as="sourcePoint" />
            <mxPoint x="1450" y="1120" as="targetPoint" />
            <Array as="points">
              <mxPoint x="730" y="1440" />
              <mxPoint x="730" y="740" />
              <mxPoint x="1384" y="740" />
            </Array>
          </mxGeometry>
        </mxCell>
        <mxCell id="y2ZhOVEjS_DB00s_sJJf-67" value="&lt;font&gt;Request was approved and &lt;br&gt;user joined the project&lt;/font&gt;" style="shape=message;html=1;html=1;outlineConnect=0;labelPosition=center;verticalLabelPosition=bottom;align=center;verticalAlign=top;fillColor=#ffe6cc;strokeColor=#d79b00;fontFamily=Lucida Console;" vertex="1" parent="1">
          <mxGeometry x="2030" y="1500" width="40" height="30" as="geometry" />
        </mxCell>
        <mxCell id="y2ZhOVEjS_DB00s_sJJf-68" value="" style="endArrow=classic;html=1;rounded=0;exitX=1;exitY=0.5;exitDx=0;exitDy=0;edgeStyle=orthogonalEdgeStyle;entryX=-0.01;entryY=0.352;entryDx=0;entryDy=0;entryPerimeter=0;" edge="1" parent="1" source="y2ZhOVEjS_DB00s_sJJf-69" target="jv0xiTuXP7Q5Xd7sCUJV-32">
          <mxGeometry width="50" height="50" relative="1" as="geometry">
            <mxPoint x="1560" y="1300" as="sourcePoint" />
            <mxPoint x="1810" y="1340" as="targetPoint" />
            <Array as="points">
              <mxPoint x="1740" y="1290" />
              <mxPoint x="1740" y="1350" />
              <mxPoint x="1860" y="1350" />
            </Array>
          </mxGeometry>
        </mxCell>
      </root>
    </mxGraphModel>
  </diagram>
</mxfile>
